<?xml version="1.0" ?><svg width="64px" height="64px" viewBox="0 0 64 64" id="Layer_1" style="enable-background:new 0 0 64 64;" version="1.1" xml:space="preserve" xmlns="http://www.w3.org/2000/svg" xmlns:xlink="http://www.w3.org/1999/xlink"><style type="text/css">
	.st0{fill:#FFFFFF;}
	.st1{fill:#101820;}
</style><g><g><circle class="st0" cx="32" cy="32" r="32"/></g><g><path class="st1" d="M48.732,34.5c-0.276,0-0.5-0.224-0.5-0.5c0-0.827-0.673-1.5-1.5-1.5c-0.534,0-1.032,0.287-1.3,0.75    c-0.139,0.24-0.445,0.322-0.683,0.182c-0.239-0.138-0.321-0.444-0.183-0.683c0.445-0.771,1.275-1.249,2.165-1.249    c1.379,0,2.5,1.122,2.5,2.5C49.232,34.276,49.009,34.5,48.732,34.5z"/></g><g><path class="st1" d="M48.732,34.5c-0.276,0-0.5-0.224-0.5-0.5c0-1.378,1.121-2.5,2.5-2.5c0.89,0,1.72,0.479,2.165,1.249    c0.139,0.239,0.057,0.545-0.183,0.683c-0.237,0.138-0.544,0.057-0.683-0.182c-0.268-0.463-0.766-0.75-1.3-0.75    c-0.827,0-1.5,0.673-1.5,1.5C49.232,34.276,49.009,34.5,48.732,34.5z"/></g><g><path class="st1" d="M49.732,34.5h-2c-0.276,0-0.5-0.224-0.5-0.5s0.224-0.5,0.5-0.5h2c0.276,0,0.5,0.224,0.5,0.5    S50.009,34.5,49.732,34.5z"/></g><g><path class="st1" d="M53,12.5h-4c-0.276,0-0.5-0.224-0.5-0.5s0.224-0.5,0.5-0.5h4c0.276,0,0.5,0.224,0.5,0.5S53.276,12.5,53,12.5z    "/></g><g><path class="st1" d="M38.84,54.47c-0.173,0-0.342-0.09-0.435-0.252c-1.132-1.982-2.821-3.517-4.756-4.319    C33.012,49.634,32.457,49.5,32,49.5c-0.563,0-1.269,0.202-2.096,0.6c-1.764,0.846-3.25,2.264-4.299,4.099    c-0.139,0.241-0.446,0.321-0.683,0.186c-0.24-0.137-0.323-0.442-0.187-0.682c1.15-2.013,2.788-3.57,4.734-4.504    C30.435,48.735,31.286,48.5,32,48.5c0.589,0,1.272,0.16,2.032,0.475c2.139,0.888,4,2.573,5.242,4.747    c0.137,0.24,0.053,0.545-0.187,0.682C39.01,54.449,38.925,54.47,38.84,54.47z"/></g><g><path class="st1" d="M45,54.667c-0.177,0-0.349-0.094-0.438-0.261L39.703,45.5H24.297l-4.768,8.739    c-0.131,0.242-0.437,0.332-0.678,0.2c-0.242-0.132-0.332-0.436-0.199-0.678l4.909-9C23.648,44.6,23.817,44.5,24,44.5h16    c0.183,0,0.352,0.1,0.438,0.261l5,9.167c0.133,0.242,0.043,0.546-0.199,0.678C45.163,54.647,45.081,54.667,45,54.667z"/></g><g><path class="st1" d="M40,45.5H24c-0.276,0-0.5-0.224-0.5-0.5v-3c0-0.276,0.224-0.5,0.5-0.5h16c0.276,0,0.5,0.224,0.5,0.5v3    C40.5,45.276,40.276,45.5,40,45.5z M24.5,44.5h15v-2h-15V44.5z"/></g><g><path class="st1" d="M41,42.5H23c-0.276,0-0.5-0.224-0.5-0.5s0.224-0.5,0.5-0.5h18c0.276,0,0.5,0.224,0.5,0.5S41.276,42.5,41,42.5    z"/></g><g><path class="st1" d="M36.799,32.5h-9.598c-0.158,0-0.308-0.075-0.401-0.202c-0.095-0.127-0.123-0.292-0.077-0.443    c0.321-1.054,0.586-2.051,0.789-2.963C27.563,28.663,27.766,28.5,28,28.5h8c0.234,0,0.438,0.163,0.488,0.392    c0.203,0.912,0.468,1.909,0.789,2.963c0.046,0.151,0.018,0.316-0.077,0.443C37.106,32.425,36.957,32.5,36.799,32.5z M27.871,31.5    h8.258c-0.202-0.697-0.378-1.366-0.527-2h-7.203C28.249,30.134,28.073,30.803,27.871,31.5z"/></g><g><path class="st1" d="M35,16.5h-6c-0.276,0-0.5-0.224-0.5-0.5v-2c0-0.276,0.224-0.5,0.5-0.5h6c0.276,0,0.5,0.224,0.5,0.5v2    C35.5,16.276,35.276,16.5,35,16.5z M29.5,15.5h5v-1h-5V15.5z"/></g><g><path class="st1" d="M34,14.5h-4c-0.173,0-0.334-0.09-0.426-0.237c-0.091-0.147-0.099-0.332-0.021-0.486l2-4    c0.17-0.339,0.725-0.339,0.895,0l2,4c0.077,0.155,0.069,0.339-0.021,0.486C34.334,14.41,34.173,14.5,34,14.5z M30.809,13.5h2.383    L32,11.118L30.809,13.5z"/></g><g><path class="st1" d="M32,10.5c-0.276,0-0.5-0.224-0.5-0.5V8c0-0.276,0.224-0.5,0.5-0.5s0.5,0.224,0.5,0.5v2    C32.5,10.276,32.276,10.5,32,10.5z"/></g><g><path class="st1" d="M38,32.5H26c-0.276,0-0.5-0.224-0.5-0.5s0.224-0.5,0.5-0.5h12c0.276,0,0.5,0.224,0.5,0.5S38.276,32.5,38,32.5    z"/></g><g><path class="st1" d="M37,29.5H27c-0.276,0-0.5-0.224-0.5-0.5s0.224-0.5,0.5-0.5h10c0.276,0,0.5,0.224,0.5,0.5S37.276,29.5,37,29.5    z"/></g><g><path class="st1" d="M32,29.5c-0.276,0-0.5-0.224-0.5-0.5V16c0-0.276,0.224-0.5,0.5-0.5s0.5,0.224,0.5,0.5v13    C32.5,29.276,32.276,29.5,32,29.5z"/></g><g><path class="st1" d="M30,30.5c-0.276,0-0.5-0.224-0.5-0.5v-1c0-0.276,0.224-0.5,0.5-0.5s0.5,0.224,0.5,0.5v1    C30.5,30.276,30.276,30.5,30,30.5z"/></g><g><path class="st1" d="M32,30.5c-0.276,0-0.5-0.224-0.5-0.5v-1c0-0.276,0.224-0.5,0.5-0.5s0.5,0.224,0.5,0.5v1    C32.5,30.276,32.276,30.5,32,30.5z"/></g><g><path class="st1" d="M34,30.5c-0.276,0-0.5-0.224-0.5-0.5v-1c0-0.276,0.224-0.5,0.5-0.5s0.5,0.224,0.5,0.5v1    C34.5,30.276,34.276,30.5,34,30.5z"/></g><g><path class="st1" d="M39,42.5h-4c-0.238,0-0.443-0.168-0.49-0.402l-2-10c-0.029-0.147,0.009-0.299,0.104-0.415    S32.851,31.5,33,31.5h3.745c0.238,0,0.443,0.168,0.49,0.401c1.002,4.97,2.237,9.928,2.25,9.978    c0.037,0.149,0.004,0.308-0.091,0.429C39.3,42.429,39.154,42.5,39,42.5z M35.41,41.5h2.952c-0.352-1.441-1.246-5.178-2.026-9    H33.61L35.41,41.5z"/></g><g><path class="st1" d="M29,42.5h-4c-0.154,0-0.299-0.071-0.395-0.192c-0.095-0.121-0.128-0.279-0.091-0.429    c0.013-0.05,1.248-5.009,2.25-9.978c0.047-0.233,0.252-0.401,0.49-0.401H31c0.149,0,0.292,0.067,0.387,0.183    s0.133,0.268,0.104,0.415l-2,10C29.443,42.332,29.238,42.5,29,42.5z M25.638,41.5h2.952l1.8-9h-2.726    C26.884,36.322,25.989,40.059,25.638,41.5z"/></g><g><path class="st1" d="M30.2,36.5h-3.806c-0.276,0-0.5-0.224-0.5-0.5s0.224-0.5,0.5-0.5H30.2c0.276,0,0.5,0.224,0.5,0.5    S30.477,36.5,30.2,36.5z"/></g><g><path class="st1" d="M25,42.5c-0.116,0-0.232-0.04-0.327-0.122c-0.209-0.181-0.231-0.497-0.051-0.706l4.937-5.695L26.801,32.3    c-0.165-0.221-0.12-0.534,0.101-0.7c0.22-0.165,0.533-0.122,0.7,0.1l2.999,4c0.141,0.188,0.132,0.449-0.022,0.627l-5.2,6    C25.279,42.441,25.14,42.5,25,42.5z"/></g><g><path class="st1" d="M37.605,36.5H33.8c-0.276,0-0.5-0.224-0.5-0.5s0.224-0.5,0.5-0.5h3.806c0.276,0,0.5,0.224,0.5,0.5    S37.882,36.5,37.605,36.5z"/></g><g><path class="st1" d="M39,42.5c-0.14,0-0.279-0.059-0.378-0.172l-5.2-6c-0.154-0.178-0.163-0.439-0.022-0.627l2.999-4    c0.167-0.221,0.48-0.265,0.7-0.1c0.221,0.166,0.266,0.479,0.101,0.7l-2.758,3.677l4.937,5.695    c0.181,0.209,0.158,0.524-0.051,0.706C39.232,42.46,39.116,42.5,39,42.5z"/></g><g><path class="st1" d="M36,29.5h-8c-0.161,0-0.312-0.077-0.405-0.208c-0.095-0.13-0.12-0.298-0.069-0.451    c0.972-2.913,1.967-12.792,1.978-12.892c0.025-0.255,0.24-0.45,0.497-0.45h4c0.257,0,0.472,0.195,0.497,0.45    c0.011,0.1,1.006,9.979,1.978,12.892c0.051,0.152,0.025,0.32-0.069,0.451C36.312,29.423,36.161,29.5,36,29.5z M28.667,28.5h6.666    c-0.825-3.144-1.59-10.137-1.784-12h-3.098C30.257,18.363,29.492,25.356,28.667,28.5z"/></g><g><path class="st1" d="M32,18.5c-0.054,0-0.106-0.009-0.158-0.026l-2.137-0.711c-0.262-0.087-0.403-0.371-0.316-0.633    c0.089-0.262,0.372-0.402,0.633-0.316L32,17.473l1.979-0.659c0.263-0.087,0.545,0.054,0.633,0.316    c0.087,0.262-0.055,0.545-0.316,0.633l-2.137,0.711C32.106,18.491,32.054,18.5,32,18.5z"/></g><g><path class="st1" d="M34.428,20.309c-0.053,0-0.105-0.008-0.158-0.026L32,19.527l-2.27,0.756    c-0.261,0.088-0.544-0.053-0.633-0.316c-0.087-0.262,0.055-0.545,0.316-0.632l2.428-0.809c0.104-0.034,0.213-0.034,0.316,0    l2.428,0.809c0.262,0.087,0.403,0.37,0.316,0.632C34.832,20.177,34.637,20.309,34.428,20.309z"/></g><g><path class="st1" d="M32,22.5c-0.054,0-0.106-0.009-0.158-0.026l-2.594-0.865c-0.262-0.087-0.403-0.37-0.316-0.632    c0.088-0.262,0.371-0.401,0.633-0.316L32,21.473l2.436-0.812c0.262-0.086,0.545,0.054,0.633,0.316    c0.087,0.262-0.055,0.545-0.316,0.632l-2.594,0.865C32.106,22.491,32.054,22.5,32,22.5z"/></g><g><path class="st1" d="M35,24.5c-0.053,0-0.105-0.008-0.158-0.026L32,23.527l-2.842,0.947c-0.261,0.087-0.544-0.053-0.633-0.316    c-0.087-0.262,0.055-0.545,0.316-0.632l3-1c0.104-0.034,0.213-0.034,0.316,0l3,1c0.262,0.087,0.403,0.37,0.316,0.632    C35.404,24.368,35.209,24.5,35,24.5z"/></g><g><path class="st1" d="M32,26.5c-0.054,0-0.106-0.009-0.158-0.026l-3-1c-0.262-0.087-0.403-0.37-0.316-0.632    c0.089-0.262,0.373-0.401,0.633-0.316L32,25.473l2.842-0.947c0.262-0.085,0.545,0.054,0.633,0.316    c0.087,0.262-0.055,0.545-0.316,0.632l-3,1C32.106,26.491,32.054,26.5,32,26.5z"/></g><g><path class="st1" d="M36,29.5c-0.075,0-0.151-0.017-0.224-0.053L32,27.559l-3.776,1.888c-0.248,0.123-0.547,0.024-0.671-0.224    c-0.123-0.247-0.023-0.547,0.224-0.671l4-2c0.141-0.07,0.307-0.07,0.447,0l4,2c0.247,0.124,0.347,0.424,0.224,0.671    C36.359,29.399,36.183,29.5,36,29.5z"/></g><g><path class="st1" d="M42.182,49.5H21.818c-0.177,0-0.34-0.093-0.43-0.245c-0.091-0.152-0.094-0.34-0.009-0.495l2.182-4    C23.648,44.6,23.817,44.5,24,44.5h16c0.183,0,0.352,0.1,0.438,0.261l2.182,4c0.085,0.155,0.082,0.343-0.009,0.495    C42.521,49.407,42.358,49.5,42.182,49.5z M22.66,48.5h18.68l-1.637-3H24.297L22.66,48.5z"/></g><g><path class="st1" d="M26,43.5c-0.276,0-0.5-0.224-0.5-0.5v-1c0-0.276,0.224-0.5,0.5-0.5s0.5,0.224,0.5,0.5v1    C26.5,43.276,26.276,43.5,26,43.5z"/></g><g><path class="st1" d="M28,43.5c-0.276,0-0.5-0.224-0.5-0.5v-1c0-0.276,0.224-0.5,0.5-0.5s0.5,0.224,0.5,0.5v1    C28.5,43.276,28.276,43.5,28,43.5z"/></g><g><path class="st1" d="M30,43.5c-0.276,0-0.5-0.224-0.5-0.5v-1c0-0.276,0.224-0.5,0.5-0.5s0.5,0.224,0.5,0.5v1    C30.5,43.276,30.276,43.5,30,43.5z"/></g><g><path class="st1" d="M32,43.5c-0.276,0-0.5-0.224-0.5-0.5v-1c0-0.276,0.224-0.5,0.5-0.5s0.5,0.224,0.5,0.5v1    C32.5,43.276,32.276,43.5,32,43.5z"/></g><g><path class="st1" d="M34,43.5c-0.276,0-0.5-0.224-0.5-0.5v-1c0-0.276,0.224-0.5,0.5-0.5s0.5,0.224,0.5,0.5v1    C34.5,43.276,34.276,43.5,34,43.5z"/></g><g><path class="st1" d="M36,43.5c-0.276,0-0.5-0.224-0.5-0.5v-1c0-0.276,0.224-0.5,0.5-0.5s0.5,0.224,0.5,0.5v1    C36.5,43.276,36.276,43.5,36,43.5z"/></g><g><path class="st1" d="M38,43.5c-0.276,0-0.5-0.224-0.5-0.5v-1c0-0.276,0.224-0.5,0.5-0.5s0.5,0.224,0.5,0.5v1    C38.5,43.276,38.276,43.5,38,43.5z"/></g><g><path class="st1" d="M25,47.5c-0.276,0-0.5-0.224-0.5-0.5v-2c0-0.276,0.224-0.5,0.5-0.5s0.5,0.224,0.5,0.5v2    C25.5,47.276,25.276,47.5,25,47.5z"/></g><g><path class="st1" d="M27,47.5c-0.276,0-0.5-0.224-0.5-0.5v-2c0-0.276,0.224-0.5,0.5-0.5s0.5,0.224,0.5,0.5v2    C27.5,47.276,27.276,47.5,27,47.5z"/></g><g><path class="st1" d="M29,47.5c-0.276,0-0.5-0.224-0.5-0.5v-2c0-0.276,0.224-0.5,0.5-0.5s0.5,0.224,0.5,0.5v2    C29.5,47.276,29.276,47.5,29,47.5z"/></g><g><path class="st1" d="M31,47.5c-0.276,0-0.5-0.224-0.5-0.5v-2c0-0.276,0.224-0.5,0.5-0.5s0.5,0.224,0.5,0.5v2    C31.5,47.276,31.276,47.5,31,47.5z"/></g><g><path class="st1" d="M33,47.5c-0.276,0-0.5-0.224-0.5-0.5v-2c0-0.276,0.224-0.5,0.5-0.5s0.5,0.224,0.5,0.5v2    C33.5,47.276,33.276,47.5,33,47.5z"/></g><g><path class="st1" d="M35,47.5c-0.276,0-0.5-0.224-0.5-0.5v-2c0-0.276,0.224-0.5,0.5-0.5s0.5,0.224,0.5,0.5v2    C35.5,47.276,35.276,47.5,35,47.5z"/></g><g><path class="st1" d="M37,47.5c-0.276,0-0.5-0.224-0.5-0.5v-2c0-0.276,0.224-0.5,0.5-0.5s0.5,0.224,0.5,0.5v2    C37.5,47.276,37.276,47.5,37,47.5z"/></g><g><path class="st1" d="M39,47.5c-0.276,0-0.5-0.224-0.5-0.5v-2c0-0.276,0.224-0.5,0.5-0.5s0.5,0.224,0.5,0.5v2    C39.5,47.276,39.276,47.5,39,47.5z"/></g><g><path class="st1" d="M23.179,54.5c-0.2,0-0.39-0.122-0.467-0.32c-0.099-0.258,0.029-0.547,0.287-0.646l1.891-0.73l-3.434-3.442    c-0.195-0.195-0.195-0.512,0-0.707c0.195-0.194,0.512-0.195,0.707,0.001l3.976,3.985c0.12,0.12,0.171,0.292,0.136,0.457    c-0.035,0.166-0.151,0.302-0.31,0.363l-2.606,1.007C23.3,54.489,23.238,54.5,23.179,54.5z"/></g><g><path class="st1" d="M21.1,54.5c-0.099,0-0.197-0.029-0.284-0.088l-1.46-1.007c-0.143-0.099-0.225-0.265-0.215-0.438    c0.009-0.174,0.108-0.33,0.261-0.413l7.36-3.984c0.243-0.131,0.547-0.042,0.678,0.201c0.132,0.243,0.041,0.546-0.201,0.678    l-6.644,3.597l0.789,0.544c0.227,0.157,0.284,0.468,0.127,0.695C21.414,54.424,21.258,54.5,21.1,54.5z"/></g><g><path class="st1" d="M40.821,54.5c-0.06,0-0.121-0.011-0.18-0.034l-2.606-1.007c-0.158-0.061-0.274-0.197-0.31-0.363    c-0.035-0.165,0.016-0.337,0.136-0.457l3.976-3.985c0.195-0.196,0.512-0.195,0.707-0.001c0.195,0.195,0.195,0.512,0,0.707    l-3.434,3.442l1.891,0.73c0.258,0.1,0.386,0.389,0.287,0.646C41.211,54.378,41.021,54.5,40.821,54.5z"/></g><g><path class="st1" d="M43,54.431c-0.158,0-0.314-0.076-0.412-0.216c-0.156-0.227-0.099-0.539,0.128-0.695l0.689-0.475l-6.644-3.597    c-0.242-0.131-0.333-0.435-0.201-0.678c0.131-0.244,0.435-0.332,0.678-0.201l7.36,3.984c0.152,0.083,0.252,0.239,0.261,0.413    c0.01,0.174-0.072,0.34-0.215,0.438l-1.36,0.938C43.197,54.402,43.099,54.431,43,54.431z"/></g><g><path class="st1" d="M23,27.5h-3c-0.276,0-0.5-0.224-0.5-0.5v-1c0-1.378-1.121-2.5-2.5-2.5s-2.5,1.122-2.5,2.5v1    c0,0.276-0.224,0.5-0.5,0.5s-0.5-0.224-0.5-0.5v-0.5c0-0.551-0.448-1-1-1s-1,0.449-1,1V27c0,0.276-0.224,0.5-0.5,0.5H8    c-0.276,0-0.5-0.224-0.5-0.5s0.224-0.5,0.5-0.5h2.5c0-1.103,0.897-2,2-2c0.441,0,0.851,0.144,1.182,0.387    C14.147,23.501,15.459,22.5,17,22.5c1.93,0,3.5,1.57,3.5,3.5v0.5H23c0.276,0,0.5,0.224,0.5,0.5S23.276,27.5,23,27.5z"/></g></g></svg>