<?xml version="1.0" encoding="utf-8"?>
<!-- Generator: Adobe Illustrator 22.0.1, SVG Export Plug-In . SVG Version: 6.00 Build 0)  -->
<svg version="1.1" id="Calque_1" xmlns="http://www.w3.org/2000/svg" xmlns:xlink="http://www.w3.org/1999/xlink" x="0px" y="0px"
	 viewBox="0 0 100 99.8" style="enable-background:new 0 0 100 99.8;" xml:space="preserve">
<title>Artboard 19</title>
<path d="M96.3,33.9c-3.2-2.7-8-2.3-10.7,0.9c-1.2,1.4-1.8,3.1-1.8,4.9v15c-0.5-0.2-1.1-0.3-1.6-0.4c-2.3-0.2-4.5,0.6-6.1,2.2
	L57.5,75.1c-2.6,2.6-4,6.1-4,9.8v11.7c0,1.4,1.1,2.5,2.5,2.5s2.5-1.1,2.5-2.5V84.8c0-2.3,0.9-4.6,2.5-6.2l18.5-18.5c1-1,2.6-1,3.6,0
	s1,2.6,0,3.6L72.4,74.5c-0.9,1.1-0.8,2.6,0.3,3.5c0.9,0.8,2.3,0.8,3.3,0l10.7-10.7c1.8-1.8,2.6-4.5,2-7c0-0.2,0-0.3,0-0.5V39.7
	c0-1.4,1.2-2.6,2.6-2.6c1.4,0,2.6,1.2,2.6,2.6l0,0v28c0,2.8-1.1,5.5-3.1,7.5L76,90.2c-0.5,0.5-0.7,1.1-0.7,1.8v4.6
	c0,1.4,1.1,2.5,2.5,2.5s2.5-1.1,2.5-2.5V93l14.1-14.2c3-2.9,4.6-6.9,4.6-11.1v-28C99,37.5,98,35.4,96.3,33.9z"/>
<path d="M19.8,93v3.5c0,1.4,1.1,2.5,2.5,2.5s2.5-1.1,2.5-2.5v-4.6c0-0.7-0.3-1.3-0.8-1.8L9.2,75.3c-2-2-3.2-4.7-3.2-7.5v-28
	c0-1.4,1.2-2.6,2.6-2.6s2.6,1.2,2.6,2.6v20c0,0.2,0,0.3,0,0.5c-0.6,2.5,0.2,5.2,2,7L24,78c1,1,2.6,1,3.5,0s1-2.6,0-3.5L16.9,63.8
	c-1-1-1-2.6,0-3.6s2.6-1,3.6,0l0,0L39,78.6c1.7,1.6,2.6,3.9,2.6,6.2v11.7c0,1.4,1.1,2.5,2.5,2.5s2.5-1.1,2.5-2.5V84.8
	c0-3.7-1.4-7.2-4-9.8L24,56.6c-1.6-1.6-3.9-2.4-6.2-2.2c-0.5,0.1-1.1,0.2-1.6,0.4V39.7c0-4.2-3.4-7.6-7.6-7.6S1,35.5,1,39.7v28
	c0,4.2,1.7,8.2,4.6,11.1L19.8,93z"/>
<path d="M20.3,30.8c0,13.2,8.7,24.9,21.4,28.6l4,7.2c0.9,1.6,2.6,2.6,4.4,2.6l0,0c1.8,0,3.5-1,4.4-2.6l4-7.2
	c15.8-4.6,24.8-21.2,20.2-37C74.1,6.6,57.6-2.4,41.8,2.2C29.1,5.9,20.3,17.6,20.3,30.8L20.3,30.8z M74.9,30.8
	c0,11.3-7.7,21.2-18.7,24C55.6,55,55,55.4,54.6,56l-4.6,8.2l-4.5-8.1c-0.3-0.6-0.9-1.1-1.6-1.2C30.7,51.5,22.7,38,26.1,24.7
	S42.9,3.4,56.2,6.8C67.2,9.6,74.9,19.5,74.9,30.8L74.9,30.8z"/>
</svg>
