<?xml version="1.0" ?><!DOCTYPE svg  PUBLIC '-//W3C//DTD SVG 1.1//EN'  'http://www.w3.org/Graphics/SVG/1.1/DTD/svg11.dtd'><svg width="64px" height="64px" viewBox="0 0 64 64" enable-background="new 0 0 64 64" version="1.1" xml:space="preserve" xmlns="http://www.w3.org/2000/svg" xmlns:xlink="http://www.w3.org/1999/xlink"><g id="grid"/><g id="Layer_2"/><g id="Layer_3"/><g id="Layer_4"/><g id="Layer_5"/><g id="Layer_6"/><g id="Layer_7"/><g id="Layer_8"/><g id="Layer_9"/><g id="Layer_10"/><g id="Layer_37"/><g id="Layer_11"/><g id="Layer_12"/><g id="Layer_13"/><g id="Layer_14"/><g id="Layer_16"/><g id="Layer_17"/><g id="Layer_18"><g><g><path d="M50.423,33.646H8.806v-25h41.617V33.646z M10.806,31.646h37.617v-21H10.806V31.646z"/></g><g><path d="M36.035,43.313H23.193l1.245-10.167H34.79L36.035,43.313z M25.453,41.313h8.322l-0.755-6.167h-6.813L25.453,41.313z"/></g><g><path d="M47.979,55.354H11.25l2.533-9.5h31.662L47.979,55.354z M13.854,53.354h31.521l-1.467-5.5H15.32L13.854,53.354z"/></g><g><path d="M52.255,54.188c-1.338,0-2.506-0.905-2.842-2.201l-0.659-2.541c-0.197-0.759-0.087-1.55,0.312-2.227     c0.397-0.676,1.035-1.157,1.795-1.354c1.55-0.403,3.182,0.57,3.58,2.106l0.659,2.541c0.197,0.759,0.087,1.55-0.312,2.227     c-0.397,0.676-1.035,1.157-1.795,1.354C52.751,54.156,52.503,54.188,52.255,54.188z M51.599,47.771     c-0.079,0-0.158,0.01-0.236,0.03c-0.242,0.063-0.446,0.217-0.573,0.433s-0.162,0.468-0.1,0.71l0.659,2.541     c0.127,0.49,0.643,0.799,1.143,0.672c0.242-0.063,0.446-0.217,0.573-0.433s0.162-0.468,0.1-0.71l-0.659-2.541     C52.397,48.06,52.025,47.771,51.599,47.771z"/></g></g></g><g id="Layer_19"/><g id="Layer_20"/><g id="Layer_21"/><g id="Layer_22"/><g id="Layer_23"/><g id="Layer_24"/><g id="Layer_25"/></svg>