<?xml version="1.0" encoding="utf-8"?>
<!-- Generator: Adobe Illustrator 25.2.1, SVG Export Plug-In . SVG Version: 6.00 Build 0)  -->
<svg version="1.1" id="Layer_1" xmlns="http://www.w3.org/2000/svg" xmlns:xlink="http://www.w3.org/1999/xlink" x="0px" y="0px"
	 viewBox="0 0 864 864" style="enable-background:new 0 0 864 864;" xml:space="preserve">
<style type="text/css">
	.st0{fill:#010101;}
</style>
<g>
	<path class="st0" d="M673.8,408.7c-21.9-80.2-69.6-138.5-113.4-138.5c-20.1,0-30.3,9.2-37.1,16.2c-2.9,2.9-7.1,4.6-11.6,4.6h-65.5
		l-93.7,0.1c-4.6,0-8.9-1.7-11.6-4.6c-6.9-7.1-15-16.2-37.1-16.2c-43.8,0-91.6,58.2-113.3,138.4c-24.5,89.7-7.1,170.2,39.6,183.2
		c4.4,1.2,58.7,19.1,111-91.7c8.7,8.7,20.5,14,33.5,14c26.3,0,47.7-21.6,47.7-48.2c0-7.2-1.7-13.9-4.5-20.1h29.4
		c-2.8,6.1-4.4,12.9-4.4,20.1c0,26.6,21.4,48.2,47.7,48.2c12.8,0,24.6-5.2,33.1-13.6c29.1,64.8,75.5,102.1,110.9,91.3
		C680.5,577.8,698.2,498.4,673.8,408.7z M374.5,486.2c-10.7,0-19.5-9.1-19.5-20.1c0-11,8.8-20.1,19.5-20.1
		c10.7,0,19.5,9.1,19.5,20.1C394,477.2,385.2,486.2,374.5,486.2z M490.2,486.2c-10.7,0-19.5-9.1-19.5-20.1c0-11,8.8-20.1,19.5-20.1
		c10.7,0,19.5,9.1,19.5,20.1C509.8,477.2,501,486.2,490.2,486.2z M626.6,565c-29.4,9.3-72.3-44.2-92.2-116.8
		c0-0.1-5.4-30.2-38.4-30.2H368.2c-17.8,0-33.6,12.2-38.4,30.1v0.1C310,520.8,267.1,574.2,237.6,565c-26.4-8.3-41.5-70.5-20.1-148.8
		c19.8-72.7,60.3-117.8,86.4-117.8c7.9,0,13.5,4.3,16.9,7.7c8.1,8.4,19.7,13.1,31.8,13.1h159c12.1,0,23.8-4.8,31.8-13.1
		c3.4-3.5,7.9-7.7,16.9-7.7c26.1,0,66.6,45.1,86.4,117.8C668.1,494.5,652.9,556.6,626.6,565z"/>
	<path class="st0" d="M395.7,339.5h-14c-7.8,0-14,6.3-14,14c0,7.8,6.3,14,14,14h14c7.8,0,14-6.3,14-14
		C409.7,345.7,403.5,339.5,395.7,339.5z"/>
	<path class="st0" d="M482.4,339.5h-14c-7.8,0-14,6.3-14,14c0,7.8,6.3,14,14,14h14c7.8,0,14-6.3,14-14
		C496.5,345.7,490.1,339.5,482.4,339.5z"/>
	<path class="st0" d="M323.5,377.8h-17.7v-18.2c0-7.8-6.3-14-14-14c-7.8,0-14,6.3-14,14v18.2H260c-7.8,0-14,6.3-14,14
		c0,7.8,6.3,14,14,14h17.7v18.2c0,7.8,6.3,14,14,14c7.8,0,14-6.3,14-14v-18.2h17.8c7.8,0,14-6.3,14-14
		C337.6,384,331.3,377.8,323.5,377.8z"/>
	<path class="st0" d="M604.2,377.8h-17.7v-18.2c0-7.8-6.3-14-14-14s-14,6.3-14,14v18.2h-17.7c-7.8,0-14,6.3-14,14
		c0,7.8,6.3,14,14,14h17.7v18.2c0,7.8,6.3,14,14,14c7.8,0,14-6.3,14-14v-18.2h17.7c7.8,0,14-6.3,14-14
		C618.2,384,611.9,377.8,604.2,377.8z"/>
</g>
</svg>
