<?xml version="1.0" standalone="no"?>
   <!DOCTYPE svg PUBLIC "-//W3C//DTD SVG 1.1//EN" 
   "http://www.w3.org/Graphics/SVG/1.1/DTD/svg11.dtd"><svg id="svg" version="1.1" width="2793" height="2451" xmlns="http://www.w3.org/2000/svg"><path d="M1666.500 208.147 C 1602.669 218.651,1550.104 245.050,1517.687 282.881 C 1500.047 303.467,1478.416 339.003,1482.717 340.331 C 1484.798 340.973,1518.885 347.094,1558.468 353.935 C 1646.208 369.097,1659.000 371.783,1659.000 375.046 C 1659.000 376.449,1655.963 378.440,1652.250 379.472 C 1613.794 390.160,1611.495 401.653,1638.412 448.675 C 1694.472 546.609,1790.486 633.393,1945.171 725.944 C 1985.761 750.229,2012.908 770.026,2027.190 785.757 C 2033.578 792.793,2063.535 851.453,2072.896 875.256 L 2076.733 885.013 1993.350 969.756 C 1947.489 1016.365,1906.487 1056.854,1902.233 1059.730 C 1892.015 1066.641,1881.518 1066.338,1870.500 1058.815 C 1855.518 1048.586,1799.934 1021.236,1742.143 995.657 C 1645.089 952.701,1638.930 948.191,1635.096 917.275 C 1632.183 893.789,1629.531 888.490,1614.059 875.246 C 1579.905 846.012,1520.260 854.864,1496.918 892.633 C 1493.260 898.551,1488.745 910.247,1486.884 918.624 C 1480.567 947.057,1466.894 950.576,1353.000 953.084 C 1263.794 955.048,1257.658 953.902,1251.641 934.152 C 1246.133 916.071,1227.430 893.460,1211.403 885.507 C 1184.037 871.926,1145.995 878.506,1122.384 900.904 C 1108.168 914.389,1101.144 931.175,1101.066 951.856 C 1101.026 962.457,1099.171 972.002,1096.301 976.383 C 1090.651 985.006,1065.125 1001.574,1024.500 1022.987 C 966.596 1053.507,934.295 1074.727,897.765 1106.246 C 885.811 1116.561,874.102 1125.000,871.746 1125.000 C 866.572 1125.000,828.688 1095.701,735.558 1019.673 C 655.591 954.391,662.886 967.279,677.158 916.500 C 687.656 879.149,699.143 854.966,714.087 838.753 C 721.076 831.171,745.853 810.585,769.147 793.007 C 908.203 688.074,995.057 595.166,1042.861 500.217 C 1057.934 470.278,1065.932 443.311,1063.315 431.254 C 1060.540 418.473,1051.426 414.000,1028.155 414.000 C 1016.670 414.000,1008.385 412.804,1009.325 411.283 C 1012.469 406.196,1060.434 390.665,1111.586 378.172 C 1139.650 371.317,1167.986 362.704,1174.555 359.030 C 1184.767 353.320,1186.637 350.704,1187.441 341.007 C 1188.310 330.535,1186.889 328.200,1168.909 310.571 C 1117.568 260.231,1013.711 235.022,920.685 250.321 C 829.084 265.385,746.103 309.345,680.380 377.624 C 639.681 419.906,613.923 456.702,586.666 511.500 C 539.450 606.425,516.167 704.243,510.526 831.384 C 507.058 909.537,509.642 936.230,525.065 981.556 C 549.302 1052.787,568.393 1084.598,614.878 1131.208 C 646.503 1162.918,669.973 1181.470,741.766 1231.504 C 768.372 1250.047,779.626 1259.594,778.700 1262.836 C 777.967 1265.401,771.718 1289.775,764.813 1317.000 C 757.908 1344.225,750.738 1368.036,748.879 1369.912 C 746.932 1371.879,713.375 1376.176,669.707 1380.052 C 584.934 1387.577,522.468 1387.318,503.863 1379.365 C 469.608 1364.723,399.601 1276.227,366.145 1205.278 C 340.677 1151.267,339.296 1126.343,358.706 1071.000 C 372.481 1031.722,375.628 1001.130,366.990 990.471 C 358.133 979.543,340.565 980.198,330.158 991.845 C 316.556 1007.068,289.165 1102.767,286.035 1146.000 C 284.084 1172.960,289.416 1189.723,320.867 1255.500 C 359.425 1336.141,394.352 1394.449,427.189 1432.994 C 443.167 1451.751,447.139 1454.758,458.365 1456.602 C 483.041 1460.656,658.913 1456.047,693.000 1450.454 C 710.325 1447.611,729.033 1445.108,734.574 1444.892 L 744.647 1444.500 768.273 1509.000 C 781.267 1544.475,791.922 1574.316,791.950 1575.313 C 792.047 1578.824,748.075 1589.972,711.000 1595.836 C 607.369 1612.226,543.125 1615.148,512.589 1604.862 C 490.198 1597.319,419.456 1562.226,381.000 1539.586 C 344.602 1518.156,310.475 1484.955,298.682 1459.500 C 271.466 1400.752,262.480 1388.250,247.469 1388.250 C 236.747 1388.250,233.581 1392.154,231.869 1407.489 C 229.854 1425.547,237.805 1454.041,254.753 1489.500 C 279.971 1542.258,302.353 1565.352,363.000 1601.186 C 456.228 1656.272,511.326 1675.858,582.000 1679.035 C 627.264 1681.070,677.702 1675.723,772.368 1658.854 C 808.740 1652.373,841.200 1647.113,844.500 1647.165 C 848.561 1647.229,858.454 1657.754,875.118 1679.738 L 899.736 1712.216 869.118 1720.363 C 782.154 1743.502,653.018 1792.810,580.500 1830.565 C 545.736 1848.665,518.531 1882.317,505.619 1923.192 C 494.821 1957.373,487.976 2008.616,487.812 2056.500 C 487.658 2101.209,490.976 2119.429,500.910 2128.419 C 506.398 2133.385,507.398 2133.429,514.148 2129.006 C 525.143 2121.802,536.157 2096.294,546.193 2054.789 C 562.685 1986.588,564.831 1979.296,573.535 1961.878 C 595.166 1918.590,691.034 1865.855,876.542 1795.200 C 917.265 1779.690,951.515 1767.000,952.654 1767.000 C 955.833 1767.000,1022.462 1823.284,1040.486 1841.195 C 1049.279 1849.933,1055.933 1858.751,1055.273 1860.791 C 1054.613 1862.831,1010.294 1879.416,956.786 1897.647 C 846.022 1935.387,813.333 1948.824,789.381 1966.457 C 768.712 1981.674,738.688 2014.014,709.701 2052.281 C 681.954 2088.912,670.699 2111.245,673.517 2124.077 C 679.586 2151.709,760.384 2247.078,777.681 2247.025 C 783.141 2247.008,787.544 2244.433,790.920 2239.281 C 797.898 2228.630,793.409 2205.800,777.304 2170.033 C 760.830 2133.447,759.790 2127.077,767.785 2111.739 C 777.841 2092.447,807.249 2055.401,828.379 2035.407 C 851.940 2013.113,871.508 2000.548,905.374 1985.967 C 943.425 1969.583,1032.236 1941.370,1056.665 1937.906 C 1068.250 1936.263,1087.611 1931.507,1099.689 1927.339 C 1141.359 1912.956,1157.143 1913.917,1251.000 1936.553 C 1323.638 1954.071,1357.723 1958.961,1407.357 1958.982 C 1471.433 1959.010,1513.906 1949.617,1597.910 1916.840 C 1648.664 1897.037,1685.745 1887.053,1708.658 1887.021 C 1738.633 1886.979,1934.484 1928.011,1972.083 1942.209 C 2014.174 1958.104,2074.997 2008.405,2088.190 2038.231 C 2097.411 2059.077,2096.486 2082.291,2085.324 2110.168 C 2066.640 2156.829,2066.489 2166.920,2084.403 2171.866 C 2093.967 2174.507,2096.720 2174.013,2104.795 2168.210 C 2133.814 2147.352,2186.660 2065.503,2186.929 2041.001 C 2187.123 2023.294,2132.205 1957.576,2092.699 1928.241 C 2032.387 1883.457,1957.031 1858.511,1812.750 1835.564 C 1789.238 1831.825,1770.000 1827.751,1770.000 1826.513 C 1770.000 1825.274,1785.863 1807.168,1805.250 1786.277 C 1824.638 1765.387,1847.250 1740.982,1855.500 1732.044 L 1870.500 1715.794 1920.000 1729.192 C 1979.537 1745.306,2073.336 1777.055,2180.971 1817.524 L 2260.443 1847.404 2290.471 1921.961 C 2306.987 1962.967,2324.217 2002.837,2328.760 2010.560 C 2340.664 2030.797,2350.770 2032.281,2365.534 2015.960 C 2373.676 2006.958,2372.804 1981.046,2362.656 1930.500 C 2345.332 1844.211,2330.119 1807.212,2299.689 1777.363 C 2265.658 1743.981,2224.819 1728.127,2076.000 1690.525 C 1960.512 1661.344,1929.000 1651.493,1929.000 1644.569 C 1929.000 1637.068,1948.289 1609.627,1958.846 1602.109 C 1974.396 1591.037,1993.278 1589.967,2080.303 1595.230 C 2205.966 1602.830,2260.554 1596.262,2324.547 1565.843 C 2377.012 1540.904,2472.772 1473.166,2503.382 1439.341 C 2522.638 1418.062,2537.576 1390.486,2548.183 1356.635 C 2563.531 1307.655,2561.737 1282.829,2542.177 1273.548 C 2523.413 1264.644,2516.488 1272.916,2492.889 1332.419 C 2476.247 1374.380,2469.694 1384.857,2446.544 1406.512 C 2420.284 1431.077,2344.342 1481.144,2299.383 1503.531 C 2263.754 1521.273,2262.783 1521.556,2227.383 1524.534 C 2174.530 1528.981,2033.765 1523.478,2014.869 1516.227 C 2009.067 1514.000,2009.389 1512.062,2028.669 1433.144 L 2043.902 1370.787 2074.201 1373.144 C 2169.826 1380.580,2298.969 1367.932,2339.727 1347.139 C 2346.158 1343.858,2355.451 1336.283,2360.379 1330.305 C 2382.493 1303.477,2448.149 1149.782,2463.256 1089.476 C 2475.606 1040.182,2468.730 998.431,2438.229 937.500 C 2405.553 872.226,2376.000 852.337,2376.000 895.620 C 2376.000 917.343,2384.656 948.383,2405.242 1000.481 L 2423.016 1045.461 2417.115 1058.981 C 2413.869 1066.416,2396.022 1103.778,2377.454 1142.007 C 2309.530 1281.856,2292.466 1294.978,2169.000 1302.305 C 2077.059 1307.760,2043.922 1302.608,2026.830 1280.199 C 2022.419 1274.416,2012.908 1252.086,2005.693 1230.576 L 1992.576 1191.467 2048.480 1142.483 C 2149.814 1053.693,2164.834 1035.698,2189.910 973.027 C 2214.122 912.518,2221.599 867.770,2219.154 798.000 C 2214.954 678.125,2165.524 518.071,2104.267 426.000 C 2030.587 315.255,1915.210 234.776,1796.652 211.431 C 1762.951 204.795,1696.984 203.131,1666.500 208.147 M1766.757 273.119 C 1851.469 281.812,1932.805 324.317,2007.199 398.771 C 2063.439 455.055,2096.533 508.348,2121.718 583.185 C 2139.191 635.104,2138.949 647.551,2119.730 685.506 C 2101.919 720.681,2089.503 735.000,2076.815 735.000 C 2071.878 735.000,2053.812 727.858,2036.669 719.129 C 1930.640 665.142,1740.791 517.893,1711.393 466.843 C 1703.266 452.729,1703.160 452.034,1708.550 448.093 C 1712.563 445.158,1724.645 444.000,1751.245 444.000 C 1792.122 444.000,1811.885 440.414,1819.916 431.540 C 1824.970 425.956,1824.950 425.230,1819.464 415.044 C 1804.043 386.409,1744.349 348.043,1680.800 325.923 C 1646.632 314.030,1628.952 305.672,1623.135 298.663 C 1607.423 279.731,1689.296 265.170,1766.757 273.119 M1051.861 316.457 C 1057.824 318.949,1062.002 322.587,1061.335 324.707 C 1060.678 326.793,1037.946 340.032,1010.820 354.127 C 958.177 381.480,932.233 397.724,906.358 419.530 C 875.015 445.944,865.054 468.868,879.306 481.785 C 884.855 486.814,891.427 487.613,934.056 488.445 C 960.700 488.964,983.605 490.474,984.955 491.800 C 999.352 505.935,891.192 624.040,778.500 717.239 C 720.002 765.617,662.376 805.634,642.996 811.335 C 623.420 817.094,578.960 746.797,579.021 710.182 C 579.090 668.739,626.084 544.863,663.644 487.118 C 722.019 397.371,829.891 328.685,933.625 315.212 C 968.037 310.743,1039.998 311.501,1051.861 316.457 M2154.879 769.516 C 2158.324 785.146,2155.660 872.540,2151.615 876.585 C 2149.476 878.724,2145.956 875.642,2140.292 866.670 C 2111.705 821.385,2110.728 791.133,2136.933 762.649 C 2145.722 753.095,2151.770 755.410,2154.879 769.516 M598.233 849.978 C 618.711 874.969,622.507 894.960,612.370 924.425 C 605.163 945.372,594.650 966.000,591.180 966.000 C 583.798 966.000,570.052 895.748,570.018 857.850 C 569.990 827.026,577.670 824.884,598.233 849.978 M2137.418 947.868 C 2143.418 957.576,2112.847 1001.164,2067.150 1048.057 C 2018.196 1098.292,1975.737 1129.549,1954.458 1131.017 C 1924.347 1133.096,1923.357 1127.284,1949.237 1100.377 C 1989.748 1058.259,2122.852 945.000,2131.837 945.000 C 2133.932 945.000,2136.444 946.291,2137.418 947.868 M1549.500 1012.244 C 1644.625 1023.373,1721.837 1044.828,1779.000 1076.016 C 1864.043 1122.416,1923.442 1204.610,1945.732 1306.735 C 1952.832 1339.269,1952.969 1405.558,1946.008 1440.723 C 1927.573 1533.845,1868.481 1638.367,1789.487 1717.575 C 1703.744 1803.551,1581.123 1872.291,1473.000 1894.996 C 1433.971 1903.191,1344.596 1902.600,1314.000 1893.944 C 1241.626 1873.468,1139.504 1831.876,1105.034 1808.837 C 964.110 1714.646,858.789 1574.491,835.251 1449.825 C 825.451 1397.919,831.842 1363.098,868.447 1268.970 C 900.744 1185.921,918.121 1160.850,968.081 1125.225 C 999.432 1102.869,1066.409 1069.401,1108.930 1054.843 C 1174.985 1032.228,1258.684 1015.252,1339.500 1008.079 C 1381.334 1004.365,1502.739 1006.774,1549.500 1012.244 M644.597 1038.384 C 710.381 1077.787,830.883 1175.063,827.199 1185.791 C 826.391 1188.144,819.998 1189.454,809.713 1189.375 C 762.397 1189.010,645.270 1100.524,612.803 1040.614 C 600.911 1018.670,610.554 1017.993,644.597 1038.384 " stroke="none" fill="black" fill-rule="evenodd"/></svg>