<svg id="Logo_Image" data-name="Logo Image" xmlns="http://www.w3.org/2000/svg" viewBox="0 0 592.68 597.62"><defs><style>.cls-1,.cls-7{fill:none;}.cls-1,.cls-2,.cls-9{stroke:#000;stroke-miterlimit:10;}.cls-1{stroke-width:5px;}.cls-3{fill:#1b6c93;}.cls-4{fill:#004262;}.cls-5{fill:#71706e;}.cls-6{fill:#fff;}.cls-8{fill:#ffbd20;}.cls-9{stroke-width:3px;}</style></defs><ellipse class="cls-1" cx="296.55" cy="304.92" rx="195.4" ry="197.06"/><path class="cls-2" d="M277.9,557.89c-4.45,1-8.64,1.93-12.87,2.74-6.62,1.27-13.34,1.29-20,1.11-1.78,0-3.55-.24-5.32-.35-3.2-.19-6.11-1.4-9-2.56a1.51,1.51,0,0,1-1-2.1c2.1-7.08,3.94-14.23,7.48-20.81,4.29-8,9.63-15,17.34-19.93.34-.22.65-.49,1.1-.84-.52-.69-1-1.35-1.47-2-5.73-7-11.47-14-17.17-21a5.2,5.2,0,0,0-2.53-1.61A196.45,196.45,0,0,1,105,342.76a2.5,2.5,0,0,0-2-2.23,212.91,212.91,0,0,1-35.78-14.37C54.47,319.65,42.47,312,31.84,302.37L27.6,298.5c-.74-.68-.77-1.15.11-2.07,1.46-1.53,2.95-3.05,4.53-4.48a159.43,159.43,0,0,1,32.59-22.42,223.91,223.91,0,0,1,33-14.15q4.38-1.5,8.84-2.71a2.48,2.48,0,0,0,2-2,196.09,196.09,0,0,1,15.28-38.06,187,187,0,0,1,29-41,225,225,0,0,1,16.3-16,191.33,191.33,0,0,1,36.38-24.91,196.59,196.59,0,0,1,53.81-19.14,201.56,201.56,0,0,1,24-3.25,173.64,173.64,0,0,1,24-.19A196.78,196.78,0,0,1,480.77,239.11c1.31,3.67,2.5,7.4,3.56,11.15a3.13,3.13,0,0,0,2.48,2.53,213.49,213.49,0,0,1,38.71,15.29c12.67,6.5,24.61,14.11,35.18,23.72,1.57,1.43,3.07,2.94,4.54,4.47,1.16,1.2,1.07,1.41-.22,2.55-3.13,2.76-6.11,5.7-9.36,8.33a175.83,175.83,0,0,1-37.31,22.67A213.31,213.31,0,0,1,490,340.58a2.32,2.32,0,0,0-1.77,2.16,194.09,194.09,0,0,1-33.59,77Q417.9,470.06,359,490.48a6.59,6.59,0,0,0-3.11,2.16c-5.61,6.92-11.28,13.79-16.92,20.68-.44.53-.83,1.09-1.34,1.75a13.66,13.66,0,0,0,1.23,1c7.4,4.78,12.66,11.44,16.77,19.09a66.09,66.09,0,0,1,6.48,17,42.59,42.59,0,0,0,1.41,4.5,1.48,1.48,0,0,1-1,2.11,34.14,34.14,0,0,1-9.44,2.62,112.77,112.77,0,0,1-17.24.16,86,86,0,0,1-18.54-3.35c-.65-.19-1.3-.33-2.13-.54-.32,1.07-.68,2-.89,3a59.48,59.48,0,0,1-12.51,26.46,55.51,55.51,0,0,1-4.13,4,1.35,1.35,0,0,1-2.13,0,38.8,38.8,0,0,1-7.75-8.72,67,67,0,0,1-8.62-20.11c-.31-1.19-.53-2.39-.82-3.59A4.74,4.74,0,0,0,277.9,557.89ZM239.36,309.38l.29-.28c-3.07-4.94-6.12-9.9-9.24-14.81a6.59,6.59,0,0,1-1-3.87c.08-3.29.08-6.58.16-9.86q.34-15.22.76-30.42a3.82,3.82,0,0,0-1.38-3.2A193.24,193.24,0,0,0,201.49,226a37.27,37.27,0,0,0-10.07-4.57,9.63,9.63,0,0,0-6.42.36A36.6,36.6,0,0,0,172.77,230c-4,4.11-8,8.27-11.89,12.51a171.9,171.9,0,0,0-15.12,18.4,23.28,23.28,0,0,0-4.08,8.9c-.17.89-.15,1.81-.25,3,.77-.39,1.19-.59,1.59-.81,7.91-4.38,15.84-8.72,23.7-13.18a10.38,10.38,0,0,1,8.28-1.05,49.52,49.52,0,0,0,14.56,2.16,2.6,2.6,0,0,1,2.59,1.33,46.43,46.43,0,0,1,3.06,5.79,4.37,4.37,0,0,1-1.24,5.23c-1.74,1.45-3.42,3-5.18,4.38a46.74,46.74,0,0,0-14.25,19.05c-2.48,6.05-2.95,12.46-2.91,18.92,0,.89.19,1.77.23,2.65.14,2.81.22,5.61.39,8.42a200.21,200.21,0,0,0,5.69,35.24,390.11,390.11,0,0,0,29.62,80.18c4.45,9,9.35,17.84,14.13,26.69,1.17,2.16,2.71,4.1,4.08,6.14a1.74,1.74,0,0,0-.07-1.33,253,253,0,0,1-10.17-32.51,312.07,312.07,0,0,1-8.09-46.92c-.29-3.06-.39-6.15-.51-9.23,0-.82-.32-2,.91-2.2s1.34.89,1.59,1.73a1.46,1.46,0,0,0,0,.2A116.34,116.34,0,0,0,216.34,401a82.93,82.93,0,0,0,14.59,21.27c.45.47,1,.89,1.68,1.55.1-.69.19-1.08.2-1.46.25-9.79.48-19.58.76-29.38a5,5,0,0,0-1.19-3.56,29.94,29.94,0,0,1-2.23-3.2,90.16,90.16,0,0,1-12.55-31.93,69.88,69.88,0,0,1-1.24-21.25c.13-1.16.27-2.32.5-3.46.13-.63.18-1.43,1.09-1.54s1.13.59,1.38,1.23c.13.32.26.64.38,1q6.36,16.15,12.72,32.3c.28.73.62,1.43,1,2.34a3.31,3.31,0,0,0,.23-.67c-.07-11-.14-22.07-.27-33.1a3.55,3.55,0,0,0-.83-2c-1.64-2-3.35-4-5.09-5.93a4.61,4.61,0,0,1-1.22-3.35c.06-4.12,0-8.23,0-12.34,0-3.35.13-6.71.27-10.06a5.41,5.41,0,0,1,.64-1.61,6,6,0,0,1,1.66.91c1.21,1.31,2.3,2.72,3.44,4.1ZM367,473.81l.22.1a13,13,0,0,0,.87-1.09c1.64-2.6,3.36-5.16,4.88-7.84a422.72,422.72,0,0,0,38.13-88.92c5.76-19.51,10-39.29,10.15-59.76a4.16,4.16,0,0,1,0-.61,39.48,39.48,0,0,0-1.45-16.24,44.2,44.2,0,0,0-15.13-22.51c-1.85-1.52-3.65-3.1-5.5-4.63a4.36,4.36,0,0,1-1.32-5.21,45.49,45.49,0,0,1,3.16-6,2.46,2.46,0,0,1,2.42-1.23,50.89,50.89,0,0,0,14.77-2.18,10,10,0,0,1,7.91.93c6.91,3.92,13.86,7.75,20.81,11.61,1.47.82,3,1.58,4.75,2.52a12.36,12.36,0,0,0-.22-2.73,30.71,30.71,0,0,0-2.51-6.46,104.54,104.54,0,0,0-7.28-10.18,293.48,293.48,0,0,0-21.58-23.7,39.35,39.35,0,0,0-11-7.49,9.93,9.93,0,0,0-8.36-.49,62.77,62.77,0,0,0-9.08,4.28,183.28,183.28,0,0,0-27.6,21,3.54,3.54,0,0,0-1.29,3c.18,4.25.27,8.5.36,12.75.19,9,.33,18.09.56,27.13a8,8,0,0,1-1.32,4.81c-2.18,3.33-4.22,6.73-6.32,10.11-.89,1.43-1.76,2.87-2.64,4.31a49.88,49.88,0,0,0,4.93-5.38c2-2.43,4-4.88,6.06-7.27a1.71,1.71,0,0,1,1.34-.61c.35.1.65.8.73,1.28a22.3,22.3,0,0,1,.26,3.27c0,6.51,0,13,.06,19.53a4.47,4.47,0,0,1-1.17,3.17c-1.64,1.85-3.17,3.78-4.85,5.59a4.22,4.22,0,0,0-1.18,3.13c0,10.42-.14,20.83-.22,31.25,0,.5.06,1,.09,1.5a7.76,7.76,0,0,0,1.22-2.17l12.71-32.31a9.57,9.57,0,0,1,.65-1.5,1,1,0,0,1,1.89.12,4.08,4.08,0,0,1,.36,1.38c.27,2.79.67,5.59.72,8.39a73.37,73.37,0,0,1-1.63,16.32c-2.64,12.76-7.31,24.67-15.15,35.2a3.69,3.69,0,0,0-.73,2.47q.18,5.85.32,11.71c.14,6,.27,11.92.43,17.87a17.25,17.25,0,0,0,.3,1.91c1.77-1.93,3.31-3.48,4.7-5.15,7.87-9.44,13.29-20.22,17.21-31.81.5-1.49.9-3,1.48-4.48a1.52,1.52,0,0,1,1.2-.81c.35,0,.78.64.93,1.08a4.42,4.42,0,0,1,.08,1.63c-.16,2.87-.25,5.75-.52,8.61a289.84,289.84,0,0,1-4.43,30.48c-3.33,16.68-7.6,33.09-13.81,49C367.28,472.94,367.15,473.38,367,473.81Zm54.62-245.55.44-.19v-2q0-33.51,0-67a3.84,3.84,0,0,0-1.56-3.29,195.43,195.43,0,0,0-59.15-34.08c-.69-.25-1.4-.46-2.25-.74,0,.8-.09,1.4-.09,2,0,7.74-.09,15.48-.09,23.22q0,40.8.06,81.6a12.76,12.76,0,0,0,.9,4.78,34.45,34.45,0,0,1,2.59,12,3.73,3.73,0,0,0,.27.8c2.52-2.16,4.86-4.26,7.3-6.24a170.38,170.38,0,0,1,24-16.87,38.27,38.27,0,0,1,9.25-3.31,3.57,3.57,0,0,1,1.22-.06,19,19,0,0,1,7.91,2.62A42.55,42.55,0,0,1,421.62,228.26Zm-250.57.25,1.83-1.58c3.73-3.16,7.69-6,12.41-7.46a10.52,10.52,0,0,1,6-.22A39.13,39.13,0,0,1,202,223.89a193.39,193.39,0,0,1,27.07,20.34c.41.37.88.68,1.54,1.18a36.35,36.35,0,0,1,2.79-13.34,10.72,10.72,0,0,0,.73-4q0-20.57,0-41.11,0-32.16,0-64.33c0-.52-.09-1-.15-1.68-.8.26-1.45.45-2.09.68a194.86,194.86,0,0,0-59.32,34.18,3.66,3.66,0,0,0-1.5,3.11q.08,33.6,0,67.21Zm253.51,31.76v79.82c.83,0,1.51,0,2.18,0,4.65-.16,9.32-.18,13.95-.52A175.32,175.32,0,0,0,470,334.84c5.51-1.37,10.94-3,16.41-4.54.92-.26,1.62-.57,1.71-1.71.37-4.5,1-9,1.19-13.48A197.56,197.56,0,0,0,487,272.55c-.52-2.95-1.1-5.89-1.63-8.72-8.7-3.41-33.83-8.88-39.06-8.3,1.16,1.69,2.27,3.31,3.37,4.93a21.59,21.59,0,0,1,3.79,9.23,17.53,17.53,0,0,1-.19,4.45c-.12.91-.86,1.16-1.73.82a8.72,8.72,0,0,1-.91-.47l-20.53-11.25C428.31,262.27,426.52,261.32,424.56,260.27ZM168.69,340c0-26.63.06-53.07,0-79.76-.7.31-1.08.45-1.43.64l-13.33,7.28c-3.84,2.11-7.67,4.24-11.51,6.34-1.83,1-2.68.6-2.88-1.47a14.42,14.42,0,0,1,.13-3.47c.67-4.47,3-8.18,5.56-11.76.54-.75,1.07-1.52,1.6-2.28l-.26-.37a205,205,0,0,0-38.77,8.5c-.51,2.64-1,5.18-1.48,7.74a175,175,0,0,0-2.56,22.81,197.71,197.71,0,0,0,.25,24.22c.28,3.41.65,6.81,1,10.22a1.5,1.5,0,0,0,1.18,1.47c1.06.3,2.1.64,3.14,1A198,198,0,0,0,159.68,340C162.6,340.14,165.53,340,168.69,340Zm114.4,163.38.1-.48c-2.29-1.48-4.55-3-6.89-4.43a73.33,73.33,0,0,0-20-8.35c-1.67-.42-1.72-.53-1.79-2.23q-.15-3.92-.25-7.81l-.81-35.55c-.27-11.65-.56-23.29-.8-34.94-.1-5-.09-10-.19-15a3.47,3.47,0,0,1,1.29-2.83c4.36-4,8.69-8,13-12l27.81-25.93c1.71-1.59,2.31-1.6,4,0q5.88,5.45,11.74,10.92c9.47,8.82,18.91,17.69,28.47,26.42a5.49,5.49,0,0,1,2,4.61c-.25,10.83-.39,21.66-.63,32.48-.33,14.39-.71,28.77-1.06,43.16q-.19,8-.38,16c-.05,2.21-.06,2.25-2.14,2.79a73.53,73.53,0,0,0-19.63,8.24c-2.38,1.43-4.67,3-7,4.51l.11.44c5.91,1.17,11.42,3.5,16.91,5.66,1.31-1.47,2.53-2.76,3.67-4.13q9.68-11.59,19.33-23.22a4,4,0,0,0,1-3c-.18-4.18-.29-8.36-.38-12.53q-.24-9.66-.42-19.32c-.14-6.92-.31-13.84-.4-20.75q-.26-19.23-.42-38.45a3.74,3.74,0,0,0-1.32-3c-4.17-3.86-8.29-7.79-12.39-11.73q-17.26-16.59-34.51-33.21c-1.47-1.41-3-2.79-4.48-4.21-.39.33-.66.53-.9.76L276.24,355q-15.58,14.93-31.19,29.83a3.62,3.62,0,0,0-1.21,2.87c0,5.62-.08,11.24-.17,16.86q-.22,14.49-.5,29c-.1,5.41-.23,10.82-.34,16.23-.2,9.73-.38,19.45-.61,29.18a3.94,3.94,0,0,0,1,2.79c3.31,3.93,6.55,7.92,9.84,11.86,4.34,5.2,8.71,10.37,13.09,15.58C271.77,506.88,277.26,504.65,283.09,503.42Zm-114.6-54.21q.31-49.86.19-99.58a6.82,6.82,0,0,0-.88-.16l-1.85,0a161.63,161.63,0,0,1-25.65-1,209.66,209.66,0,0,1-31.58-6.31,9.25,9.25,0,0,0-1.53-.15,191.16,191.16,0,0,0,17.06,49.77A189.16,189.16,0,0,0,168.49,449.21ZM486,342.19a3.82,3.82,0,0,0-.79-.12l-4,1c-18.06,4.72-36.37,7.29-55.09,6.39a13,13,0,0,0-1.73.13q0,49.32,0,98.39a8.42,8.42,0,0,0,.08,1c0,.05.08.1.13.13a2.72,2.72,0,0,0,.34.14C456.79,420.23,477.17,384.64,486,342.19ZM228.83,300a5.73,5.73,0,0,0-.21.84c0,6.37-.07,12.75,0,19.12a3.58,3.58,0,0,0,.83,2,44.74,44.74,0,0,0,4,4.66,7.49,7.49,0,0,1,2.17,5.74q.17,18.81.4,37.62a3.94,3.94,0,0,1-.08,1.42,1.71,1.71,0,0,1-.95.92c-.26.09-.81-.23-1-.52a8.64,8.64,0,0,1-.9-1.83q-6.67-16.91-13.33-33.81c-.28-.73-.58-1.44-1-2.35-.23.42-.33.52-.34.63q-.08,1.33-.12,2.67a77.09,77.09,0,0,0,2.57,22,86.55,86.55,0,0,0,11.22,26.11c.37.57.6,1.33,1.48,1.59a21.65,21.65,0,0,0,.3-3,3.84,3.84,0,0,1,1.57-3.16c6.59-5.87,13.15-11.79,19.74-17.68Q270.09,349.7,285,336.46l7.23-6.45c-.64-.74-1.21-1.33-1.7-2a2.2,2.2,0,0,0-2.48-.88c-3.29.63-6.61,1.1-9.93,1.61-1.9.29-2.58-.31-2.45-2.19.1-1.57.27-3.14.42-4.7a2,2,0,0,1,1.8-2.14,24.67,24.67,0,0,0,2.78-.72l7.76-2.09c.84-8.89,1.67-17.65,2.5-26.4l-.41-.22-27.56,20.6-31.08-27.06-.48.2c0,1.84.09,3.68,0,5.51a5.76,5.76,0,0,0,1,3.65c5.11,8.12,10.17,16.26,15.25,24.39,1.09,1.74,2.16,3.5,3.25,5.24.36.57.56,1.16,0,1.65s-1.25.28-1.77-.31c-.67-.78-1.41-1.49-2.07-2.28q-7.29-8.77-14.55-17.56Zm135.54-.13c-3,3.59-5.57,6.76-8.19,9.92q-5.06,6.09-10.11,12.17a18.88,18.88,0,0,1-2.25,2.39,1.51,1.51,0,0,1-1.42.11c-.28-.21-.3-.95-.21-1.41a4.25,4.25,0,0,1,.72-1.24q8.91-14.29,17.82-28.59a4.6,4.6,0,0,0,1-2c0-2.43-.11-4.85-.2-7.67-10.68,9.27-20.95,18.36-31.38,27.28l-5.66-4.22q-2.81-2.08-5.6-4.18c-1.81-1.36-3.61-2.73-5.42-4.08s-3.73-2.79-5.6-4.17-3.48-2.73-5.71-4.16c.88,9.29,1.72,18.06,2.55,26.84.84.23,1.49.43,2.14.6,2.78.75,5.54,1.55,8.34,2.21A2.12,2.12,0,0,1,317,321.8c.15,1.63.34,3.27.43,4.9s-.6,2.34-2.38,2.07c-2.71-.42-5.41-.85-8.11-1.32-3.42-.59-3.41-.61-5.67,2.08a2,2,0,0,0-.24.53,4.24,4.24,0,0,0,.41.49q17.71,15.78,35.43,31.57c7,6.24,14,12.52,21,18.77a3.38,3.38,0,0,1,1.31,2.65c0,1.06.2,2.13.32,3.29,8.69-8.11,18.18-42.08,14.77-52.92-.4.95-.75,1.75-1.07,2.57L360,370.11a6.43,6.43,0,0,1-.81,1.64,1.51,1.51,0,0,1-1.18.55,1.54,1.54,0,0,1-.84-1,7.51,7.51,0,0,1-.06-1.84l.42-36.79c0-.62.08-1.24.09-1.85a4.79,4.79,0,0,1,1.36-3.33c1.56-1.72,3-3.54,4.59-5.26a3.77,3.77,0,0,0,1-2.77c-.05-5.89,0-11.79-.06-17.68C364.51,301.31,364.45,300.86,364.37,299.9ZM168.78,159.68l-.44-.23a194.45,194.45,0,0,0-57.46,91.88c1.25-.27,2.1-.42,2.94-.64a189.38,189.38,0,0,1,40.92-6.12,2.91,2.91,0,0,0,2.26-1.13c3.41-3.74,6.83-7.48,10.34-11.13a4.47,4.47,0,0,0,1.39-3.42q-.06-24.25,0-48.51c0-3.83.06-7.67.07-11.5C168.79,165.81,168.78,162.75,168.78,159.68Zm313.47,91.68C471.68,215,452.5,184.53,424.5,159.54a5.89,5.89,0,0,0-.24,2c0,3.7.13,7.4.13,11.1q0,27.84,0,55.69a6.29,6.29,0,0,0,0,1.44,4.28,4.28,0,0,0,.74,1.79c3.69,4.05,7.45,8,11.14,12.08a2.52,2.52,0,0,0,1.95.88c2.19.08,4.38.23,6.56.37A179.29,179.29,0,0,1,472,249C475.26,249.69,478.51,250.48,482.25,251.36Zm-249.74,236c-2.71-3.83-5.32-7.34-7.75-11s-4.88-7.45-7.09-11.3c-6.64-11.6-12.63-23.54-18.1-35.73a394,394,0,0,1-22.91-64.57c-1.26-5-2.28-10-3.42-15a5.23,5.23,0,0,0-.34-.75l-1.75.23c0,.77-.09,1.44-.09,2.11,0,3.29,0,6.58,0,9.87q0,44.42,0,88.82a3.27,3.27,0,0,0,1.32,2.78,195.57,195.57,0,0,0,58.31,34C231.18,487,231.77,487.16,232.51,487.39Zm128.13,0c.46-.13.78-.2,1.09-.31A194.55,194.55,0,0,0,421,452.7a2.72,2.72,0,0,0,1.14-2.45c-.1-1.57-.05-3.15-.05-4.72q0-46.89,0-93.76v-2.49c-.62-.09-1-.17-1.4-.19a2.44,2.44,0,0,0-.65.16c-.13.52-.29,1-.39,1.56a308.4,308.4,0,0,1-9.39,35.52,427.87,427.87,0,0,1-30.93,71.79c-2.83,5.23-5.82,10.4-9,15.41C367.31,478.2,364,482.63,360.64,487.37ZM296.59,355.68c-.37.3-.63.5-.88.73l-8.87,8.25q-15.15,14-30.32,28.06a4.4,4.4,0,0,0-1.52,3.73c.32,12.19.56,24.38.85,36.58.23,10.2.51,20.4.73,30.61.11,4.93.11,9.87.21,14.8.06,3.14.22,6.27.33,9.27,3.55,1.24,7,2.29,10.37,3.64,10.51,4.23,19.39,10.92,27.6,18.59.48.45,1,.89,1.41,1.29,3-2.64,5.89-5.19,8.82-7.64a75.83,75.83,0,0,1,19.59-11.91c3.58-1.49,7.3-2.65,11.09-4,.1-2.85.25-5.85.32-8.86.16-6.43.28-12.87.42-19.31l.42-20.14c.31-14.38.6-28.77.95-43.15a4,4,0,0,0-1.4-3.37q-17.59-16.24-35.1-32.57C300,358.74,298.3,357.24,296.59,355.68ZM43.35,297.3C61.22,311.53,81,321.47,102.66,329a199.22,199.22,0,0,1,2.55-64.48C82.63,272.12,62,282.38,43.35,297.3ZM488,264.6c.76,4.56,1.56,8.78,2.13,13s1,8.43,1.29,12.65.49,8.62.51,12.93-.16,8.49-.38,12.73-.61,8.49-.94,13c21.52-7.5,41.34-17.41,59.11-31.6A181.54,181.54,0,0,0,509,272.69,188.85,188.85,0,0,0,488,264.6ZM236.49,120V224.6a8.49,8.49,0,0,0,.76-.94,92.2,92.2,0,0,1,9.23-14.29,4.29,4.29,0,0,0,.79-2.9c0-2.46-.07-4.91-.05-7.37.07-9.13,2-17.93,4.74-26.58a148.82,148.82,0,0,1,11.61-27.15,2.52,2.52,0,0,0,0-2.83,65.78,65.78,0,0,1-5.26-11.32,50.25,50.25,0,0,1-2.72-14.66c0-1.22.18-1.48,1.39-1.52a21,21,0,0,1,3.07.13,87.24,87.24,0,0,1,19.73,4.55,2.3,2.3,0,0,0,2.72-.57c2.47-2.26,5.08-4.37,7.64-6.52.86-.72,1.75-1.39,2.62-2.09A182.16,182.16,0,0,0,236.49,120Zm119.82,104.2.3-.1v-104c-11.64-5-50.89-11.69-56-9.64,3.48,3,7,6,10.5,9.06a1.65,1.65,0,0,0,1.88.27,78.4,78.4,0,0,1,15.86-4c2.36-.35,4.75-.59,7.13-.75,1.31-.08,1.66.23,1.56,1.31a75.09,75.09,0,0,1-1,8.75,56.58,56.58,0,0,1-6.86,17.27,2.84,2.84,0,0,0,0,3.19,141.55,141.55,0,0,1,14.44,38.07,80.12,80.12,0,0,1,1.78,22.43,4.84,4.84,0,0,0,1,3.64,88.52,88.52,0,0,1,8.8,13.6C355.86,223.63,356.1,223.92,356.31,224.23Zm-327,73.19c3.22,2.77,6.14,5.45,9.23,7.92C52.34,316.41,67.69,324.77,84,331.47a217.43,217.43,0,0,0,50.31,14,166,166,0,0,0,32.35,1.83c2-.09,3.91-.33,6.06-.51-.29-1.67-.55-3.13-.79-4.5a2.13,2.13,0,0,0-.54-.17c-.41,0-.82,0-1.23,0a171.83,171.83,0,0,1-38.4-3.31c-27.42-5.42-53.09-15.26-76.61-30.48A127.32,127.32,0,0,1,40.7,297.57,12.07,12.07,0,0,1,42,296c2-1.67,4-3.37,6.06-4.92,16.59-12.32,35-21.23,54.43-27.91a203.13,203.13,0,0,1,43.53-10,6.22,6.22,0,0,0,5.06-2.84,42.58,42.58,0,0,1,2.72-3.4,5.82,5.82,0,0,0-.89-.16c-1,.07-2,.18-3.07.24a172.83,172.83,0,0,0-26.21,3.61,219.82,219.82,0,0,0-57.23,20.49,162.61,162.61,0,0,0-30.85,20.62C33.52,293.52,31.54,295.4,29.32,297.42Zm391.1,49.39c.8.09,1.46.18,2.11.23a147.7,147.7,0,0,0,21.35.09,186.72,186.72,0,0,0,26.21-3.64,219.56,219.56,0,0,0,59.58-21.76,159.51,159.51,0,0,0,30.35-21c1.21-1.07,2.36-2.21,3.58-3.36-.54-.57-.9-1-1.3-1.35a150,150,0,0,0-27-20.09,217.17,217.17,0,0,0-54.84-22.72,201.34,201.34,0,0,0-39.24-6.42c-.58,0-1.15,0-2.11,0,1.7,2.07,3.09,3.83,4.58,5.51a2.54,2.54,0,0,0,1.47.55c5.87.95,11.79,1.67,17.62,2.85a216,216,0,0,1,71.67,28.16A119.78,119.78,0,0,1,551,296a15.14,15.14,0,0,1,1.44,1.74c-3.5,2.65-6.71,5.21-10.06,7.57s-6.79,4.63-10.31,6.75a211.35,211.35,0,0,1-47.8,21.07c-20.17,6.14-40.72,9.72-61.9,9a9.47,9.47,0,0,0-1.22.12C420.94,343.77,420.7,345.17,420.42,346.81ZM312.3,238.88l-1.22-1.9c-3.45-5.35-6.88-10.71-10.36-16a1.85,1.85,0,0,1,0-2.41,16,16,0,0,0,1.58-2.87c2.3-5.14,3.06-10.62,3.31-16.18.23-5.06.4-10.12.62-15.18a2.7,2.7,0,0,0-1.15-2.66c-1.64-1.11-3.2-2.34-4.81-3.51-1.26-.91-2.53-1.8-3.8-2.7-2.87,2.1-5.54,4.12-8.3,6a3,3,0,0,0-1.33,3.17c.11.81.12,1.63.16,2.45.29,5.88.42,11.77.9,17.63.35,4.23,1.13,8.53,3.48,12.12a4.74,4.74,0,0,1-.18,6.19c-.2.27-.37.58-.56.86l-8.83,13.37c-.33.5-.63,1-1,1.65l15.73,15.38Zm4.35-48.65c-.56,16.14-1.1,31.93-1.65,47.78,13.42,2.49,26.6,5.08,40.07,7.57-.15-1-.23-1.69-.36-2.35a57.5,57.5,0,0,0-6.4-16.6,122.8,122.8,0,0,0-23.5-29.92A49.92,49.92,0,0,0,316.65,190.23ZM238,245.62,277.89,238c.36-2.63-1.3-46.1-1.82-47.59-.4.27-.8.53-1.18.81a91,91,0,0,0-13.52,12.52,131.38,131.38,0,0,0-13.6,17.76,69.77,69.77,0,0,0-8.93,19.76C238.51,242.59,238.3,243.92,238,245.62Zm123.53,34.56c-.24-10.42-.48-20.45-.72-30.64h-2c-3.43,0-6.85.11-10.28.12l-29.18,0a4.81,4.81,0,0,0-2.91.75q-7.85,5.44-15.78,10.78a2.07,2.07,0,0,0-1,2.19c.44,4.22.81,8.45,1.23,12.67.13,1.31.35,2.61.54,4.06.69-.37,1.12-.57,1.52-.82q8.51-5.2,17-10.41c2.8-1.72,5.63-3.4,8.44-5.1a2.86,2.86,0,0,1,3.23-.16c7,3.94,14.15,7.79,21.23,11.67C355.53,276.86,358.32,278.42,361.49,280.18Zm-67.84-18.11c-.59-.42-1.08-.78-1.58-1.12-4.92-3.36-9.87-6.69-14.75-10.11a6.26,6.26,0,0,0-3.8-1.17c-13.23,0-26.45-.09-39.67-.14-.46,0-.91.08-1.52.13-.23,10.14-.46,20.16-.7,30.48.7-.36,1.11-.55,1.51-.77q14.3-7.87,28.59-15.76a2.4,2.4,0,0,1,2.68,0c.47.28,1,.54,1.42.82l24,14.66c.61.37,1.25.68,2.06,1.13C292.51,273.91,293.08,268,293.65,262.07Zm21.41,269.35c.7-.53,1.21-.86,1.67-1.26q7.69-6.81,15.36-13.63a43.84,43.84,0,0,0,3.93-3.9c1.94-2.21,3.74-4.55,5.63-6.81q8.1-9.69,16.25-19.35a3.74,3.74,0,0,0,1.07-3c-.15-1.36-.2-2.74-.24-4.1q-.23-9.45-.41-18.9-.21-10.06-.41-20.14c-.14-6.91-.31-13.83-.41-20.75-.17-11.44-.33-22.88-.4-34.32a4.66,4.66,0,0,0-1.79-3.84q-24.92-22.06-49.77-44.21l-6.24-5.55-1.65,2c1.06.95,2,1.73,2.9,2.58q12.69,12.17,25.35,24.34c4.26,4.08,8.53,8.13,12.77,12.22,3.7,3.57,7.35,7.19,11,10.77a4.59,4.59,0,0,1,1.52,3.41c.2,8,.56,16,.78,24,.21,7.39.31,14.79.47,22.18.14,6.78.32,13.56.46,20.34.19,8.91.34,17.81.52,26.71a3.42,3.42,0,0,1-.87,2.42c-4,4.84-8.09,9.66-12,14.58a292.21,292.21,0,0,1-21,23.4c-1.93,1.94-4,3.67-6.14,5.55C314,527.88,314.46,529.49,315.06,531.42Zm-35.47-5c-3.55-3.52-7-6.77-10.24-10.18-3.64-3.8-7.26-7.65-10.66-11.67-6-7.11-11.85-14.38-17.83-21.52a4.66,4.66,0,0,1-1.21-3.33c.17-6.16.28-12.33.41-18.49q.23-10.06.45-20.13.39-16.63.81-33.28c.18-6.85.45-13.69.56-20.54a5.14,5.14,0,0,1,1.74-3.94c3.32-3.18,6.57-6.42,9.87-9.61q8.49-8.22,17-16.4Q282.23,346.12,294,334.9c.48-.45.88-1,1.31-1.46l-1.36-1.78c-.53.44-.79.65-1,.87q-17.79,15.87-35.58,31.72-9.82,8.75-19.71,17.42A4,4,0,0,0,236,385c0,5.41-.1,10.82-.2,16.23q-.18,11-.4,22Q235.2,434,235,444.78q-.19,9.66-.4,19.31c-.14,6.37-.24,12.74-.44,19.11a4.76,4.76,0,0,0,1.27,3.51c4.22,4.94,8.34,10,12.59,14.91,3.85,4.45,7.14,9.37,11.5,13.37,5.3,4.86,10.66,9.65,16,14.45.74.67,1.56,1.25,2.53,2C278.62,529.58,279.12,528,279.59,526.46Zm35.24-200.08c.12-.24.23-.37.23-.49,0-.61,0-1.23-.06-1.84-.15-2-.16-2-2-2.47-3-.83-6.06-1.69-9.11-2.48a1.78,1.78,0,0,1-1.56-1.8c-.62-7-1.33-13.9-2-20.86-1-11-2-22.09-3.11-33.12a3.57,3.57,0,0,1,1.78-3.88q8.11-5.43,16.12-11a6,6,0,0,1,3.63-1.08c9.39.06,18.78,0,28.17.06h1.88a1.81,1.81,0,0,0-1.1-.65c-10.49-2-21-3.88-31.47-5.92a3.16,3.16,0,0,0-3.22,1c-4.87,4.82-9.8,9.58-14.71,14.36-1.73,1.69-1.74,1.69-3.41.07-5-4.88-10-9.74-15-14.65a2.67,2.67,0,0,0-2.7-.85c-9.94,1.92-19.91,3.73-29.86,5.59-1,.2-2,.47-3.08.71a2,2,0,0,0,1.26.31c9.66,0,19.33,0,29-.05a5.65,5.65,0,0,1,3.44,1c3.42,2.39,6.9,4.71,10.35,7.07,2.2,1.51,4.39,3,6.59,4.57a2.2,2.2,0,0,1,1.17,2.19q-1,9.41-1.85,18.8-1.71,18-3.36,36c-.1,1.21-.44,1.94-1.7,2.12a10.19,10.19,0,0,0-1.38.39c-2.71.73-5.42,1.43-8.12,2.22-.51.15-1.24.59-1.33,1a24.93,24.93,0,0,0-.29,3.67c2.8-.44,5.3-.85,7.8-1.22,1.54-.22,3.28-.87,4.59-.4s2.27,2.09,3.36,3.21c.94,1,1.86,1.93,2.83,2.95,1.29-1.39,2.41-2.59,3.52-3.8,2.55-2.8,2.54-2.78,6.29-2.13C309.22,325.52,312.05,325.94,314.83,326.38ZM296.58,588.62c.46-.41.77-.68,1.07-1a44.61,44.61,0,0,0,9.89-14.76A74.33,74.33,0,0,0,314,544.5a42,42,0,0,0-.88-10.76A59.67,59.67,0,0,0,305,514.58c-1-1.59-2.19-3.08-3.42-4.8l-3.85,3.79c4.17,6.59,7.73,13.13,8.91,20.66a48.38,48.38,0,0,1,.83,9.35,82.92,82.92,0,0,1-1.49,12.36,68,68,0,0,1-8.36,22,9.73,9.73,0,0,1-1.11,1.27,35.12,35.12,0,0,1-4-7.16,70.86,70.86,0,0,1-5.54-18c-.74-4.66-1.47-9.25-1.16-14a47.48,47.48,0,0,1,5.76-19.72c1.23-2.27,2.54-4.49,3.89-6.87l-3.85-3.65c-1.28,1.82-2.48,3.38-3.54,5a61.11,61.11,0,0,0-8,19,44.39,44.39,0,0,0-.73,13.58,81.73,81.73,0,0,0,1.23,8.94,65.23,65.23,0,0,0,10.24,25.76A30.33,30.33,0,0,0,296.58,588.62ZM361.67,479.4l.6.1c11.83-28,18.25-57.26,21.13-87.43a38.9,38.9,0,0,0-2.08,4.38c-4.89,11.19-11,21.58-20.11,29.95a2.77,2.77,0,0,0-.76,1.76c0,1.56.16,3.14.19,4.71.17,8.21.3,16.42.46,24.64q.19,10,.43,20.11C361.54,478.22,361.62,478.81,361.67,479.4Zm-130.24.34c.07-.91.14-1.45.15-2q.18-8.31.33-16.62c.06-3.5.07-7,.16-10.48.19-7.39.39-14.77.65-22.16a3.12,3.12,0,0,0-1.14-2.46c-2.21-2.24-4.46-4.46-6.44-6.89a96.82,96.82,0,0,1-14.56-25.61c-.21-.52-.47-1-.87-1.88C209.91,412.72,223.66,468.59,231.43,479.74ZM277,534.07l-14.41-12.29c-7.69,5.2-19.23,23.58-19,30.29,9.5,1.07,28.55-2.14,33-4.85C276.69,542.91,276.83,538.68,277,534.07Zm39.59,13.48A94.2,94.2,0,0,0,350,552.14a63.64,63.64,0,0,0-19.35-30.48l-14.54,12.42C316.27,538.58,316.42,542.93,316.58,547.55Zm7.77-397a88.76,88.76,0,0,1-11.22,12.19c-.81.72-.47,1.42-.28,2.23,1,4.45,2.09,8.91,3.07,13.38a3.48,3.48,0,0,0,1.36,2.17,180.23,180.23,0,0,1,19.25,16.95c.41.42.86.8,1.36,1.27C339.58,188.09,332,164,324.35,150.58Zm-69.49,48.35a7,7,0,0,0,.68-.42,197.89,197.89,0,0,1,20.58-18.23,3.5,3.5,0,0,0,1-1.89c1.08-4.45,2-8.93,3.14-13.37a2.32,2.32,0,0,0-.74-2.65c-2.64-2.58-5.17-5.28-7.69-8-1.09-1.17-2.05-2.46-3.29-4-1.48,3.2-2.89,6.08-4.16,9-4.38,10.16-7.87,20.58-9.16,31.63C255,193.54,255,196.05,254.86,198.93ZM232.42,557c.79.32,1.22.52,1.68.66s1.05.3,1.58.42a70.12,70.12,0,0,0,16.93,1.33A96.3,96.3,0,0,0,276,555.55a13.19,13.19,0,0,0,1.51-.63l-.65-4.63-4.12,1.16A91.24,91.24,0,0,1,253,554.62a93.62,93.62,0,0,1-10.45-.33c-1.87-.13-2.22-.79-1.78-2.61a5.62,5.62,0,0,1,.19-.58A64.24,64.24,0,0,1,255,525.63c1.76-2,3.77-3.73,5.71-5.63-.35-.43-.57-.69-.77-1-.64-.8-1.28-1.61-1.87-2.37C242.73,526.14,236.06,540.48,232.42,557Zm83.16-2a11.44,11.44,0,0,0,1.24.54c11.82,3.4,23.83,4.91,36.1,3.33a24.11,24.11,0,0,0,7.49-1.78c-1.54-11.87-9.24-31.08-24.86-40l-3.33,3a10.29,10.29,0,0,1,.92.61,63.18,63.18,0,0,1,15.49,21,105.59,105.59,0,0,1,3.71,10c.61,1.81.15,2.42-1.67,2.67a38.61,38.61,0,0,1-4.29.38,91.5,91.5,0,0,1-27.95-3.76c-.69-.2-1.39-.35-2.25-.57C316,551.94,315.79,553.35,315.58,555ZM301.45,283.07c.37,1.75-.2,3.48,1.52,4.77,8.66,6.5,17.26,13.07,25.89,19.61a12.2,12.2,0,0,0,1.27.74c9.51-8.31,19-16.5,28.4-25a36,36,0,0,0-5.35-.21,2,2,0,0,0-.91.4c-6.85,4.16-13.72,8.28-20.52,12.53a3,3,0,0,1-3.71-.08c-6.23-3.85-12.61-7.48-18.75-11.47C306.78,282.75,304.29,283,301.45,283.07Zm-66.73-.1-.2.49,28.56,24.8c.68-.48,1.24-.86,1.78-1.27,8.19-6.21,16.32-12.5,24.59-18.6,2-1.48,2.17-3.19,2-5.41-.81,0-1.49,0-2.16,0a8.67,8.67,0,0,0-5.59,1.5c-6.26,3.94-12.64,7.69-18.94,11.57a2.64,2.64,0,0,1-3.18,0c-6.87-4.25-13.79-8.42-20.7-12.61a2.43,2.43,0,0,0-1.1-.45C238.1,282.94,236.41,283,234.72,283Zm-63.41-23.71c-.46,2.64-.35,36.92.08,38.31a1.67,1.67,0,0,0,.21-.33c.11-.25.2-.51.3-.76A46.55,46.55,0,0,1,187,275.65c2-1.55,3.83-3.31,5.74-5a2.46,2.46,0,0,0,.68-3.14c-.56-1.24-1.15-2.47-1.73-3.72a3,3,0,0,0-3.06-1.94,51.63,51.63,0,0,1-14.55-2.17C173.16,259.48,172.22,259.4,171.31,259.26Zm250.52,38.59c.45-3,.31-37-.15-38.59a17.81,17.81,0,0,0-2.38.37,51.82,51.82,0,0,1-14.94,2.26,2.8,2.8,0,0,0-2.79,1.71c-.63,1.29-1.26,2.58-1.83,3.9a2.42,2.42,0,0,0,.78,3.27c1.84,1.64,3.63,3.35,5.58,4.84a45.69,45.69,0,0,1,13.91,18C420.61,294.93,421.17,296.29,421.83,297.85Zm-91.92-32.32c-7.8,4.79-15.38,9.44-23,14.11a7.18,7.18,0,0,0-1,1h50.83l.09-.29Zm-93.65,14.76.11.33H287l.16-.37-23.9-14.73Zm67.41-115.68c-.74.62-1.29,1.12-1.88,1.56-3,2.25-6,4.6-9.1,6.7-2.83,1.9-5.89,3.48-8.8,5.27a131.68,131.68,0,0,0-30.22,25.71A119.41,119.41,0,0,0,241,221.26a64,64,0,0,0-8,19.24,23.25,23.25,0,0,0-.16,6.14l2.95-.65c.33-1.86.55-3.55.94-5.21,1.85-7.83,5.54-14.84,9.83-21.57a126,126,0,0,1,16.58-20.61,90.73,90.73,0,0,1,14.67-12.49c2.4-1.58,4.79-3.18,7.13-4.85,5.85-4.17,11.66-8.4,17.51-12.57C304.44,167.26,304.48,167.3,303.67,164.61Zm56.6,82a24.06,24.06,0,0,0-.64-8.23c-2.18-8-6.07-15.08-10.56-21.92a130,130,0,0,0-13.44-16.79,132.62,132.62,0,0,0-11.7-10.91,142.31,142.31,0,0,0-18.48-13c-1.52-.92-3.11-1.72-4.69-2.54-1-.54-1.76-.16-2.31.88.51.4.93.74,1.37,1.06,2.87,2.11,5.74,4.22,8.63,6.29,1.56,1.12,3.19,2.13,4.75,3.24,2.78,2,5.67,3.85,8.28,6a126.53,126.53,0,0,1,21.08,22.66c5.42,7.44,10.18,15.27,12.92,24.15.84,2.72,1.33,5.55,2,8.52ZM321.56,145a106.44,106.44,0,0,0-12.14-17.49,71.89,71.89,0,0,0-8.7,10c.92,1.68,1.82,3.29,2.68,4.92s1.78,3.39,2.61,5.11,1.57,3.34,2.3,5,1.43,3.44,2.22,5.36A79.57,79.57,0,0,0,321.56,145Zm-38.95,13c.75-2.09,1.4-3.88,2-5.67,2-5.62,3.82-11.28,8-15.74-1.57-2.74-6.72-7.63-9.32-8.79a106.53,106.53,0,0,0-11.78,17.25A84.91,84.91,0,0,0,282.61,158Zm2.1,26.34c-.27-.08-.45-.18-.52-.13q-2.49,1.78-5,3.6c-.72.52-.65,1.27-.61,2,.35,7.59.71,15.17,1,22.76.25,6.16.41,12.31.63,18.47,0,1.14.2,2.27.34,3.73a8.75,8.75,0,0,0,.69-.77c2.8-4.31,5.59-8.62,8.41-12.91a1.84,1.84,0,0,0,0-2.06,55.4,55.4,0,0,1-2.56-6.25,54.46,54.46,0,0,1-2.15-15.6C284.89,192.92,284.79,188.62,284.71,184.35Zm23.82-.56c-.11,2.34-.22,4.22-.29,6.1-.2,4.93-.2,9.86-.62,14.77a34.22,34.22,0,0,1-4.2,14.47,1.84,1.84,0,0,0,.14,2.23c2.71,4.12,5.39,8.26,8.08,12.39a10,10,0,0,0,.84,1,7.47,7.47,0,0,0,.17-.81q.56-13.54,1.11-27.08c.23-5.67.51-11.35.71-17A2.54,2.54,0,0,0,314,188C312.33,186.56,310.56,185.32,308.53,183.79Zm21.16,110.43c5-2.57,17.09-10,18.05-11.1H312.17l-.13.36Zm-48.62-10.74-.2-.37H245.31l-.1.31,18.11,10.86Zm15.49,290.91a70.38,70.38,0,0,0,7.28-21.08l-7.3-4.19-7.29,4.21A71.24,71.24,0,0,0,296.56,574.39Zm0-463.41c-12,7.21-20.43,17.76-27.61,29.64l1.36,2.31a112.18,112.18,0,0,1,11.39-16.39,78.81,78.81,0,0,1,14.82-13.09c11.36,7.52,19.55,17.64,26.27,29.53l1.39-2.36C317,128.76,308.59,118.2,296.55,111Zm.1,33c-.5.71-.76,1-.95,1.37-2.71,5-4.23,10.52-5.65,16a1.94,1.94,0,0,0,.56,1.59c1.66,1.43,3.39,2.77,5.16,4.06a1.58,1.58,0,0,0,1.46.07c2-1.48,4-3.06,5.93-4.59C301.66,156.05,299.12,150.24,296.65,144Zm29.2,4.47,1.08,2.19A147.13,147.13,0,0,1,337.47,178c1.93,7.3,3.34,14.67,2.7,22.3-.12,1.52,1.42,3.4,3.19,3.95a25.63,25.63,0,0,0,.38-3.45,90.18,90.18,0,0,0-3-21.48,145.41,145.41,0,0,0-9-24.61c-1.3-2.76-2.73-5.45-4.23-8.41Zm-75.8,55.88c1.24-1.27,3.1-2,2.89-4.29-.58-6.48.46-12.82,2-19.1a143.78,143.78,0,0,1,11.38-30.5c.33-.66.64-1.33,1-2l-1.49-2c-.31.47-.56.77-.74,1.12-7.57,14.31-13.28,29.26-15.19,45.46C249.4,196.69,249,200.46,250.05,204.3Zm35-78.26c2,1.8,3.91,3.42,5.68,5.22,2.48,2.53,5,5,6.45,8.4,1.35,3.15,2.88,6.21,4.2,9.37a57.37,57.37,0,0,1,3.23,8.64c1.24,5.18,2,10.47,3,15.7a2.34,2.34,0,0,0,.66,1.4c1.51,1,3.11,1.87,4.92,2.94-.07-.62-.08-.88-.13-1.13a106.41,106.41,0,0,0-9.49-28.53c-3.12-6.16-5.95-12.52-11.15-17.34-1.85-1.72-3.8-3.33-5.7-5C286.16,125.16,285.6,125.09,285.09,126Zm11.58,390.4c-2,2.13-5.7,9.82-6.43,12.37a1.78,1.78,0,0,0,.34,1.44,38,38,0,0,0,6.63,6l6.28-5.68A61.75,61.75,0,0,0,296.67,516.44ZM297.14,132c2.76-2.91,5.5-5.82,8.35-8.82-3-2.54-5.67-5.18-9.19-7.15l-8.6,7Zm-17.47,45.23.46.32c1.23-.72,2.42-1.51,3.69-2.13a2.93,2.93,0,0,0,1.7-2.53,132.46,132.46,0,0,1,4.85-21.37A38.32,38.32,0,0,1,294.7,142c1.09-1.63,1.05-1.9-.63-3.44a12.75,12.75,0,0,0-1.43,1.7c-1.2,2.06-2.46,4.11-3.45,6.27-2.87,6.3-4.75,13-6.71,19.58C281.4,169.78,280.6,173.51,279.67,177.21Zm36.26-52.67L325.56,138c2.56-5.41,4.38-10.81,4.48-16.91A64,64,0,0,0,315.93,124.54Zm-38.77,0a62.12,62.12,0,0,0-14.1-3.45A39.61,39.61,0,0,0,267.59,138Zm48,386.54c-5.95-2.53-11.68-4.63-17.78-5.55a1.6,1.6,0,0,0-1.13.32c-1,.73-1.84,1.55-2.77,2.35a24.32,24.32,0,0,0,1.8,2.48,2.73,2.73,0,0,0,1.47.87,78.93,78.93,0,0,1,14.86,3.23Zm-35.55-3c-.66-.57-1.32-1.06-1.88-1.64a2.93,2.93,0,0,0-2.95-.8,73.08,73.08,0,0,0-15.58,4.9,5.89,5.89,0,0,0-.91.58l3,3.35c4.52-.93,8.57-1.87,12.67-2.56,3.39-.57,3.42-.44,5.37-3.23C289.38,508.64,289.42,508.5,289.59,508.14Zm24.21-386c.48,1,1.09.72,1.78.49a66.59,66.59,0,0,1,13.72-3.29c2.25-.25,2.92.17,2.91,2.44a27.12,27.12,0,0,1-.51,5.09c-1.81,9.07-6.18,16.91-11.9,24-2.35,2.92-5.06,5.55-7.6,8.33-.37.4-1.15.68-.58,1.46.15,0,.31,0,.4-.06.38-.3.74-.61,1.09-.94a78.1,78.1,0,0,0,15.65-20.43,56.28,56.28,0,0,0,6-17.75c.2-1.32.23-2.66.34-4C330.45,117.16,317.74,119.93,313.8,122.16Zm-55.87-4.88c.66,10.45,4.45,19.41,9.82,27.79,4.35,6.77,11.38,14.64,13.88,15.56.23-.89-.56-1.17-1-1.63-2.44-2.68-5-5.23-7.32-8a56.26,56.26,0,0,1-11.13-20.83,44.48,44.48,0,0,1-1.29-8.27c-.17-2.28.64-2.85,2.83-2.49,2.49.41,5,.82,7.44,1.41,2.26.54,4.45,1.31,6.66,2,.82.26,1.29.12,1.39-.92A77.79,77.79,0,0,0,257.93,117.28Zm54.56,406.07,7.06-6.44a62.38,62.38,0,0,0-11.67-2.43Zm-31.86,0c1.61-3.13,3.05-5.92,4.62-9A63.27,63.27,0,0,0,273.61,517Zm14.09,14.43-5.65-5.43c-.47,2.35-.88,4.38-1.26,6.3l2.73,2.13Zm-2.12,4.77,4,2.94,4.52-3.37-4-2.77Zm11.71,8.06c.27-2,.47-3.51.69-5.13l-2.53-1.28-4,3.09Zm-15.48,0,5.81-3.33-3.95-3-2.61,1.23C288.33,547.23,288.56,548.75,288.83,550.6Zm14.23-10.19,2.24-1.8c-.33-1.69-.67-3.39-1.07-5.41l-4.81,4.57ZM308,126c-.61-.91-1.15-.73-1.63-.21q-3.58,3.88-7.15,7.82c-.71.79-.32,1.31.48,1.76Zm-18.52,38.65c-.83,2.68-.83,2.68,1.19,4,.29.19.57.39.86.57,1.48.94,1.49.94,2.84-.54ZM302,171.36l3.47,1.87-.68-3.63Zm-14.26,1.8c1.28-.68,2.36-1,3.13-2l-2.58-1.61C288.09,170.82,287.93,171.83,287.73,173.16Z"/><path d="M530.67,385c.14-.57.26-1.17.44-1.76.62-2,1.29-4.05,1.9-6.08a6.73,6.73,0,0,1,2.88-3.88c7.19-4.53,14.35-9.1,21.62-13.5,5.91-3.58,12-6.87,17.94-10.43a9.09,9.09,0,0,0,4.16-5.91c1.37-5.86,2.66-11.75,4-17.62s2.67-11.48,3.9-17.25c.67-3.13,1.63-6.25,1.22-9.53-.15-1.22-.27-2.45-.53-3.64q-2.93-13.25-5.9-26.49c-1.07-4.81-2.09-9.63-3.21-14.43a10.25,10.25,0,0,0-5.18-6.81c-7.5-4.27-15-8.52-22.41-13-5.29-3.17-10.39-6.65-15.6-9.95a8.23,8.23,0,0,1-3.71-5c-.51-1.91-1.13-3.8-1.77-5.69a4,4,0,0,1,.34-3.54c1.37-2.21,2.72-4.43,4.17-6.58.41-.62.94-1.48,2-.85a2.36,2.36,0,0,1,1.13,2.81,28,28,0,0,1-1.18,2.62,19.73,19.73,0,0,1-.92,1.84,8.06,8.06,0,0,0-.36,7.86,6.35,6.35,0,0,0,2.52,3.14c5.2,3,10.37,6.13,15.59,9.13,6.3,3.62,12.64,7.17,19,10.73,1.54.86,3.18,1.56,4.67,2.5a9.82,9.82,0,0,1,4.43,5.68c2.71,9.23,4.12,18.74,6.33,28.07,1.14,4.8,2.26,9.61,3.27,14.44.7,3.4,1.6,6.81,1.22,10.35a33.26,33.26,0,0,1-.47,3.45c-2.42,11-4.84,21.95-7.33,32.9-.78,3.48-1.61,6.95-2.69,10.34a8.18,8.18,0,0,1-5.15,5.25,7.94,7.94,0,0,0-1.31.56q-12.12,7-24.22,13.94c-4.15,2.4-8.32,4.76-12.39,7.3a8,8,0,0,0-2.93,10.08c.77,1.68,1.61,3.33,2.34,5a2.52,2.52,0,0,1,.24,1.75,4,4,0,0,1-1.62,1.68c-.25.14-1.13-.42-1.42-.86-1.62-2.52-3.17-5.1-4.71-7.67A3.77,3.77,0,0,1,530.67,385Z"/><path d="M56.72,202.85a20,20,0,0,1,2.1,2.37c1.11,1.73,2.08,3.55,3.12,5.32a4.07,4.07,0,0,1,.36,3.55c-.74,2.2-1.4,4.44-2.11,6.66a6.69,6.69,0,0,1-2.85,3.65c-2.47,1.61-4.93,3.24-7.45,4.77Q39.27,235.64,28.61,242c-3.47,2.07-7,4-10.49,6.07a9.5,9.5,0,0,0-4.45,6.17c-1.35,5.8-2.62,11.62-3.93,17.43S7.05,283,5.9,288.75c-.75,3.75-1.9,7.42-2,11.31a35.38,35.38,0,0,0,1.2,8.1c1.44,6.77,3.08,13.5,4.61,20.25,1.12,4.94,2.17,9.89,3.32,14.82a10.16,10.16,0,0,0,5.07,6.66c12.42,7.24,25,14.22,37,22.19,2.52,1.68,4.42,3.58,5.07,6.64.36,1.74,1.09,3.39,1.54,5.11a3.27,3.27,0,0,1,0,2.18c-1.46,2.62-3,5.17-4.67,7.7-.37.58-.86,1.34-1.83.81a2.5,2.5,0,0,1-1.33-2.37,5.32,5.32,0,0,1,.5-1.34c.77-1.68,1.58-3.34,2.34-5,1.34-3,.18-7.62-2.56-9.37-3.74-2.4-7.59-4.65-11.43-6.9-4.08-2.38-8.2-4.7-12.32-7q-4.92-2.79-9.87-5.51c-2-1.08-4-2-5.94-3.19a9.58,9.58,0,0,1-4.35-5.73C6.91,336,5,323.53,2,311.36c-.46-1.86-1-3.7-1.42-5.57a21.54,21.54,0,0,1-.16-9.18C1.71,290.38,3.15,284.17,4.5,278c1.23-5.69,2.37-11.41,3.65-17.09.9-4,1.85-8,3-12a8.29,8.29,0,0,1,5.15-5.5,13.31,13.31,0,0,0,1.5-.65c3.69-2.09,7.39-4.18,11.07-6.3s7.46-4.33,11.2-6.49,7.51-4.26,11.24-6.43a42.25,42.25,0,0,0,3.78-2.47c2.34-1.71,3.59-6.27,2.44-8.93-.79-1.82-1.68-3.6-2.52-5.4C54.07,204.74,54.43,203.88,56.72,202.85Z"/><path d="M556.63,428.22a8.23,8.23,0,0,1,5.93,5.62,4.44,4.44,0,0,1-.06,2.6c-1.14,3.51-2.39,7-3.62,10.47-.74,2.07-1.56,4.1-2.28,6.17a3.69,3.69,0,0,1-1.72,2.2,12.63,12.63,0,0,0-1.41.86c-1.87,1.4-3.87,1.55-6.19,1.25-13.31-1.75-26.64-3.36-40-4.94-4.49-.53-9-.87-13.51-1.24a22.38,22.38,0,0,0-3.27.1c-2.49.18-3.65,1.7-3.12,4.2.59,2.74,1.25,5.47,1.88,8.21q1.17,5.22,2.35,10.43a8.38,8.38,0,0,1,.25,1.21,1.78,1.78,0,0,1-2.66,1.7,6.57,6.57,0,0,1-3.17-3.89c-.66-2.37-1.39-4.74-1.87-7.15-.9-4.5-1.62-9-2.48-13.54a3.36,3.36,0,0,1,.66-2.87,37.35,37.35,0,0,0,2.44-3.56,3.53,3.53,0,0,1,3.74-1.86c11.06.86,22.14,1.53,33.2,2.45,7.92.65,15.81,1.62,23.72,2.39,1.63.15,3.28,0,4.92,0a2.05,2.05,0,0,0,2-1.42c1.34-3.37,2.7-6.74,4-10.14.57-1.56,0-3.12-.44-4.63A4.67,4.67,0,0,1,556.63,428.22Z"/><path d="M36.08,428.22a4.21,4.21,0,0,1,.77,4.19c-1.15,2.82-.68,5.49.47,8.16.92,2.14,1.78,4.31,2.65,6.47a3,3,0,0,0,2.93,2.07,45.64,45.64,0,0,0,8.19-.52c17.65-1.86,35.31-3.57,53.05-4.41a3.62,3.62,0,0,1,3.74,1.85c.81,1.35,1.83,2.57,2.65,3.92a3.05,3.05,0,0,1,.52,1.89A174.76,174.76,0,0,1,106.73,473a7.29,7.29,0,0,1-2.71,3.77,1.87,1.87,0,0,1-2.43.22,1.8,1.8,0,0,1-.67-2.17q1.64-7.22,3.25-14.43c.35-1.54.73-3.07,1.08-4.61.61-2.73-.5-4.36-3.24-4.39-2.94,0-5.88.12-8.81.37-16.39,1.43-32.69,3.54-49,5.83a5,5,0,0,1-3.89-.78,7.79,7.79,0,0,0-1.25-.72A6.14,6.14,0,0,1,35.69,452c-1.11-3.45-2.57-6.79-3.84-10.19-.55-1.47-.92-3-1.49-4.48-1-2.69,0-4.83,1.73-6.75A7.64,7.64,0,0,1,36.08,428.22Z"/><path d="M556,169.36a4.14,4.14,0,0,1-.86-3.88c.17-.59.3-1.2.49-1.78a6.18,6.18,0,0,0-.06-4.24c-1.15-3-2.36-6-3.52-9a2.65,2.65,0,0,0-2.81-1.92c-2,.11-4.1.08-6.13.27-11.67,1.07-23.33,2.27-35,3.28-6.75.58-13.54.83-20.3,1.33a3.33,3.33,0,0,1-3.57-1.78c-.4-.72-.93-1.36-1.39-2-2.06-3.05-2.14-3.06-1.43-6.59,1.22-6,2.54-12.06,3.84-18.08a6.85,6.85,0,0,1,2.73-4,1.92,1.92,0,0,1,2.44-.31c.94.59.91,1.4.69,2.34Q489,132.2,487,141.43a8.15,8.15,0,0,0-.3,1.61,2.9,2.9,0,0,0,2.93,3.24,60,60,0,0,0,7-.13c17-1.51,33.93-3.59,50.83-6a6.2,6.2,0,0,1,4.84,1,20,20,0,0,0,1.95,1.16,3.86,3.86,0,0,1,1.78,2.16c1.39,3.79,2.85,7.56,4.25,11.35.54,1.47.92,3,1.51,4.47,1,2.42.2,4.44-1.27,6.3A7.43,7.43,0,0,1,556,169.36Z"/><path d="M36.74,169.28a8,8,0,0,1-6.15-6,4.29,4.29,0,0,1,.19-2q1.88-5.55,3.85-11.06c.66-1.87,1.41-3.71,2-5.59a4.25,4.25,0,0,1,1.85-2.36c2.4-1.5,4.68-2.48,7.82-2,13.5,1.88,27.05,3.43,40.59,5,4.15.49,8.32.8,12.49,1.13a24,24,0,0,0,3.28-.07c2.61-.16,3.76-1.71,3.18-4.3-.82-3.68-1.67-7.35-2.5-11-.61-2.67-1.2-5.35-1.83-8-.22-1-.23-1.75.71-2.34a2,2,0,0,1,2.44.32,6.86,6.86,0,0,1,2.6,3.6c.64,2.38,1.36,4.75,1.84,7.16.9,4.5,1.62,9,2.48,13.54a3.2,3.2,0,0,1-.62,2.68c-.89,1.21-1.79,2.43-2.56,3.72a3.4,3.4,0,0,1-3.58,1.77c-7.24-.53-14.51-.81-21.74-1.44-11.87-1-23.73-2.31-35.6-3.43a43.59,43.59,0,0,0-4.71.05,1.94,1.94,0,0,0-1.89,1.33c-1.37,3.43-2.74,6.87-4,10.33-.58,1.57,0,3.12.5,4.62A4.35,4.35,0,0,1,36.74,169.28Z"/><path d="M56.31,468.89a3.9,3.9,0,0,1,1.56,3.17c.07,1.71.17,3.42.21,5.13a8.84,8.84,0,0,0,2,5.84c2.37,2.83,4.51,5.85,6.71,8.82a4.69,4.69,0,0,0,5,2.12c2.63-.49,5.25-1,7.87-1.5,11.38-2.1,22.77-4.15,34.14-6.33,2.83-.54,5,.14,6.63,2.48.84,1.17,1.82,2.23,2.76,3.32a6.15,6.15,0,0,1,1.6,4.33c-.09,2.67-.12,5.35-.39,8a10,10,0,0,1-1.23,3.44,1.9,1.9,0,0,1-2.19,1.16c-1-.32-1.06-1.23-1-2.22.24-2.17.42-4.36.54-6.55a7.8,7.8,0,0,0-2-5.8c-3-3.53-2.46-3.14-6.54-2.21-2.46.56-4.9,1.24-7.37,1.78-8.89,1.95-17.8,3.85-26.69,5.8-1.94.42-3.84,1-5.77,1.45-1.2.27-2.44.35-3.66.52a3.66,3.66,0,0,1-3.83-1.8c-2.95-4.38-5.93-8.73-8.9-13.09-.77-1.13-1.44-2.33-2.3-3.39-1.94-2.4-1.75-5.25-1.87-8a1.84,1.84,0,0,1,.4-1.14C53.35,472.43,54.8,470.72,56.31,468.89Z"/><path d="M536.35,468.81c1.58,1.94,3,3.71,4.47,5.51a1.35,1.35,0,0,1,.29.76c-.05,2.59.18,5.24-1.37,7.55-3.84,5.67-7.71,11.32-11.52,17a3.88,3.88,0,0,1-4.15,2c-2.22-.39-4.45-.74-6.66-1.23-4.87-1.08-9.72-2.27-14.6-3.35s-9.91-2.11-14.85-3.22q-4.6-1-9.17-2.22a2.69,2.69,0,0,0-3.22,1.1,5.15,5.15,0,0,1-.77,1c-2.43,2.1-2.91,4.82-2.58,7.83.19,1.7.26,3.42.48,5.11.13,1,.1,1.9-.9,2.25a1.88,1.88,0,0,1-2.21-1.11,10.06,10.06,0,0,1-1.25-3.44c-.27-2.65-.3-5.33-.39-8a6.21,6.21,0,0,1,1.57-4.34c1.12-1.3,2.24-2.6,3.3-3.94a5.19,5.19,0,0,1,5.46-2c7.82,1.41,15.66,2.72,23.47,4.17,5.92,1.1,11.82,2.37,17.74,3.5,1.65.32,3.38.76,4.92-.44a4.82,4.82,0,0,0,.94-.78c2.26-2.93,4.49-5.87,6.75-8.8,1.18-1.52,2.37-3,2.46-5.05s.17-4.24.26-6.36C534.89,470.68,534.94,470.59,536.35,468.81Z"/><path d="M57.2,128.55c-1.17-.82-4.43-4.43-4.75-5.38a6,6,0,0,1-.27-1.8A13.28,13.28,0,0,1,55,112.82c3.3-4.45,6.25-9.16,9.35-13.76.3-.45.62-.9.92-1.36A3.44,3.44,0,0,1,69,96c2.29.38,4.6.72,6.86,1.22,4.88,1.08,9.73,2.28,14.6,3.37s9.92,2.1,14.86,3.19c3,.67,6,1.38,9,2.19a3,3,0,0,0,3.71-1.33,4.49,4.49,0,0,1,.78-.95c2.19-1.91,2.62-4.38,2.36-7.1-.18-1.84-.28-3.68-.5-5.52-.11-1-.12-1.8.87-2.28.64-.32,1.85.25,2.34,1.24A10.11,10.11,0,0,1,125,93.28c.26,2.59.31,5.19.41,7.79a6.64,6.64,0,0,1-1.7,4.72c-1.08,1.24-2.15,2.49-3.17,3.77a5.18,5.18,0,0,1-5.44,2q-18-3.36-36-6.63c-2.49-.45-5-.86-7.48-1.31A3.71,3.71,0,0,0,68,105.09c-2.29,2.81-4.28,5.88-6.71,8.56s-2.64,5.72-2.74,8.95c0,1.1-.07,2.19-.11,3.29A3.57,3.57,0,0,1,57.2,128.55Z"/><path d="M535.77,128.74a3.9,3.9,0,0,1-1.55-3.18c-.07-1.78-.21-3.55-.24-5.33a8.56,8.56,0,0,0-2-5.64c-2.28-2.72-4.38-5.61-6.43-8.51a5.5,5.5,0,0,0-6.25-2.31c-2.75.6-5.5,1.17-8.26,1.68-11.18,2-22.37,4.06-33.55,6.13a5.07,5.07,0,0,1-5.26-2c-1.08-1.33-2.19-2.63-3.31-3.93a6.23,6.23,0,0,1-1.6-4.33c.08-2.74.12-5.49.42-8.2a8,8,0,0,1,1.34-3.39,2.54,2.54,0,0,1,2.05-1c1,.17,1.07,1.19,1,2.17-.24,2.17-.43,4.36-.55,6.54a7.82,7.82,0,0,0,2,5.81c3.05,3.56,2.56,3.11,6.56,2.2,3.6-.81,7.17-1.76,10.77-2.55,7.82-1.72,15.66-3.37,23.49-5.07,1.8-.4,3.57-.92,5.36-1.38a10,10,0,0,1,1.21-.26c5.18-.66,5.08-.57,7.63,3.23,3.4,5.06,6.81,10.11,10.28,15.12,1.69,2.43,1.56,5.17,1.58,7.89a1.91,1.91,0,0,1-.46,1.13C538.65,125.33,537.24,127,535.77,128.74Z"/><path d="M544.14,182.6c2.67,0,5.36-.2,8,.05a107.68,107.68,0,0,1,11.15,1.61,9.72,9.72,0,0,1,8.09,8q1.9,8.83,3.85,17.65a5.56,5.56,0,0,1-2,6c-1.17.94-2.16,2.11-3.25,3.15a3.24,3.24,0,0,1-1,.67c-1.11.45-2.27.75-3.25-.26a2.76,2.76,0,0,1-.58-3.41,11.74,11.74,0,0,1,3-3.85c2.6-1.77,3-4.25,2.56-6.86a47.78,47.78,0,0,0-3.53-12.2,4.82,4.82,0,0,0-2.77-2.52c-4.9-2.1-10.1-2.19-15.29-2.54-6.55-.43-13.1-.86-19.64-1.47-3-.27-6-.93-8.92-1.44a4.39,4.39,0,0,1-3.35-2.76c-1.3-3-2.59-6-3.73-9.12a10.62,10.62,0,0,1-.31-3.21c0-.47.23-1,.18-1.42-.24-2,.91-3.53,2-5,.83-1.16,1.82-1.12,2.66,0a2.49,2.49,0,0,1,.34,2.51c-.55,1.48-1,3-1.45,4.5a4,4,0,0,0-.11,2.18c.65,1.87,1.5,3.67,2.25,5.5a3.26,3.26,0,0,0,2.85,2c2.85.39,5.68.88,8.55,1.13,4.56.38,9.15.6,13.72.9Z"/><path d="M48.59,182.47c4.57-.29,9.16-.51,13.72-.89,2.86-.25,5.7-.74,8.55-1.13a3.28,3.28,0,0,0,2.84-2.06c.75-1.83,1.6-3.63,2.24-5.49a3.92,3.92,0,0,0-.12-2.19c-.41-1.52-.9-3-1.44-4.49a2.48,2.48,0,0,1,.35-2.52c.85-1.12,1.82-1.13,2.67,0A10.55,10.55,0,0,1,79,174c-1,2.9-2.3,5.72-3.53,8.54a4.68,4.68,0,0,1-3.56,2.8,104.62,104.62,0,0,1-19.57,2.17c-2.87,0-5.73.44-8.59.68-3.47.3-7,.4-10.41,1A27.55,27.55,0,0,0,27,191.33c-.64.28-1.09,1.2-1.44,1.91A42.77,42.77,0,0,0,22.28,204a23.52,23.52,0,0,0-.18,4.68,3.65,3.65,0,0,0,1.55,2.76,34.79,34.79,0,0,1,3,3.06,5.27,5.27,0,0,1,.84,1.41,3.15,3.15,0,0,1-.71,3.75,3.1,3.1,0,0,1-3.8-.31c-1.71-1.57-3.33-3.25-4.95-4.92a3.54,3.54,0,0,1-.72-3.1c.32-2.38.59-4.77,1.11-7.1.89-4.09,2-8.12,2.94-12.19A9.71,9.71,0,0,1,29,184.35a50.13,50.13,0,0,1,6.68-1.15c4.28-.43,8.57-.71,12.86-1Z"/><path d="M47.94,415.13a89.53,89.53,0,0,1-17.76-1.44c-3.1-.56-6-1.57-7.81-4.41a9.28,9.28,0,0,1-1.2-2.37c-1.76-6.54-3.59-13.07-4.42-19.83a5.27,5.27,0,0,1,1.8-5.13c1.25-1.06,2.34-2.31,3.53-3.44a3.37,3.37,0,0,1,4-.68,3,3,0,0,1,.73,4.06A10.46,10.46,0,0,1,24,385.36c-2.75,1.79-3,4.4-2.53,7.06a47.18,47.18,0,0,0,3.49,12,4.86,4.86,0,0,0,2.77,2.51c5.1,2.21,10.52,2.18,15.9,2.58,7.09.53,14.19,1.05,21.27,1.69,2.18.19,4.31.77,6.47,1.14a4.49,4.49,0,0,1,3.55,2.79c1.31,3,2.6,6.05,3.74,9.12a10.05,10.05,0,0,1,.32,3.21c0,.81-.22,1.63-.25,2.45-.07,1.86-1.32,3.1-2.33,4.45-.42.57-1.08.49-1.67.1a2.53,2.53,0,0,1-.89-3.08c.48-1.5,1-3,1.43-4.5a4.1,4.1,0,0,0,.1-2.19c-.69-1.92-1.57-3.78-2.36-5.67a3.12,3.12,0,0,0-2.75-1.85c-2.64-.38-5.27-.86-7.93-1.08C57.51,415.69,52.72,415.44,47.94,415.13Z"/><path d="M546.09,415.37A143.24,143.24,0,0,0,523.61,417c-2.18.28-3.73,1.14-4.54,3.21-.59,1.53-1.24,3-1.72,4.61a3.86,3.86,0,0,0,.09,2c.41,1.52.91,3,1.44,4.5a2.61,2.61,0,0,1-.1,2.36c-.79,1.38-2,1.5-2.9.22a10.59,10.59,0,0,1-1.56-10.25c1-2.84,2.26-5.58,3.45-8.35a4.79,4.79,0,0,1,3.69-2.93,105.16,105.16,0,0,1,19.78-2.16c3,0,6-.45,9-.71,3.2-.27,6.43-.36,9.59-.91a29.17,29.17,0,0,0,6.39-2.16,3.86,3.86,0,0,0,1.49-1.86c1.63-3.2,2.35-6.7,3.23-10.15a14.3,14.3,0,0,0,.34-5.29,4.35,4.35,0,0,0-1.65-2.95,32.22,32.22,0,0,1-3-3.07,5.21,5.21,0,0,1-.82-1.41,3.13,3.13,0,0,1,.77-3.74,3.09,3.09,0,0,1,3.65.27c1.77,1.61,3.45,3.32,5.09,5.06a3.65,3.65,0,0,1,.66,3.32c-.74,4.1-1.49,8.21-2.33,12.3-.47,2.28-1.16,4.51-1.7,6.77a9.74,9.74,0,0,1-7.7,7.67,49.22,49.22,0,0,1-6.27,1.09C553.55,414.82,549.12,415.12,546.09,415.37Z"/><path d="M505.19,87a14.45,14.45,0,0,0,0-2.87,8.49,8.49,0,0,0-1.21-3.4c-2.27-3-4.75-5.83-7.13-8.75a3.38,3.38,0,0,0-3.3-1.25,89.85,89.85,0,0,0-10.09,1.79c-10.28,2.87-20.5,6-30.76,9-2.55.74-5.19,1.2-7.78,1.83a4.39,4.39,0,0,1-4.19-1,27.32,27.32,0,0,1-6.84-8.89c-1.05-2.2-1.34-4.64.34-6.8.29-.38,1-.84,1.28-.73a2.15,2.15,0,0,1,1.14,1.26,8.26,8.26,0,0,1,.21,2.44c0,4,2.26,6.61,5.17,8.87a3.4,3.4,0,0,0,3.31.37c10.72-3.09,21.46-6.13,32.18-9.24,3.82-1.1,7.57-2.41,11.38-3.52,1.63-.48,3.34-.71,5-1a2.46,2.46,0,0,1,2.28.65,28.15,28.15,0,0,1,3.23,3.13c2.77,3.57,5.45,7.21,8.09,10.88a5.71,5.71,0,0,1,1.06,2.63c.2,2.1.19,4.23.19,6.35a3.05,3.05,0,0,1-1.29,2.67c-.42.28-1.12.59-1.44.42a2,2,0,0,1-.86-1.42,25.91,25.91,0,0,1,.16-3.28Z"/><path d="M83.86,85.92a23.64,23.64,0,0,1,.26-3.27,8.24,8.24,0,0,1,1.15-3c2.57-3.63,5.27-7.17,7.92-10.75a1.83,1.83,0,0,0,.13-.16c4.23-4.44,3.88-4.47,9.77-2.88,6.94,1.87,13.73,4.29,20.63,6.31,7.95,2.32,16,4.46,23.93,6.73a3.51,3.51,0,0,0,3.43-.71c3-2.37,5-5.26,4.84-9.27a6,6,0,0,1,.22-2c.4-1.27,1.46-1.45,2.29-.42,1.73,2.15,1.34,4.51.49,6.81a12.22,12.22,0,0,1-1.86,3.17q-2.22,2.82-4.64,5.47a4.94,4.94,0,0,1-4.86,1.42c-5.63-.93-11-2.74-16.49-4.27-7.25-2-14.39-4.46-21.64-6.46a93.49,93.49,0,0,0-10.29-1.84,3.49,3.49,0,0,0-3.42,1.44c-2.2,2.71-4.44,5.39-6.67,8.07a6.25,6.25,0,0,0-1.55,4.35c0,1.78,0,3.56.1,5.33,0,.8,0,1.69-.91,1.8A2.26,2.26,0,0,1,85,91a4.87,4.87,0,0,1-.94-2.2,17.15,17.15,0,0,1,0-2.87Z"/><path d="M505.92,510.34a21.35,21.35,0,0,1-.17-2.87,2,2,0,0,1,.71-1.5,1.7,1.7,0,0,1,1.58.38,4.89,4.89,0,0,1,1.23,2.48,47.57,47.57,0,0,1-.17,6.75,5.25,5.25,0,0,1-1,2.42c-2.61,3.6-5.29,7.16-7.95,10.73a3.92,3.92,0,0,1-.25.32c-4.12,4.25-3.76,4.3-9.45,2.78-7.07-1.89-14-4.35-21-6.41-7.89-2.31-15.83-4.43-23.73-6.68a3.55,3.55,0,0,0-3.44.71c-2.92,2.32-4.9,5.13-4.82,9.06a8,8,0,0,1-.23,2.24c-.36,1.25-1.47,1.43-2.3.41a6.09,6.09,0,0,1-.54-6.61,25.81,25.81,0,0,1,7.34-9.5,4.38,4.38,0,0,1,3.67-.81c6,.9,11.69,2.87,17.48,4.49,7.12,2,14.13,4.38,21.25,6.36a90.48,90.48,0,0,0,9.89,1.75,3.77,3.77,0,0,0,3.77-1.57c1.92-2.4,3.88-4.78,5.91-7.1a8.13,8.13,0,0,0,2.22-6.19c-.05-.54,0-1.09,0-1.64Z"/><path d="M83.23,511.43a17.69,17.69,0,0,1,.24-3,4.71,4.71,0,0,1,1.17-2.07,1.76,1.76,0,0,1,1.59-.39,1.93,1.93,0,0,1,.72,1.49c.06,1.71,0,3.42-.1,5.13a7.11,7.11,0,0,0,1.82,5.09c2.17,2.56,4.32,5.13,6.43,7.74a3.48,3.48,0,0,0,3.42,1.43A93,93,0,0,0,108.81,525c10.22-2.85,20.36-6,30.56-8.91,2.62-.75,5.32-1.2,8-1.86a4.2,4.2,0,0,1,4,1,26.84,26.84,0,0,1,7,9.06,6.29,6.29,0,0,1-.35,6.64c-.36.51-.8,1.14-1.47.75a2.35,2.35,0,0,1-1-1.38,21,21,0,0,1-.31-3.27c-.18-3.77-2.65-6-5.36-8.08a2.77,2.77,0,0,0-2.55-.32c-4.49,1.23-9,2.34-13.48,3.67-10.37,3.08-20.71,6.29-31.07,9.39a22.71,22.71,0,0,1-4.63.83,3.57,3.57,0,0,1-2.23-.73,18.71,18.71,0,0,1-3.22-3.13q-4.1-5.28-8-10.72a8.53,8.53,0,0,1-1.14-3A25.56,25.56,0,0,1,83.23,511.43Z"/><path d="M118.91,543c.11-2.73.78-4.76,2.42-6.4.64-.63,1.3-1.35,2.31-1s1.17,1.48,1,2.45-.64,2.08-.87,3.15a5.92,5.92,0,0,0-.15,2.36,9.23,9.23,0,0,0,2.71,5c1.4,1.31,2.83,2.59,4.3,3.82a4,4,0,0,0,4,.55c5.69-1.67,10.69-4.91,16.22-6.91,4.12-1.5,8.24-3,12.35-4.54a2.52,2.52,0,0,1,2.34.14c2.9,1.67,5.88,3.22,8.73,5,4.43,2.72,8.8,5.56,13.17,8.38,2.46,1.59,4.92,3.2,7.32,4.9a13.85,13.85,0,0,1,2.46,2.44,1.36,1.36,0,0,1,.17,1.27,1.86,1.86,0,0,1-1.42.45,3.7,3.7,0,0,1-1.66-.76c-5.75-4.36-12.12-7.73-18.17-11.61-2-1.29-4.14-2.42-6.18-3.68a8.8,8.8,0,0,0-8.09-.72q-5.39,2-10.72,4.18-7.81,3.15-15.59,6.41a4.79,4.79,0,0,1-5.65-1c-2.34-2.21-4.75-4.34-7.17-6.47A10.34,10.34,0,0,1,118.91,543Z"/><path d="M473.76,543.41a10,10,0,0,1-3.41,6.58l-5.64,5.11c-.71.65-1.45,1.26-2.14,1.92a4.56,4.56,0,0,1-5.31.91q-7.41-3.06-14.83-6.09-5.24-2.13-10.5-4.17a17,17,0,0,0-3-.86,7.89,7.89,0,0,0-5.75.92c-3.11,1.87-6.26,3.68-9.34,5.59-4.49,2.78-8.93,5.61-13.39,8.43-.63.41-1.19.92-1.83,1.32a7.18,7.18,0,0,1-2,1,1.68,1.68,0,0,1-1.39-.5c-.19-.2-.06-1,.19-1.26a14.6,14.6,0,0,1,2.48-2.43c2.4-1.7,4.85-3.32,7.32-4.9,5-3.18,9.92-6.36,14.93-9.45,2.26-1.4,4.66-2.58,7-3.9a2.61,2.61,0,0,1,2.34-.11,200.7,200.7,0,0,1,24.14,9.87,29.4,29.4,0,0,0,5.4,1.85,3.06,3.06,0,0,0,2.89-.73c1.69-1.49,3.38-3,5-4.57a9,9,0,0,0,2.26-4.77,4.87,4.87,0,0,0-.27-2c-.28-1.26-.68-2.5-.88-3.77a1.42,1.42,0,0,1,1.06-1.76,2.55,2.55,0,0,1,1.83.54C472.9,537.92,473.76,540.18,473.76,543.41Z"/><path d="M473.14,54.37a9.06,9.06,0,0,1-2.53,6.81c-.59.59-1.26,1.16-2.17.8a1.84,1.84,0,0,1-1-2.24,17.67,17.67,0,0,1,.95-3.34,3.55,3.55,0,0,0,.15-2.38,10.92,10.92,0,0,0-3.17-5.42c-1.26-1.16-2.56-2.28-3.88-3.37a4,4,0,0,0-4-.56c-5.56,1.62-10.44,4.79-15.83,6.75q-6.37,2.32-12.73,4.7a2.55,2.55,0,0,1-2.34-.13c-2.85-1.64-5.77-3.15-8.56-4.86-4.49-2.76-8.91-5.63-13.34-8.49-2.47-1.59-4.92-3.2-7.32-4.9A12.31,12.31,0,0,1,395,35.47c-.29-.34-.48-1.26-.29-1.42a2.39,2.39,0,0,1,1.62-.41,3,3,0,0,1,1.46.69c5.74,4.36,12.12,7.73,18.17,11.61,2.07,1.33,4.25,2.49,6.35,3.78a8.53,8.53,0,0,0,7.71.68c3.73-1.35,7.42-2.83,11.11-4.31q7.71-3.12,15.39-6.33a4.8,4.8,0,0,1,5.66,1c2.39,2.25,4.86,4.42,7.31,6.61A10.09,10.09,0,0,1,473.14,54.37Z"/><path d="M119.56,54.39a8.59,8.59,0,0,1,2.36-5.6q4.65-4.49,9.54-8.74c1.37-1.19,3-1,4.67-.32q7.41,3.06,14.83,6.09c3.49,1.41,7,2.79,10.5,4.17a16.26,16.26,0,0,0,2.15.68,8.35,8.35,0,0,0,6.55-.82c4.57-2.77,9.17-5.48,13.7-8.31,3.77-2.36,7.45-4.85,11.17-7.28a3.18,3.18,0,0,1,.53-.31c.82-.39,1.76-.89,2.44,0s-.13,1.6-.71,2.1c-2,1.71-4.08,3.45-6.27,5-2.81,2-5.75,3.71-8.66,5.5-4.49,2.76-9,5.51-13.52,8.21a16.71,16.71,0,0,1-3.15,1.47,3,3,0,0,1-1.77-.06,198.13,198.13,0,0,1-24-9.73,34.09,34.09,0,0,0-5.57-2,3,3,0,0,0-2.9.64c-1.57,1.33-3.12,2.68-4.62,4.08a9.29,9.29,0,0,0-2.65,5,5.13,5.13,0,0,0,.14,2.16c.26,1.2.72,2.35.94,3.56a1.78,1.78,0,0,1-1,2.09c-.9.41-1.59-.12-2.19-.71A9,9,0,0,1,119.56,54.39Z"/><path d="M229.68,596.89a8.07,8.07,0,0,1-5.65.36c-7.45-2.75-14.93-5.44-22.37-8.2-7.76-2.89-15.52-5.77-23.24-8.78-3.69-1.45-7.3-3.13-10.88-4.83a5.62,5.62,0,0,1-2.19-2c-1.87-2.94-2.14-6.31-2.27-9.67a3.54,3.54,0,0,1,.66-1.88c.44-.69,1.13-1.44,2-1.09a2.73,2.73,0,0,1,1.38,1.58,48.84,48.84,0,0,1,1.51,6.38,4.69,4.69,0,0,0,3.14,4q27.19,11.65,54.76,22.34l3.21,1.21Z"/><path d="M362.55,596.73a13.86,13.86,0,0,1,1.39-.81q22.95-9.25,45.9-18.49c3.62-1.46,7.14-3.15,10.79-4.53a4.67,4.67,0,0,0,3.46-4.26,46.37,46.37,0,0,1,1.35-6c.24-.93.57-1.9,1.79-1.95.81,0,2,1.09,2.29,2.13a2.79,2.79,0,0,1,.12.81c-.15,3.29-.46,6.55-2.09,9.53a5.4,5.4,0,0,1-2.63,2.47c-8.06,3.6-16.22,7-24.54,10-6.37,2.29-12.7,4.71-19.06,7.06-4.18,1.54-8.37,3-12.54,4.57C366.73,598,364.86,597.55,362.55,596.73Z"/><path d="M362.42.71A8.18,8.18,0,0,1,368.13.4c7.52,2.78,15.06,5.5,22.58,8.29s15.28,5.67,22.88,8.64c3.76,1.47,7.43,3.19,11.08,4.91a5.22,5.22,0,0,1,2,1.92c1.87,3,2.2,6.43,2.28,9.88a2,2,0,0,1-.39,1.34,4.65,4.65,0,0,1-2.05,1.48c-1.05.18-1.46-.86-1.68-1.75-.54-2.19-1.14-4.37-1.49-6.6a4.22,4.22,0,0,0-2.87-3.57C402.26,17.07,383.84,9.6,365.32,2.4c-1-.39-2-.73-3-1.09Z"/><path d="M230.43,1.1c-.46.25-.84.5-1.24.67Q206.5,10.91,183.8,20c-4,1.62-7.92,3.43-11.92,5.05a3.73,3.73,0,0,0-2.51,3.16c-.41,2.35-1,4.67-1.58,7-.2.82-.64,1.74-1.57,1.61a4,4,0,0,1-2-1.26,2.25,2.25,0,0,1-.53-1.5,20.06,20.06,0,0,1,2.1-9.73A5.22,5.22,0,0,1,168.31,22q12.09-5.44,24.56-10C200,9.51,207,6.82,214.07,4.2q5.31-1.95,10.64-3.83A6.37,6.37,0,0,1,230.43,1.1Z"/><path d="M239.36,309.38l-7-8.52c-1.14-1.38-2.23-2.79-3.44-4.1a6,6,0,0,0-1.66-.91,5.41,5.41,0,0,0-.64,1.61c-.14,3.35-.24,6.71-.27,10.06-.05,4.11,0,8.22,0,12.34a4.61,4.61,0,0,0,1.22,3.35c1.74,1.94,3.45,3.91,5.09,5.93a3.55,3.55,0,0,1,.83,2c.13,11,.2,22.07.27,33.1a3.31,3.31,0,0,1-.23.67c-.4-.91-.74-1.61-1-2.34q-6.37-16.14-12.72-32.3c-.12-.32-.25-.64-.38-1-.25-.64-.48-1.34-1.38-1.23s-1,.91-1.09,1.54c-.23,1.14-.37,2.3-.5,3.46a69.88,69.88,0,0,0,1.24,21.25,90.16,90.16,0,0,0,12.55,31.93,29.94,29.94,0,0,0,2.23,3.2,5,5,0,0,1,1.19,3.56c-.28,9.8-.51,19.59-.76,29.38,0,.38-.1.77-.2,1.46-.72-.66-1.23-1.08-1.68-1.55A82.93,82.93,0,0,1,216.34,401a116.34,116.34,0,0,1-6.86-17.37,1.46,1.46,0,0,1,0-.2c-.25-.84-.35-1.95-1.59-1.73s-.94,1.38-.91,2.2c.12,3.08.22,6.17.51,9.23a312.07,312.07,0,0,0,8.09,46.92,253,253,0,0,0,10.17,32.51,1.74,1.74,0,0,1,.07,1.33c-1.37-2-2.91-4-4.08-6.14-4.78-8.85-9.68-17.66-14.13-26.69a390.11,390.11,0,0,1-29.62-80.18,200.21,200.21,0,0,1-5.69-35.24c-.17-2.81-.25-5.61-.39-8.42,0-.88-.23-1.76-.23-2.65,0-6.46.43-12.87,2.91-18.92a46.74,46.74,0,0,1,14.25-19.05c1.76-1.41,3.44-2.93,5.18-4.38a4.37,4.37,0,0,0,1.24-5.23,46.43,46.43,0,0,0-3.06-5.79,2.6,2.6,0,0,0-2.59-1.33A49.52,49.52,0,0,1,175,257.74a10.38,10.38,0,0,0-8.28,1.05c-7.86,4.46-15.79,8.8-23.7,13.18-.4.22-.82.42-1.59.81.1-1.21.08-2.13.25-3a23.28,23.28,0,0,1,4.08-8.9,171.9,171.9,0,0,1,15.12-18.4c3.88-4.24,7.87-8.4,11.89-12.51A36.6,36.6,0,0,1,185,221.81a9.63,9.63,0,0,1,6.42-.36A37.27,37.27,0,0,1,201.49,226a193.24,193.24,0,0,1,27.42,20.92,3.82,3.82,0,0,1,1.38,3.2q-.43,15.19-.76,30.42c-.08,3.28-.08,6.57-.16,9.86a6.59,6.59,0,0,0,1,3.87c3.12,4.91,6.17,9.87,9.24,14.81Zm-46.13-72.26c0-1.05-.69-1.4-1.81-.83q-6.31,3.17-12.55,6.48c-1.12.59-1.13,1.27-.14,2,1.64,1.22,3.32,2.4,5,3.56,1.08.75,1.44.72,2.18-.33,2.29-3.24,4.53-6.5,6.78-9.76A7.38,7.38,0,0,0,193.23,237.12Z"/><path d="M367,473.81c.15-.43.28-.87.44-1.29,6.21-15.87,10.48-32.28,13.81-49a289.84,289.84,0,0,0,4.43-30.48c.27-2.86.36-5.74.52-8.61a4.42,4.42,0,0,0-.08-1.63c-.15-.44-.58-1-.93-1.08a1.52,1.52,0,0,0-1.2.81c-.58,1.46-1,3-1.48,4.48-3.92,11.59-9.34,22.37-17.21,31.81-1.39,1.67-2.93,3.22-4.7,5.15a17.25,17.25,0,0,1-.3-1.91c-.16-6-.29-11.91-.43-17.87q-.15-5.85-.32-11.71a3.69,3.69,0,0,1,.73-2.47c7.84-10.53,12.51-22.44,15.15-35.2a73.37,73.37,0,0,0,1.63-16.32c-.05-2.8-.45-5.6-.72-8.39a4.08,4.08,0,0,0-.36-1.38,1,1,0,0,0-1.89-.12,9.57,9.57,0,0,0-.65,1.5l-12.71,32.31a7.76,7.76,0,0,1-1.22,2.17c0-.5-.09-1-.09-1.5.08-10.42.18-20.83.22-31.25a4.22,4.22,0,0,1,1.18-3.13c1.68-1.81,3.21-3.74,4.85-5.59a4.47,4.47,0,0,0,1.17-3.17c0-6.51,0-13-.06-19.53a22.3,22.3,0,0,0-.26-3.27c-.08-.48-.38-1.18-.73-1.28a1.71,1.71,0,0,0-1.34.61c-2.06,2.39-4.05,4.84-6.06,7.27a49.88,49.88,0,0,1-4.93,5.38c.88-1.44,1.75-2.88,2.64-4.31,2.1-3.38,4.14-6.78,6.32-10.11a8,8,0,0,0,1.32-4.81c-.23-9-.37-18.09-.56-27.13-.09-4.25-.18-8.5-.36-12.75a3.54,3.54,0,0,1,1.29-3,183.28,183.28,0,0,1,27.6-21,62.77,62.77,0,0,1,9.08-4.28,9.93,9.93,0,0,1,8.36.49,39.35,39.35,0,0,1,11,7.49,293.48,293.48,0,0,1,21.58,23.7A104.54,104.54,0,0,1,449,263.59a30.71,30.71,0,0,1,2.51,6.46,12.36,12.36,0,0,1,.22,2.73c-1.77-.94-3.28-1.7-4.75-2.52-6.95-3.86-13.9-7.69-20.81-11.61a10,10,0,0,0-7.91-.93,50.89,50.89,0,0,1-14.77,2.18,2.46,2.46,0,0,0-2.42,1.23,45.49,45.49,0,0,0-3.16,6,4.36,4.36,0,0,0,1.32,5.21c1.85,1.53,3.65,3.11,5.5,4.63a44.2,44.2,0,0,1,15.13,22.51,39.48,39.48,0,0,1,1.45,16.24,4.16,4.16,0,0,0,0,.61c-.16,20.47-4.39,40.25-10.15,59.76A422.72,422.72,0,0,1,373,465c-1.52,2.68-3.24,5.24-4.88,7.84a13,13,0,0,1-.87,1.09ZM401,236c-.9,0-1.32.42-1.11,1.17a4.31,4.31,0,0,0,.65,1.26c2.17,3.15,4.34,6.29,6.54,9.42.85,1.2,1.15,1.24,2.31.43,1.57-1.09,3.12-2.21,4.67-3.33,1.36-1,1.37-1.57-.07-2.33-4-2.11-8-4.16-12-6.22A7.93,7.93,0,0,0,401,236Z"/><path class="cls-3" d="M421.62,228.26a42.55,42.55,0,0,0-9.2-6.8,19,19,0,0,0-7.91-2.62,3.57,3.57,0,0,0-1.22.06,38.27,38.27,0,0,0-9.25,3.31,170.38,170.38,0,0,0-24,16.87c-2.44,2-4.78,4.08-7.3,6.24a3.73,3.73,0,0,1-.27-.8,34.45,34.45,0,0,0-2.59-12,12.76,12.76,0,0,1-.9-4.78q0-40.8-.06-81.6c0-7.74.05-15.48.09-23.22,0-.61.05-1.21.09-2,.85.28,1.56.49,2.25.74a195.43,195.43,0,0,1,59.15,34.08,3.84,3.84,0,0,1,1.56,3.29q0,33.51,0,67v2Z"/><path class="cls-3" d="M171.05,228.51v-2.37q0-33.6,0-67.21a3.66,3.66,0,0,1,1.5-3.11,194.86,194.86,0,0,1,59.32-34.18c.64-.23,1.29-.42,2.09-.68.06.65.15,1.16.15,1.68q0,32.16,0,64.33,0,20.55,0,41.11a10.72,10.72,0,0,1-.73,4,36.35,36.35,0,0,0-2.79,13.34c-.66-.5-1.13-.81-1.54-1.18A193.39,193.39,0,0,0,202,223.89a39.13,39.13,0,0,0-10.69-4.64,10.52,10.52,0,0,0-6,.22c-4.72,1.5-8.68,4.3-12.41,7.46Z"/><path class="cls-4" d="M424.56,260.27c2,1.05,3.75,2,5.53,3l20.53,11.25a8.72,8.72,0,0,0,.91.47c.87.34,1.61.09,1.73-.82a17.53,17.53,0,0,0,.19-4.45,21.59,21.59,0,0,0-3.79-9.23c-1.1-1.62-2.21-3.24-3.37-4.93,5.23-.58,30.36,4.89,39.06,8.3.53,2.83,1.11,5.77,1.63,8.72a197.56,197.56,0,0,1,2.37,42.56c-.2,4.5-.82,9-1.19,13.48-.09,1.14-.79,1.45-1.71,1.71-5.47,1.51-10.9,3.17-16.41,4.54a175.32,175.32,0,0,1-29.35,4.73c-4.63.34-9.3.36-13.95.52-.67,0-1.35,0-2.18,0Z"/><path class="cls-4" d="M168.69,340c-3.16,0-6.09.1-9,0a198,198,0,0,1-50.39-8.91c-1-.32-2.08-.66-3.14-1a1.5,1.5,0,0,1-1.18-1.47c-.31-3.41-.68-6.81-1-10.22a197.71,197.71,0,0,1-.25-24.22,175,175,0,0,1,2.56-22.81c.44-2.56,1-5.1,1.48-7.74a205,205,0,0,1,38.77-8.5l.26.37c-.53.76-1.06,1.53-1.6,2.28-2.59,3.58-4.89,7.29-5.56,11.76a14.42,14.42,0,0,0-.13,3.47c.2,2.07,1.05,2.47,2.88,1.47,3.84-2.1,7.67-4.23,11.51-6.34l13.33-7.28c.35-.19.73-.33,1.43-.64C168.75,287,168.67,313.41,168.69,340Z"/><path class="cls-5" d="M283.09,503.42c-5.83,1.23-11.32,3.46-17,5.72-4.38-5.21-8.75-10.38-13.09-15.58-3.29-3.94-6.53-7.93-9.84-11.86a3.94,3.94,0,0,1-1-2.79c.23-9.73.41-19.45.61-29.18.11-5.41.24-10.82.34-16.23q.27-14.49.5-29c.09-5.62.16-11.24.17-16.86a3.62,3.62,0,0,1,1.21-2.87q15.63-14.88,31.19-29.83l19.43-18.65c.24-.23.51-.43.9-.76,1.52,1.42,3,2.8,4.48,4.21Q318.3,356.37,335.56,373c4.1,3.94,8.22,7.87,12.39,11.73a3.74,3.74,0,0,1,1.32,3q.15,19.23.42,38.45c.09,6.91.26,13.83.4,20.75q.2,9.66.42,19.32c.09,4.17.2,8.35.38,12.53a4,4,0,0,1-1,3q-9.69,11.6-19.33,23.22c-1.14,1.37-2.36,2.66-3.67,4.13-5.49-2.16-11-4.49-16.91-5.66l-.11-.44c2.33-1.51,4.62-3.08,7-4.51a73.53,73.53,0,0,1,19.63-8.24c2.08-.54,2.09-.58,2.14-2.79q.19-8,.38-16c.35-14.39.73-28.77,1.06-43.16.24-10.82.38-21.65.63-32.48a5.49,5.49,0,0,0-2-4.61c-9.56-8.73-19-17.6-28.47-26.42q-5.86-5.46-11.74-10.92c-1.68-1.56-2.28-1.55-4,0l-27.81,25.93c-4.31,4-8.64,8-13,12a3.47,3.47,0,0,0-1.29,2.83c.1,5,.09,10,.19,15,.24,11.65.53,23.29.8,34.94l.81,35.55q.1,3.9.25,7.81c.07,1.7.12,1.81,1.79,2.23a73.33,73.33,0,0,1,20,8.35c2.34,1.4,4.6,2.95,6.89,4.43Z"/><path class="cls-4" d="M168.49,449.21a189.16,189.16,0,0,1-44.24-57.34,191.16,191.16,0,0,1-17.06-49.77,9.25,9.25,0,0,1,1.53.15,209.66,209.66,0,0,0,31.58,6.31,161.63,161.63,0,0,0,25.65,1l1.85,0a6.82,6.82,0,0,1,.88.16Q168.76,399.35,168.49,449.21Z"/><path class="cls-4" d="M486,342.19c-8.81,42.45-29.19,78-61,107.1a2.72,2.72,0,0,1-.34-.14c-.05,0-.13-.08-.13-.13a8.42,8.42,0,0,1-.08-1q0-49.14,0-98.39a13,13,0,0,1,1.73-.13c18.72.9,37-1.67,55.09-6.39l4-1A3.82,3.82,0,0,1,486,342.19Z"/><path class="cls-6" d="M228.83,300l3.57,4.3q7.28,8.78,14.55,17.56c.66.79,1.4,1.5,2.07,2.28.52.59,1.11.86,1.77.31s.39-1.08,0-1.65c-1.09-1.74-2.16-3.5-3.25-5.24-5.08-8.13-10.14-16.27-15.25-24.39a5.76,5.76,0,0,1-1-3.65c.12-1.83,0-3.67,0-5.51l.48-.2,31.08,27.06,27.56-20.6.41.22c-.83,8.75-1.66,17.51-2.5,26.4L280.65,319a24.67,24.67,0,0,1-2.78.72,2,2,0,0,0-1.8,2.14c-.15,1.56-.32,3.13-.42,4.7-.13,1.88.55,2.48,2.45,2.19,3.32-.51,6.64-1,9.93-1.61a2.2,2.2,0,0,1,2.48.88c.49.65,1.06,1.24,1.7,2L285,336.46Q270.1,349.72,255.23,363c-6.59,5.89-13.15,11.81-19.74,17.68a3.84,3.84,0,0,0-1.57,3.16,21.65,21.65,0,0,1-.3,3c-.88-.26-1.11-1-1.48-1.59a86.55,86.55,0,0,1-11.22-26.11,77.09,77.09,0,0,1-2.57-22q0-1.33.12-2.67c0-.11.11-.21.34-.63.38.91.68,1.62,1,2.35q6.67,16.9,13.33,33.81a8.64,8.64,0,0,0,.9,1.83c.19.29.74.61,1,.52a1.71,1.71,0,0,0,.95-.92A3.94,3.94,0,0,0,236,370q-.21-18.81-.4-37.62a7.49,7.49,0,0,0-2.17-5.74,44.74,44.74,0,0,1-4-4.66,3.58,3.58,0,0,1-.83-2c0-6.37,0-12.75,0-19.12A5.73,5.73,0,0,1,228.83,300Z"/><path class="cls-6" d="M364.37,299.9c.08,1,.14,1.41.14,1.86,0,5.89,0,11.79.06,17.68a3.77,3.77,0,0,1-1,2.77c-1.56,1.72-3,3.54-4.59,5.26a4.79,4.79,0,0,0-1.36,3.33c0,.61-.08,1.23-.09,1.85l-.42,36.79a7.51,7.51,0,0,0,.06,1.84,1.54,1.54,0,0,0,.84,1,1.51,1.51,0,0,0,1.18-.55,6.43,6.43,0,0,0,.81-1.64l13.23-33.63c.32-.82.67-1.62,1.07-2.57,3.41,10.84-6.08,44.81-14.77,52.92-.12-1.16-.31-2.23-.32-3.29a3.38,3.38,0,0,0-1.31-2.65c-7-6.25-14-12.53-21-18.77q-17.7-15.8-35.43-31.57a4.24,4.24,0,0,1-.41-.49,2,2,0,0,1,.24-.53c2.26-2.69,2.25-2.67,5.67-2.08,2.7.47,5.4.9,8.11,1.32,1.78.27,2.48-.32,2.38-2.07s-.28-3.27-.43-4.9a2.12,2.12,0,0,0-1.85-2.09c-2.8-.66-5.56-1.46-8.34-2.21-.65-.17-1.3-.37-2.14-.6-.83-8.78-1.67-17.55-2.55-26.84,2.23,1.43,3.93,2.86,5.71,4.16s3.74,2.77,5.6,4.17,3.61,2.72,5.42,4.08,3.73,2.79,5.6,4.18l5.66,4.22c10.43-8.92,20.7-18,31.38-27.28.09,2.82.25,5.24.2,7.67a4.6,4.6,0,0,1-1,2q-8.89,14.29-17.82,28.59a4.25,4.25,0,0,0-.72,1.24c-.09.46-.07,1.2.21,1.41a1.51,1.51,0,0,0,1.42-.11,18.88,18.88,0,0,0,2.25-2.39q5.07-6.08,10.11-12.17C358.8,306.66,361.41,303.49,364.37,299.9Z"/><path class="cls-4" d="M168.78,159.68c0,3.07,0,6.13,0,9.2,0,3.83-.06,7.67-.07,11.5q0,24.26,0,48.51a4.47,4.47,0,0,1-1.39,3.42c-3.51,3.65-6.93,7.39-10.34,11.13a2.91,2.91,0,0,1-2.26,1.13,189.38,189.38,0,0,0-40.92,6.12c-.84.22-1.69.37-2.94.64a194.45,194.45,0,0,1,57.46-91.88Z"/><path class="cls-4" d="M482.25,251.36c-3.74-.88-7-1.67-10.25-2.4a179.29,179.29,0,0,0-27.18-4c-2.18-.14-4.37-.29-6.56-.37a2.52,2.52,0,0,1-1.95-.88c-3.69-4-7.45-8-11.14-12.08a4.28,4.28,0,0,1-.74-1.79,6.29,6.29,0,0,1,0-1.44q0-27.84,0-55.69c0-3.7-.09-7.4-.13-11.1a5.89,5.89,0,0,1,.24-2C452.5,184.53,471.68,215,482.25,251.36Z"/><path class="cls-3" d="M232.51,487.39c-.74-.23-1.33-.38-1.89-.58a195.57,195.57,0,0,1-58.31-34,3.27,3.27,0,0,1-1.32-2.78q.06-44.4,0-88.82c0-3.29,0-6.58,0-9.87,0-.67.06-1.34.09-2.11l1.75-.23a5.23,5.23,0,0,1,.34.75c1.14,5,2.16,10,3.42,15a394,394,0,0,0,22.91,64.57c5.47,12.19,11.46,24.13,18.1,35.73,2.21,3.85,4.63,7.6,7.09,11.3S229.8,483.56,232.51,487.39Z"/><path class="cls-3" d="M360.64,487.37c3.33-4.74,6.67-9.17,9.65-13.84,3.19-5,6.18-10.18,9-15.41a427.87,427.87,0,0,0,30.93-71.79,308.4,308.4,0,0,0,9.39-35.52c.1-.53.26-1,.39-1.56a2.44,2.44,0,0,1,.65-.16c.39,0,.78.1,1.4.19v2.49q0,46.88,0,93.76c0,1.57-.05,3.15.05,4.72A2.72,2.72,0,0,1,421,452.7a194.55,194.55,0,0,1-59.25,34.36C361.42,487.17,361.1,487.24,360.64,487.37Z"/><path class="cls-2" d="M296.59,355.68c1.71,1.56,3.38,3.06,5,4.59q17.55,16.29,35.1,32.57a4,4,0,0,1,1.4,3.37c-.35,14.38-.64,28.77-.95,43.15l-.42,20.14c-.14,6.44-.26,12.88-.42,19.31-.07,3-.22,6-.32,8.86-3.79,1.36-7.51,2.52-11.09,4a75.83,75.83,0,0,0-19.59,11.91c-2.93,2.45-5.78,5-8.82,7.64-.44-.4-.93-.84-1.41-1.29-8.21-7.67-17.09-14.36-27.6-18.59-3.35-1.35-6.82-2.4-10.37-3.64-.11-3-.27-6.13-.33-9.27-.1-4.93-.1-9.87-.21-14.8-.22-10.21-.5-20.41-.73-30.61-.29-12.2-.53-24.39-.85-36.58a4.4,4.4,0,0,1,1.52-3.73q15.21-14,30.32-28.06l8.87-8.25C296,356.18,296.22,356,296.59,355.68Zm0,7.06c-.82.67-1.42,1.11-2,1.62q-16.2,15-32.39,30.05a3,3,0,0,0-1.07,2.49c.14,4.65.19,9.31.28,14q.18,9.56.37,19.1.22,10.68.45,21.37.24,11.91.45,23.82c0,2,.12,4,.12,6a1.86,1.86,0,0,0,1.48,2.09,66.26,66.26,0,0,1,18.14,9c4.35,3.08,8.48,6.48,12.67,9.77,1.4,1.1,1.41,1.15,2.74,0s2.48-2.14,3.75-3.19c8.13-6.73,17-12.25,27-15.62,1.39-.46,1.47-.58,1.51-2.23q.21-7.71.4-15.4.22-9.56.41-19.1c.14-6.58.3-13.15.41-19.72.16-9.93.27-19.86.46-29.79a3,3,0,0,0-1-2.51Q316.6,381.24,302.4,368C300.55,366.28,298.67,364.59,296.63,362.74Z"/><path class="cls-7" d="M43.35,297.3c18.63-14.92,39.28-25.18,61.86-32.8A199.22,199.22,0,0,0,102.66,329C81,321.47,61.22,311.53,43.35,297.3Z"/><path class="cls-7" d="M488,264.6a188.85,188.85,0,0,1,21,8.09,181.54,181.54,0,0,1,40.71,24.63c-17.77,14.19-37.59,24.1-59.11,31.6.33-4.49.71-8.73.94-13s.4-8.49.38-12.73-.21-8.63-.51-12.93-.73-8.45-1.29-12.65S488.77,269.16,488,264.6Z"/><path class="cls-4" d="M236.49,120a182.16,182.16,0,0,1,56.23-9.49c-.87.7-1.76,1.37-2.62,2.09-2.56,2.15-5.17,4.26-7.64,6.52a2.3,2.3,0,0,1-2.72.57A87.24,87.24,0,0,0,260,115.17a21,21,0,0,0-3.07-.13c-1.21,0-1.43.3-1.39,1.52a50.25,50.25,0,0,0,2.72,14.66,65.78,65.78,0,0,0,5.26,11.32,2.52,2.52,0,0,1,0,2.83A148.82,148.82,0,0,0,252,172.52c-2.71,8.65-4.67,17.45-4.74,26.58,0,2.46,0,4.91.05,7.37a4.29,4.29,0,0,1-.79,2.9,92.2,92.2,0,0,0-9.23,14.29,8.49,8.49,0,0,1-.76.94Z"/><path class="cls-4" d="M356.31,224.23c-.21-.31-.45-.6-.63-.92a88.52,88.52,0,0,0-8.8-13.6,4.84,4.84,0,0,1-1-3.64,80.12,80.12,0,0,0-1.78-22.43,141.55,141.55,0,0,0-14.44-38.07,2.84,2.84,0,0,1,0-3.19,56.58,56.58,0,0,0,6.86-17.27,75.09,75.09,0,0,0,1-8.75c.1-1.08-.25-1.39-1.56-1.31-2.38.16-4.77.4-7.13.75a78.4,78.4,0,0,0-15.86,4,1.65,1.65,0,0,1-1.88-.27c-3.49-3.06-7-6.07-10.5-9.06,5.11-2,44.36,4.63,56,9.64v104Z"/><path class="cls-8" d="M29.32,297.42c2.22-2,4.2-3.9,6.26-5.68a162.61,162.61,0,0,1,30.85-20.62,219.82,219.82,0,0,1,57.23-20.49A172.83,172.83,0,0,1,149.87,247c1-.06,2-.17,3.07-.24a5.82,5.82,0,0,1,.89.16,42.58,42.58,0,0,0-2.72,3.4,6.22,6.22,0,0,1-5.06,2.84,203.13,203.13,0,0,0-43.53,10C83,269.89,64.68,278.8,48.09,291.12,46,292.67,44,294.37,42,296a12.07,12.07,0,0,0-1.33,1.53,127.32,127.32,0,0,0,14.43,10.81c23.52,15.22,49.19,25.06,76.61,30.48a171.83,171.83,0,0,0,38.4,3.31c.41,0,.82,0,1.23,0a2.13,2.13,0,0,1,.54.17c.24,1.37.5,2.83.79,4.5-2.15.18-4.1.42-6.06.51a166,166,0,0,1-32.35-1.83,217.43,217.43,0,0,1-50.31-14c-16.29-6.7-31.64-15.06-45.43-26.13C35.46,302.87,32.54,300.19,29.32,297.42Z"/><path class="cls-8" d="M420.42,346.81c.28-1.64.52-3,.77-4.53a9.47,9.47,0,0,1,1.22-.12c21.18.69,41.73-2.89,61.9-9a211.35,211.35,0,0,0,47.8-21.07c3.52-2.12,6.95-4.39,10.31-6.75s6.56-4.92,10.06-7.57A15.14,15.14,0,0,0,551,296a119.78,119.78,0,0,0-16.56-12.12,216,216,0,0,0-71.67-28.16c-5.83-1.18-11.75-1.9-17.62-2.85a2.54,2.54,0,0,1-1.47-.55c-1.49-1.68-2.88-3.44-4.58-5.51,1,0,1.53,0,2.11,0a201.34,201.34,0,0,1,39.24,6.42A217.17,217.17,0,0,1,535.33,276a150,150,0,0,1,27,20.09c.4.37.76.78,1.3,1.35-1.22,1.15-2.37,2.29-3.58,3.36a159.51,159.51,0,0,1-30.35,21,219.56,219.56,0,0,1-59.58,21.76,186.72,186.72,0,0,1-26.21,3.64,147.7,147.7,0,0,1-21.35-.09C421.88,347,421.22,346.9,420.42,346.81Z"/><path class="cls-8" d="M312.3,238.88l-15.74,15.4L280.83,238.9c.39-.63.69-1.15,1-1.65l8.83-13.37c.19-.28.36-.59.56-.86a4.74,4.74,0,0,0,.18-6.19c-2.35-3.59-3.13-7.89-3.48-12.12-.48-5.86-.61-11.75-.9-17.63,0-.82-.05-1.64-.16-2.45a3,3,0,0,1,1.33-3.17c2.76-1.91,5.43-3.93,8.3-6,1.27.9,2.54,1.79,3.8,2.7,1.61,1.17,3.17,2.4,4.81,3.51a2.7,2.7,0,0,1,1.15,2.66c-.22,5.06-.39,10.12-.62,15.18-.25,5.56-1,11-3.31,16.18a16,16,0,0,1-1.58,2.87,1.85,1.85,0,0,0,0,2.41c3.48,5.33,6.91,10.69,10.36,16Z"/><path class="cls-3" d="M316.65,190.23a49.92,49.92,0,0,1,8.16,6.48,122.8,122.8,0,0,1,23.5,29.92,57.5,57.5,0,0,1,6.4,16.6c.13.66.21,1.32.36,2.35C341.6,243.09,328.42,240.5,315,238,315.55,222.16,316.09,206.37,316.65,190.23Z"/><path class="cls-3" d="M238,245.62c.34-1.7.55-3,.88-4.33a69.77,69.77,0,0,1,8.93-19.76,131.38,131.38,0,0,1,13.6-17.76,91,91,0,0,1,13.52-12.52c.38-.28.78-.54,1.18-.81.52,1.49,2.18,45,1.82,47.59Z"/><path class="cls-6" d="M361.49,280.18c-3.17-1.76-6-3.32-8.77-4.86-7.08-3.88-14.19-7.73-21.23-11.67a2.86,2.86,0,0,0-3.23.16c-2.81,1.7-5.64,3.38-8.44,5.1q-8.51,5.19-17,10.41c-.4.25-.83.45-1.52.82-.19-1.45-.41-2.75-.54-4.06-.42-4.22-.79-8.45-1.23-12.67a2.07,2.07,0,0,1,1-2.19q7.94-5.34,15.78-10.78a4.81,4.81,0,0,1,2.91-.75l29.18,0c3.43,0,6.85-.08,10.28-.12h2C361,259.73,361.25,269.76,361.49,280.18Z"/><path class="cls-6" d="M293.65,262.07c-.57,5.93-1.14,11.84-1.74,18.11-.81-.45-1.45-.76-2.06-1.13l-24-14.66c-.46-.28-.95-.54-1.42-.82a2.4,2.4,0,0,0-2.68,0q-14.28,7.92-28.59,15.76c-.4.22-.81.41-1.51.77.24-10.32.47-20.34.7-30.48.61,0,1.06-.13,1.52-.13,13.22.05,26.44.13,39.67.14a6.26,6.26,0,0,1,3.8,1.17c4.88,3.42,9.83,6.75,14.75,10.11C292.57,261.29,293.06,261.65,293.65,262.07Z"/><path d="M315.06,531.42c-.6-1.93-1.09-3.54-1.61-5.2,2.09-1.88,4.21-3.61,6.14-5.55a292.21,292.21,0,0,0,21-23.4c3.95-4.92,8-9.74,12-14.58a3.42,3.42,0,0,0,.87-2.42c-.18-8.9-.33-17.8-.52-26.71-.14-6.78-.32-13.56-.46-20.34-.16-7.39-.26-14.79-.47-22.18-.22-8-.58-16-.78-24a4.59,4.59,0,0,0-1.52-3.41c-3.68-3.58-7.33-7.2-11-10.77-4.24-4.09-8.51-8.14-12.77-12.22q-12.67-12.17-25.35-24.34c-.89-.85-1.84-1.63-2.9-2.58l1.65-2,6.24,5.55q24.88,22.13,49.77,44.21a4.66,4.66,0,0,1,1.79,3.84c.07,11.44.23,22.88.4,34.32.1,6.92.27,13.84.41,20.75q.19,10.06.41,20.14.19,9.45.41,18.9c0,1.36.09,2.74.24,4.1a3.74,3.74,0,0,1-1.07,3q-8.14,9.66-16.25,19.35c-1.89,2.26-3.69,4.6-5.63,6.81a43.84,43.84,0,0,1-3.93,3.9q-7.65,6.84-15.36,13.63C316.27,530.56,315.76,530.89,315.06,531.42Z"/><path d="M279.59,526.46c-.47,1.5-1,3.12-1.56,5-1-.76-1.79-1.34-2.53-2-5.34-4.8-10.7-9.59-16-14.45-4.36-4-7.65-8.92-11.5-13.37-4.25-4.93-8.37-10-12.59-14.91a4.76,4.76,0,0,1-1.27-3.51c.2-6.37.3-12.74.44-19.11s.27-12.87.4-19.31q.22-10.78.43-21.57.21-11,.4-22c.1-5.41.22-10.82.2-16.23a4,4,0,0,1,1.56-3.32q9.88-8.67,19.71-17.42,17.81-15.84,35.58-31.72c.25-.22.51-.43,1-.87l1.36,1.78c-.43.49-.83,1-1.31,1.46q-11.71,11.25-23.44,22.47-8.53,8.17-17,16.4c-3.3,3.19-6.55,6.43-9.87,9.61a5.14,5.14,0,0,0-1.74,3.94c-.11,6.85-.38,13.69-.56,20.54q-.44,16.63-.81,33.28-.24,10.07-.45,20.13c-.13,6.16-.24,12.33-.41,18.49a4.66,4.66,0,0,0,1.21,3.33c6,7.14,11.8,14.41,17.83,21.52,3.4,4,7,7.87,10.66,11.67C272.61,519.69,276,522.94,279.59,526.46Z"/><path d="M314.83,326.38c-2.78-.44-5.61-.86-8.43-1.35-3.75-.65-3.74-.67-6.29,2.13-1.11,1.21-2.23,2.41-3.52,3.8-1-1-1.89-2-2.83-2.95-1.09-1.12-2-2.74-3.36-3.21s-3,.18-4.59.4c-2.5.37-5,.78-7.8,1.22a24.93,24.93,0,0,1,.29-3.67c.09-.42.82-.86,1.33-1,2.7-.79,5.41-1.49,8.12-2.22a10.19,10.19,0,0,1,1.38-.39c1.26-.18,1.6-.91,1.7-2.12q1.62-18,3.36-36,.88-9.4,1.85-18.8a2.2,2.2,0,0,0-1.17-2.19c-2.2-1.53-4.39-3.06-6.59-4.57-3.45-2.36-6.93-4.68-10.35-7.07a5.65,5.65,0,0,0-3.44-1c-9.66,0-19.33,0-29,.05a2,2,0,0,1-1.26-.31c1-.24,2-.51,3.08-.71,9.95-1.86,19.92-3.67,29.86-5.59a2.67,2.67,0,0,1,2.7.85c5,4.91,10,9.77,15,14.65,1.67,1.62,1.68,1.62,3.41-.07,4.91-4.78,9.84-9.54,14.71-14.36a3.16,3.16,0,0,1,3.22-1c10.48,2,21,4,31.47,5.92a1.81,1.81,0,0,1,1.1.65h-1.88c-9.39,0-18.78,0-28.17-.06a6,6,0,0,0-3.63,1.08q-8,5.58-16.12,11a3.57,3.57,0,0,0-1.78,3.88c1.15,11,2.08,22.08,3.11,33.12.65,7,1.36,13.9,2,20.86a1.78,1.78,0,0,0,1.56,1.8c3.05.79,6.08,1.65,9.11,2.48,1.87.51,1.88.51,2,2.47,0,.61.05,1.23.06,1.84C315.06,326,315,326.14,314.83,326.38Z"/><path d="M296.58,588.62a30.33,30.33,0,0,1-5.85-6.51,65.23,65.23,0,0,1-10.24-25.76,81.73,81.73,0,0,1-1.23-8.94,44.39,44.39,0,0,1,.73-13.58,61.11,61.11,0,0,1,8-19c1.06-1.66,2.26-3.22,3.54-5l3.85,3.65c-1.35,2.38-2.66,4.6-3.89,6.87A47.48,47.48,0,0,0,285.74,540c-.31,4.76.42,9.35,1.16,14a70.86,70.86,0,0,0,5.54,18,35.12,35.12,0,0,0,4,7.16,9.73,9.73,0,0,0,1.11-1.27,68,68,0,0,0,8.36-22,82.92,82.92,0,0,0,1.49-12.36,48.38,48.38,0,0,0-.83-9.35c-1.18-7.53-4.74-14.07-8.91-20.66l3.85-3.79c1.23,1.72,2.4,3.21,3.42,4.8a59.67,59.67,0,0,1,8.14,19.16A42,42,0,0,1,314,544.5a74.33,74.33,0,0,1-6.43,28.4,44.61,44.61,0,0,1-9.89,14.76C297.35,587.94,297,588.21,296.58,588.62Z"/><path class="cls-3" d="M361.67,479.4c-.05-.59-.13-1.18-.14-1.78q-.22-10-.43-20.11c-.16-8.22-.29-16.43-.46-24.64,0-1.57-.23-3.15-.19-4.71a2.77,2.77,0,0,1,.76-1.76c9.12-8.37,15.22-18.76,20.11-29.95a38.9,38.9,0,0,1,2.08-4.38c-2.88,30.17-9.3,59.46-21.13,87.43Z"/><path class="cls-3" d="M231.43,479.74c-7.77-11.15-21.52-67-21.72-88.09.4.86.66,1.36.87,1.88a96.82,96.82,0,0,0,14.56,25.61c2,2.43,4.23,4.65,6.44,6.89a3.12,3.12,0,0,1,1.14,2.46c-.26,7.39-.46,14.77-.65,22.16-.09,3.49-.1,7-.16,10.48q-.15,8.31-.33,16.62C231.57,478.29,231.5,478.83,231.43,479.74Z"/><path class="cls-5" d="M277,534.07c-.16,4.61-.3,8.84-.45,13.15-4.46,2.71-23.51,5.92-33,4.85-.18-6.71,11.36-25.09,19-30.29Z"/><path class="cls-5" d="M316.58,547.55c-.16-4.62-.31-9-.46-13.47l14.54-12.42A63.64,63.64,0,0,1,350,552.14,94.2,94.2,0,0,1,316.58,547.55Z"/><path class="cls-4" d="M324.35,150.58c7.66,13.44,15.23,37.51,13.54,48.19-.5-.47-.95-.85-1.36-1.27a180.23,180.23,0,0,0-19.25-16.95,3.48,3.48,0,0,1-1.36-2.17c-1-4.47-2-8.93-3.07-13.38-.19-.81-.53-1.51.28-2.23A88.76,88.76,0,0,0,324.35,150.58Z"/><path class="cls-4" d="M254.86,198.93c.13-2.88.09-5.39.38-7.87,1.29-11.05,4.78-21.47,9.16-31.63,1.27-2.93,2.68-5.81,4.16-9,1.24,1.51,2.2,2.8,3.29,4,2.52,2.7,5,5.4,7.69,8a2.32,2.32,0,0,1,.74,2.65c-1.11,4.44-2.06,8.92-3.14,13.37a3.5,3.5,0,0,1-1,1.89,197.89,197.89,0,0,0-20.58,18.23A7,7,0,0,1,254.86,198.93Z"/><path d="M232.42,557c3.64-16.47,10.31-30.81,25.66-40.27.59.76,1.23,1.57,1.87,2.37.2.26.42.52.77,1-1.94,1.9-4,3.65-5.71,5.63a64.24,64.24,0,0,0-14.09,25.47,5.62,5.62,0,0,0-.19.58c-.44,1.82-.09,2.48,1.78,2.61a93.62,93.62,0,0,0,10.45.33,91.24,91.24,0,0,0,19.81-3.17l4.12-1.16.65,4.63a13.19,13.19,0,0,1-1.51.63,96.3,96.3,0,0,1-23.42,3.81A70.12,70.12,0,0,1,235.68,558c-.53-.12-1.06-.25-1.58-.42S233.21,557.27,232.42,557Z"/><path d="M315.58,555c.21-1.6.39-3,.6-4.61.86.22,1.56.37,2.25.57a91.5,91.5,0,0,0,27.95,3.76,38.61,38.61,0,0,0,4.29-.38c1.82-.25,2.28-.86,1.67-2.67a105.59,105.59,0,0,0-3.71-10,63.18,63.18,0,0,0-15.49-21,10.29,10.29,0,0,0-.92-.61l3.33-3c15.62,8.94,23.32,28.15,24.86,40a24.11,24.11,0,0,1-7.49,1.78c-12.27,1.58-24.28.07-36.1-3.33A11.44,11.44,0,0,1,315.58,555Z"/><path d="M301.45,283.07c2.84-.08,5.33-.32,7.84,1.31,6.14,4,12.52,7.62,18.75,11.47a3,3,0,0,0,3.71.08c6.8-4.25,13.67-8.37,20.52-12.53a2,2,0,0,1,.91-.4,36,36,0,0,1,5.35.21c-9.36,8.48-18.89,16.67-28.4,25a12.2,12.2,0,0,1-1.27-.74c-8.63-6.54-17.23-13.11-25.89-19.61C301.25,286.55,301.82,284.82,301.45,283.07Z"/><path d="M234.72,283c1.69,0,3.38,0,5.07,0a2.43,2.43,0,0,1,1.1.45c6.91,4.19,13.83,8.36,20.7,12.61a2.64,2.64,0,0,0,3.18,0c6.3-3.88,12.68-7.63,18.94-11.57a8.67,8.67,0,0,1,5.59-1.5c.67,0,1.35,0,2.16,0,.16,2.22,0,3.93-2,5.41-8.27,6.1-16.4,12.39-24.59,18.6-.54.41-1.1.79-1.78,1.27l-28.56-24.8Z"/><path class="cls-3" d="M171.31,259.26c.91.14,1.85.22,2.74.45a51.63,51.63,0,0,0,14.55,2.17,3,3,0,0,1,3.06,1.94c.58,1.25,1.17,2.48,1.73,3.72a2.46,2.46,0,0,1-.68,3.14c-1.91,1.66-3.74,3.42-5.74,5a46.55,46.55,0,0,0-15.07,20.83c-.1.25-.19.51-.3.76a1.67,1.67,0,0,1-.21.33C171,296.18,170.85,261.9,171.31,259.26Z"/><path class="cls-3" d="M421.83,297.85c-.66-1.56-1.22-2.92-1.82-4.26a45.69,45.69,0,0,0-13.91-18c-2-1.49-3.74-3.2-5.58-4.84a2.42,2.42,0,0,1-.78-3.27c.57-1.32,1.2-2.61,1.83-3.9a2.8,2.8,0,0,1,2.79-1.71,51.82,51.82,0,0,0,14.94-2.26,17.81,17.81,0,0,1,2.38-.37C422.14,260.81,422.28,294.89,421.83,297.85Z"/><path d="M329.91,265.53l27,14.78-.09.29H306a7.18,7.18,0,0,1,1-1C314.53,275,322.11,270.32,329.91,265.53Z"/><path d="M236.26,280.29l26.95-14.77,23.9,14.73-.16.37H236.37Z"/><path class="cls-9" d="M303.67,164.61c4.76,2.21.77,2.65-1.22,4.08-4.74,5.16-11.66,8.4-17.51,12.57-2.34,1.67-4.73,3.27-7.13,4.85a90.73,90.73,0,0,0-14.67,12.49,126,126,0,0,0-16.58,20.61c-4.29,6.73-8,13.74-9.83,21.57-.39,1.66-.61,3.35-.94,5.21l-2.95.65a23.25,23.25,0,0,1,.16-6.14,64,64,0,0,1,8-19.24,119.41,119.41,0,0,1,12.66-17.41,131.68,131.68,0,0,1,30.22-25.71c2.91-1.79,5.62-3.64,8.46-5.54,3.12-2.1,6.07-4.43,9.08-6.68C302,165.47,302.93,165.23,303.67,164.61Z"/><path d="M360.27,246.6l-2.77-.52c-.69-3-1.18-5.8-2-8.52-2.74-8.88-7.5-16.71-12.92-24.15a126.53,126.53,0,0,0-21.08-22.66c-2.61-2.18-5.5-4.05-8.28-6-1.56-1.11-3.19-2.12-4.75-3.24-2.89-2.07-5.76-4.18-8.63-6.29-.44-.32-.86-.66-1.37-1.06.55-1,1.27-1.42,2.31-.88,1.58.82,3.17,1.62,4.69,2.54a142.31,142.31,0,0,1,18.48,13,132.62,132.62,0,0,1,11.7,10.91,130,130,0,0,1,13.44,16.79c4.49,6.84,8.38,14,10.56,21.92A24.06,24.06,0,0,1,360.27,246.6Z"/><path class="cls-4" d="M321.56,145a79.57,79.57,0,0,1-11,13c-.79-1.92-1.48-3.65-2.22-5.36s-1.49-3.37-2.3-5-1.71-3.42-2.61-5.11-1.76-3.24-2.68-4.92a71.89,71.89,0,0,1,8.7-10A106.44,106.44,0,0,1,321.56,145Z"/><path class="cls-4" d="M282.61,158a84.91,84.91,0,0,1-11-12.95,106.53,106.53,0,0,1,11.78-17.25c2.6,1.16,7.75,6.05,9.32,8.79-4.22,4.46-6.08,10.12-8,15.74C284,154.13,283.36,155.92,282.61,158Z"/><path d="M284.71,184.35c.08,4.27.18,8.57.25,12.88a54.46,54.46,0,0,0,2.15,15.6,55.4,55.4,0,0,0,2.56,6.25,1.84,1.84,0,0,1,0,2.06c-2.82,4.29-5.61,8.6-8.41,12.91a8.75,8.75,0,0,1-.69.77c-.14-1.46-.3-2.59-.34-3.73-.22-6.16-.38-12.31-.63-18.47-.3-7.59-.66-15.17-1-22.76,0-.77-.11-1.52.61-2q2.47-1.81,5-3.6C284.26,184.17,284.44,184.27,284.71,184.35Z"/><path d="M308.53,183.79c2,1.53,3.8,2.77,5.43,4.17a2.54,2.54,0,0,1,.51,1.84c-.2,5.67-.48,11.35-.71,17q-.57,13.55-1.11,27.08a7.47,7.47,0,0,1-.17.81,10,10,0,0,1-.84-1c-2.69-4.13-5.37-8.27-8.08-12.39a1.84,1.84,0,0,1-.14-2.23,34.22,34.22,0,0,0,4.2-14.47c.42-4.91.42-9.84.62-14.77C308.31,188,308.42,186.13,308.53,183.79Z"/><path class="cls-3" d="M329.69,294.22,312,283.48l.13-.36h35.57C346.78,284.22,334.73,291.65,329.69,294.22Z"/><path class="cls-8" d="M281.07,283.48l-17.75,10.8-18.11-10.86.1-.31h35.56Z"/><path class="cls-5" d="M296.56,574.39a71.24,71.24,0,0,1-7.31-21.06l7.29-4.21,7.3,4.19A70.38,70.38,0,0,1,296.56,574.39Z"/><path class="cls-2" d="M296.55,111c12,7.22,20.45,17.78,27.62,29.64L322.78,143c-6.72-11.89-14.91-22-26.27-29.53a78.81,78.81,0,0,0-14.82,13.09,112.18,112.18,0,0,0-11.39,16.39l-1.36-2.31C276.12,128.74,284.53,118.19,296.55,111Z"/><path class="cls-4" d="M296.65,144c2.47,6.29,5,12.1,6.51,18.52-2,1.53-3.9,3.11-5.93,4.59a1.58,1.58,0,0,1-1.46-.07c-1.77-1.29-3.5-2.63-5.16-4.06a1.94,1.94,0,0,1-.56-1.59c1.42-5.5,2.94-11,5.65-16C295.89,145,296.15,144.66,296.65,144Z"/><path d="M325.85,148.42l1.61-2.17c1.5,3,2.93,5.65,4.23,8.41a145.41,145.41,0,0,1,9,24.61,90.18,90.18,0,0,1,3,21.48,25.63,25.63,0,0,1-.38,3.45c-1.77-.55-3.31-2.43-3.19-3.95.64-7.63-.77-15-2.7-22.3a147.13,147.13,0,0,0-10.54-27.34Z"/><path d="M250.05,204.3a30.18,30.18,0,0,1-.76-11.33c1.91-16.2,8.16-31.12,15.73-45.43.18-.35.43-.65.74-1.12l1.49,2c-.33.69-.64,1.36-1,2A143.11,143.11,0,0,0,255.46,181c-1.49,6.28-3.1,12.5-2.52,19C253.15,202.29,251.29,203,250.05,204.3Z"/><path class="cls-2" d="M285.09,126c.51-1,1.07-.88,1.71-.32,1.9,1.66,3.85,3.27,5.7,5,5.2,4.82,8,11.18,11.15,17.34a106.41,106.41,0,0,1,9.49,28.53c.05.25.06.51.13,1.13-1.81-1.07-3.41-1.94-4.92-2.94a2.64,2.64,0,0,1-.9-1.16c-2.65-6.38-1.56-10.76-2.8-15.94a57.37,57.37,0,0,0-3.23-8.64c-1.32-3.16-2.85-6.22-4.2-9.37-1.43-3.37-4-5.87-6.45-8.4C289,129.46,287.05,127.84,285.09,126Z"/><path class="cls-5" d="M296.67,516.44a61.75,61.75,0,0,1,6.82,14.09l-6.28,5.68a38,38,0,0,1-6.63-6,1.78,1.78,0,0,1-.34-1.44C291,526.26,294.68,518.57,296.67,516.44Z"/><path class="cls-4" d="M297.14,132l-9.44-9,8.6-7c3.52,2,6.17,4.61,9.19,7.15C302.64,126.16,299.9,129.07,297.14,132Z"/><path d="M279.67,177.21c.93-3.7,1.73-7.43,2.81-11.08-.81-5,3.84-13.28,6.71-19.58,1-2.16,2.25-4.21,3.45-6.27a12.75,12.75,0,0,1,1.43-1.7c1.68,1.54,1.72,1.81.63,3.44a38.32,38.32,0,0,0-4.33,9.48,132.46,132.46,0,0,0-4.85,21.37,2.93,2.93,0,0,1-1.7,2.53c-1.27.62-2.46,1.41-3.69,2.13Z"/><path class="cls-4" d="M315.93,124.54A64,64,0,0,1,330,121.12c-.1,6.1-1.92,11.5-4.48,16.91Z"/><path class="cls-4" d="M277.16,124.56,267.59,138a39.61,39.61,0,0,1-4.53-16.88A62.12,62.12,0,0,1,277.16,124.56Z"/><path d="M325.14,511.1l-3.55,3.7a78.93,78.93,0,0,0-14.86-3.23,2.73,2.73,0,0,1-1.47-.87,24.32,24.32,0,0,1-1.8-2.48c.93-.8,1.82-1.62,2.77-2.35a1.6,1.6,0,0,1,1.13-.32C313.46,506.47,319.19,508.57,325.14,511.1Z"/><path d="M289.59,508.14c-.17.36-.21.5-.28.6-1.95,2.79-2,2.66-5.37,3.23-4.1.69-8.15,1.63-12.67,2.56l-3-3.35a5.89,5.89,0,0,1,.91-.58,73.08,73.08,0,0,1,15.58-4.9,2.93,2.93,0,0,1,2.95.8C288.27,507.08,288.93,507.57,289.59,508.14Z"/><path d="M313.8,122.16c3.94-2.23,16.65-5,21.34-4.61-.11,1.32-.14,2.66-.34,4a56.28,56.28,0,0,1-6,17.75,78.1,78.1,0,0,1-15.65,20.43c-.35.33-.71.64-1.09.94-.09.07-.25,0-.4.06-.57-.78.21-1.06.58-1.46,2.54-2.78-7.63,6,7.6-8.33,5.72-7.12,10.09-15,11.9-24a27.12,27.12,0,0,0,.51-5.09c0-2.27-.66-2.69-2.91-2.44a66.59,66.59,0,0,0-13.72,3.29C314.89,122.88,314.28,123.19,313.8,122.16Z"/><path class="cls-2" d="M257.93,117.28a77.79,77.79,0,0,1,21.31,4.59c-.1,1-.57,1.18-1.39.92-2.21-.7-4.4-1.47-6.66-2-2.45-.59-4.95-1-7.44-1.41-2.19-.36-3,.21-2.83,2.49a44.48,44.48,0,0,0,1.29,8.27A56.26,56.26,0,0,0,273.34,151c2.28,2.81,4.88,5.36,7.32,8,.41.46,1.2.74,1,1.63-5.31-.56-10.06-7.87-13.88-15.56C262.38,136.69,258.59,127.73,257.93,117.28Z"/><path class="cls-5" d="M312.49,523.35l-4.61-8.87a62.38,62.38,0,0,1,11.67,2.43Z"/><path class="cls-5" d="M280.63,523.35l-7-6.37a63.27,63.27,0,0,1,11.64-2.58C283.68,517.43,282.24,520.22,280.63,523.35Z"/><path d="M294.72,537.78l-4.18,3-2.73-2.13c.38-1.92.79-3.95,1.26-6.3Z"/><path d="M292.6,542.55l4.44-3.2,4,2.77-4.52,3.37Z"/><path d="M304.31,550.61l-5.82-3.32,4-3.09,2.53,1.28C304.78,547.1,304.58,548.63,304.31,550.61Z"/><path d="M288.83,550.6c-.27-1.85-.5-3.37-.75-5.11l2.61-1.23,3.95,3Z"/><path d="M303.06,540.41l-3.64-2.64,4.81-4.57c.4,2,.74,3.72,1.07,5.41Z"/><path d="M308,126l-8.3,9.37c-.8-.45-1.19-1-.48-1.76q3.56-3.93,7.15-7.82C306.82,125.23,307.36,125.05,308,126Z"/><path d="M289.45,164.61l4.89,4.08c-1.35,1.48-1.36,1.48-2.84.54-.29-.18-.57-.38-.86-.57C288.62,167.29,288.62,167.29,289.45,164.61Z"/><path class="cls-4" d="M302,171.36l2.79-1.76.68,3.63Z"/><path class="cls-4" d="M287.73,173.16c.2-1.33.36-2.34.55-3.59l2.58,1.61C290.09,172.18,289,172.48,287.73,173.16Z"/><path d="M193.23,237.12a7.38,7.38,0,0,1-.54,1.12c-2.25,3.26-4.49,6.52-6.78,9.76-.74,1.05-1.1,1.08-2.18.33-1.68-1.16-3.36-2.34-5-3.56-1-.73-1-1.41.14-2q6.24-3.32,12.55-6.48C192.54,235.72,193.27,236.07,193.23,237.12Zm-4.27,3-.29-.3c-2.48,1.35-5.08,2.51-7.69,4.16l3.55,2.48Z"/><path d="M401,236a7.93,7.93,0,0,1,1,.4c4,2.06,8,4.11,12,6.22,1.44.76,1.43,1.34.07,2.33-1.55,1.12-3.1,2.24-4.67,3.33-1.16.81-1.46.77-2.31-.43-2.2-3.13-4.37-6.27-6.54-9.42a4.31,4.31,0,0,1-.65-1.26C399.71,236.44,400.13,236,401,236Zm7.56,10.49,3.59-2.61-7.76-4.07-.27.32Z"/><path d="M296.63,362.74c2,1.85,3.92,3.54,5.77,5.25q14.24,13.22,28.45,26.43a3,3,0,0,1,1,2.51c-.19,9.93-.3,19.86-.46,29.79-.11,6.57-.27,13.14-.41,19.72q-.19,9.54-.41,19.1-.18,7.69-.4,15.4c0,1.65-.12,1.77-1.51,2.23-10.08,3.37-18.92,8.89-27,15.62-1.27,1-2.51,2.13-3.75,3.19s-1.34,1.09-2.74,0c-4.19-3.29-8.32-6.69-12.67-9.77a66.26,66.26,0,0,0-18.14-9,1.86,1.86,0,0,1-1.48-2.09c0-2-.08-4-.12-6q-.22-11.91-.45-23.82-.21-10.69-.45-21.37-.19-9.54-.37-19.1c-.09-4.65-.14-9.31-.28-14a3,3,0,0,1,1.07-2.49q16.22-15,32.39-30.05C295.21,363.85,295.81,363.41,296.63,362.74Zm30.76,118.17c.1-1.32.24-2.47.27-3.63q.25-10.78.47-21.58.22-11.1.44-22.19c.05-2.95.07-5.9.15-8.84q.38-13.25.82-26.5a2.91,2.91,0,0,0-1.08-2.49c-2.69-2.44-5.34-4.93-8-7.39l-4.78-4.44L298.84,396.3c1.05.67,1.79,1.15,2.54,1.61,3.92,2.39,7.85,4.76,11.76,7.16,2,1.26,2.21,1.78,1.34,4Q307,428.55,299.41,448c-.82,2.13-1.78,4.21-2.86,6.73-1.1-2.57-2.05-4.67-2.89-6.82q-7.52-19.32-15-38.68c-.92-2.39-.77-2.86,1.38-4.19,4.21-2.58,8.43-5.13,12.63-7.71.49-.3.94-.65,1.52-1.07C288.5,392,283,388,277.42,383.85c-4.2,3.89-8.34,7.79-12.55,11.6a3.71,3.71,0,0,0-1.29,3.23c.2,4.93.32,9.86.45,14.79.16,6.3.29,12.6.44,18.9.25,10.34.53,20.68.76,31,.1,4.52.13,9,.22,13.56,0,1.29.17,2.58.27,4,11.71,4.11,21.8,10.77,30.85,19.1A89,89,0,0,1,327.39,480.91ZM280.71,407.5l15.63,40.25.45,0,15.62-40.25c-5-3-9.73-5.84-14.42-8.77a2.42,2.42,0,0,0-3,.06c-3.3,2.07-6.67,4-10,6.07C283.64,405.66,282.26,406.54,280.71,407.5Zm31.74-26.66-15.9-14.76-15.89,14.76Zm-15.9,14,14.82-11c-.28-.21-.38-.36-.49-.36q-13.25-.06-26.5-.07c-.75,0-1.5,0-2.25.09-.05,0-.11.09-.14.14a1.85,1.85,0,0,0-.08.33Z"/><path class="cls-8" d="M189,240.14l-4.43,6.34L181,244c2.61-1.65,5.21-2.81,7.69-4.16Z"/><path class="cls-8" d="M408.59,246.51l-4.44-6.36.27-.32,7.76,4.07Z"/><path class="cls-6" d="M327.39,480.91A89,89,0,0,0,296.57,500c-9.05-8.33-19.14-15-30.85-19.1-.1-1.38-.24-2.67-.27-4-.09-4.52-.12-9-.22-13.56-.23-10.35-.51-20.69-.76-31-.15-6.3-.28-12.6-.44-18.9-.13-4.93-.25-9.86-.45-14.79a3.71,3.71,0,0,1,1.29-3.23c4.21-3.81,8.35-7.71,12.55-11.6C283,388,288.5,392,294.2,396.24c-.58.42-1,.77-1.52,1.07-4.2,2.58-8.42,5.13-12.63,7.71-2.15,1.33-2.3,1.8-1.38,4.19q7.49,19.35,15,38.68c.84,2.15,1.79,4.25,2.89,6.82,1.08-2.52,2-4.6,2.86-6.73q7.56-19.43,15.07-38.87c.87-2.26.7-2.78-1.34-4-3.91-2.4-7.84-4.77-11.76-7.16-.75-.46-1.49-.94-2.54-1.61l16.84-12.45,4.78,4.44c2.66,2.46,5.31,4.95,8,7.39a2.91,2.91,0,0,1,1.08,2.49q-.46,13.24-.82,26.5c-.08,2.94-.1,5.89-.15,8.84q-.22,11.08-.44,22.19-.22,10.79-.47,21.58C327.63,478.44,327.49,479.59,327.39,480.91Z"/><path d="M280.71,407.5c1.55-1,2.93-1.84,4.32-2.68,3.33-2,6.7-4,10-6.07a2.42,2.42,0,0,1,3-.06c4.69,2.93,9.45,5.76,14.42,8.77l-15.62,40.25-.45,0Z"/><path class="cls-6" d="M312.45,380.84H280.66l15.89-14.76Z"/><path d="M296.55,394.8,281.91,384a1.85,1.85,0,0,1,.08-.33c0-.05.09-.14.14-.14.75,0,1.5-.09,2.25-.09q13.25,0,26.5.07c.11,0,.21.15.49.36Z"/><path d="M239.49,31.75V54.34c-4.21,1.33-6.3,2.06-10.44,3.64V46c-3.45,1.31-5.17,2-8.57,3.5v14.6a163.42,163.42,0,0,1,19,4.12v35.9c-4.21,1.33-6.3,2.05-10.44,3.63-3.45,1.31-5.17,2-8.57,3.5-4.08,1.79-6.1,2.75-10.1,4.78V87.65c4-2,6-3,10.1-4.78v17.76c3.4-1.49,5.12-2.19,8.57-3.5V79.18c1.27-.48,1.91-.72,3.19-1.18l-.19,0c-1.2-.27-1.8-.4-3-.65a151.45,151.45,0,0,0-18.67-3V43.66c4-2,6-3,10.1-4.78,3.4-1.49,5.12-2.19,8.57-3.5C233.19,33.8,235.28,33.07,239.49,31.75Z"/><path d="M275.48,34.73c-4,.45-6,.73-10,1.39V97.87c-4.32.72-6.47,1.14-10.75,2.1V38.22c-3.91.88-5.85,1.38-9.72,2.47V30.09c3.87-1.09,5.81-1.59,9.72-2.47,4.28-1,6.43-1.39,10.75-2.1,4-.67,6-.94,10-1.39Z"/><path d="M312.08,34.18V95.93c-4.35-.35-6.53-.47-10.9-.57-3.63-.09-5.45-.09-9.09,0-4.36.1-6.54.22-10.89.57V23.58c4.35-.36,6.53-.47,10.89-.58,3.64-.08,5.46-.08,9.09,0,4.37.11,6.55.22,10.9.58Zm-10.9,50.58V33.61c-3.63-.09-5.45-.09-9.09,0V84.76C295.73,84.67,297.55,84.67,301.18,84.76Z"/><path d="M337.58,27.41c4.28.95,6.42,1.48,10.65,2.68V60.22c-2,.57-3.07.88-5.12,1.51,2.05,1.71,3.08,2.58,5.12,4.35v36.36c-4.23-1.2-6.37-1.73-10.65-2.68V71.21c1.31.29,2,.44,3.28.76l-.18-.14c-1.24-1-1.86-1.5-3.1-2.48-3.57-2.83-5.36-4.2-9-6.86V98c-4.31-.73-6.48-1-10.82-1.53V24.13c4.34.49,6.51.79,10.82,1.53C332.22,26.27,334,26.62,337.58,27.41Zm0,30.32V38c-3.57-.79-5.36-1.14-9-1.75v14.6C332.22,53.52,334,54.89,337.58,57.73Z"/><path d="M382.89,55.28V116c-4-2-6-3-10.09-4.78V56.64c-1.69.27-2.53.42-4.23.73l-.09,0c-1.69-1.74-2.54-2.59-4.25-4.28v54.68c-4.15-1.58-6.24-2.3-10.44-3.63V31.75c5.87,5.27,8.77,8,14.51,13.79l.27.29.18-.11c5.74-1,8.57-1.42,14.14-2Z"/><path d="M145.14,449.88c1.32,1.36,2,2,3.34,3.36l-2.62,3.87-4.81,7.14-2.33-.56c.35,1.09.53,1.63.88,2.7l-.11.17-.25.38-2.36,3.5-.23.34-3.4,5-2.61,3.87c-1.35-1.33-2-2-3.34-3.35-1.1-1.13-1.64-1.7-2.73-2.84-1.31-1.37-1.95-2.07-3.23-3.47l2.61-3.87,7.66-11.35.25-.38,2.36-3.5.23-.34,2.11-3.12,2.62-3.88c1.28,1.4,1.92,2.09,3.23,3.46C143.49,448.19,144,448.76,145.14,449.88ZM137.67,461c1.94-2.89,2.91-4.33,4.86-7.21-1.1-1.13-1.65-1.7-2.74-2.84l-3.6,5.34C136.77,458.15,137.07,459.09,137.67,461Zm-3.33,4.92,1,1,0-.09-.53-1.63c-.6-1.87-.89-2.81-1.47-4.71l-6.15,9.11c1.09,1.15,1.64,1.72,2.74,2.84Z"/><path d="M156.87,461.18c.73,2,1.09,2.95,1.84,4.91l-.14.2-.21.31-2.52,3.73-.34.51-1.79,2.66c-2,3-3.06,4.52-5.09,7.54l-1.81,2.69-.35.51-2.5,3.7-.22.34-.12.17c-1.84-.32-2.76-.48-4.59-.82l0,0c-1.27-1.16-1.91-1.74-3.16-2.92l-1.54-1.45c-.76-.72-1.13-1.08-1.88-1.81l2.61-3.87,12.61-18.7,2.61-3.87,1.89,1.81,1.53,1.44c1.26,1.18,1.89,1.77,3.17,2.92ZM145.1,477.9l5.09-7.55,3.3-4.89-.61-1.66c-.73-.67-1.1-1-1.82-1.69l-12.61,18.7,1.82,1.68c.61.13.92.18,1.53.3Z"/><path d="M172.57,474.36,170,478.24l-2.91,4.32c-1.49-1.16-2.23-1.74-3.7-2.93l2.91-4.31c-1.22-1-1.83-1.48-3-2.49-1.44,2.15-2.17,3.23-3.62,5.37.86,2.14,1.3,3.2,2.18,5.31l-2.84,4.21c-.88-2.11-1.32-3.17-2.18-5.3l-6.15,9.11c1.21,1,1.82,1.5,3,2.48l.12-.17.5-.75.07-.1.25-.37.28-.41c.83-1.24,1.25-1.86,2.09-3.09l.23-.34c.87,2.06,1.31,3.09,2.2,5.13L158,496l-.62.91-.83,1.23-1.78,2.65c-1.49-1.16-2.23-1.74-3.7-2.92-1.22-1-1.83-1.48-3-2.49-1.45-1.2-2.17-1.81-3.6-3l2.61-3.87,7.25-10.74.94.8-.55-1.38-.52-1.36.25-.38,2.36-3.5.23-.34c.22.53.33.8.54,1.33.85-1.25,1.27-1.88,2.11-3.13l2.62-3.87c1.43,1.23,2.15,1.83,3.6,3,1.21,1,1.82,1.5,3,2.48C170.35,472.62,171.09,473.21,172.57,474.36Z"/><path d="M192.88,488.68c-1,1.55-1.57,2.33-2.61,3.88l-2.92,4.32c-1.58-1-2.37-1.53-3.94-2.57l2.91-4.32c-1.31-.86-2-1.3-3.25-2.19-1.45,2.15-2.18,3.22-3.62,5.37,1,2,1.45,3,2.44,4.95L179,502.33c-1-2-1.47-2.95-2.44-4.94l-6.14,9.11c1.29.88,1.94,1.32,3.25,2.19l.12-.17.5-.75.07-.1.25-.38.28-.4,2.08-3.1.23-.34c1,1.93,1.47,2.88,2.46,4.78l-1.42,2.11-.62.91-.83,1.23L175,515.13c-1.58-1-2.37-1.53-3.94-2.57-1.31-.86-2-1.3-3.26-2.19-1.55-1.06-2.32-1.6-3.86-2.69l2.62-3.88c2.9-4.29,4.34-6.44,7.24-10.74l1,.72c-.25-.52-.37-.78-.62-1.29l-.58-1.28.25-.37,2.36-3.5.23-.34.61,1.24,2.11-3.13,2.61-3.88c1.54,1.09,2.31,1.63,3.86,2.7l3.25,2.19C190.5,487.16,191.29,487.67,192.88,488.68Z"/><path d="M206.46,496.8l-2.62,3.88c-1.18,1.75-1.77,2.63-3,4.38-1.64-.92-2.46-1.38-4.09-2.33l3-4.39c-1.36-.79-2-1.19-3.38-2l-3.6,5.33c1.85,3.43,2.79,5.12,4.7,8.45l-.09.13-.16.24-2.37,3.5-.22.34-3.4,5-2.61,3.88c-1.65-.92-2.46-1.39-4.09-2.34-1.36-.79-2-1.19-3.38-2-1.61-1-2.42-1.46-4-2.46l2.61-3.87,4.38-6.49c1.6,1,2.4,1.49,4,2.46L183.76,515c1.35.81,2,1.21,3.38,2l4.43-6.56,1.25.72,0-.07L192,509.8c-1.87-3.38-2.79-5.1-4.61-8.57l.18-.28.07-.1,2.36-3.5.23-.34,2.11-3.13L195,490c1.6,1,2.4,1.49,4,2.46,1.34.81,2,1.21,3.37,2C204,495.41,204.81,495.88,206.46,496.8Z"/><path d="M204.76,515l-.71-1.15-6.05,9-2.73,4c-1.67-.87-2.5-1.32-4.15-2.22l2.76-4,3.65-5.41c1.36-2,2-3,3.41-5.06l1.24.67-.82-1.37,0,0-.66-1.16.25-.37,2.36-3.5.23-.34.68,1.12,4.7-7c1.66.9,2.49,1.34,4.16,2.22-2.49,3.68-3.73,5.52-6.21,9.21l.71,1.15Z"/><path d="M228.81,508l-2.62,3.88c-1.16,1.72-1.74,2.59-2.91,4.31-1.73-.76-2.59-1.15-4.3-1.95l2.91-4.31-3.56-1.68-3.62,5.37c1.12,1.74,1.68,2.61,2.81,4.32l-2.84,4.21c-1.13-1.71-1.7-2.57-2.81-4.32l-6.15,9.11c1.42.68,2.13,1,3.56,1.68l.12-.17.5-.75.07-.1.25-.37.28-.41,2.08-3.09.23-.34c1.12,1.67,1.68,2.51,2.81,4.16l-1.42,2.1-.62.92-.82,1.22L211,534.41c-1.73-.77-2.59-1.16-4.3-1.95l-3.56-1.68c-1.7-.82-2.55-1.24-4.23-2.09l2.61-3.87,7.25-10.74,1.11.55c-.29-.45-.44-.68-.72-1.13s-.41-.67-.68-1.12l.25-.38,2.36-3.5.23-.34.7,1.09,2.11-3.13,2.62-3.87c1.68.84,2.53,1.26,4.23,2.08,1.42.68,2.13,1,3.55,1.68C226.22,506.81,227.08,507.2,228.81,508Z"/><path d="M239.1,512.27c1.76.69,2.65,1,4.42,1.69l-2.61,3.88-6.37,9.45-.26.37-2.36,3.5-.23.34-6,8.91c-1.78-.67-2.66-1-4.43-1.7l7-10.43,1.36.53-.06-.07c-.33-.46-.5-.68-.84-1.14l-2.4-3.35-8.75,13c-1.75-.72-2.63-1.09-4.36-1.84l10.27-15.23.25-.37,2.36-3.5.23-.34c.85-1.25,1.27-1.88,2.11-3.13l2.62-3.87c1.73.75,2.6,1.11,4.35,1.83C236.9,511.39,237.63,511.69,239.1,512.27Zm-7.47,11.08c1.94-2.89,2.91-4.33,4.86-7.21-1.47-.58-2.2-.87-3.66-1.47l-3.6,5.33C230.18,521.35,230.66,522,231.63,523.35Z"/><path d="M363.78,513.38l3.4,5,.25.38,2.36,3.5.14.2.09.14c-.88,1.44-1.32,2.15-2.2,3.57s-1.33,2.1-2.22,3.48l3.6,5.34,1.38-.55,1.9-.76c1.57-.64,2.35-1,3.91-1.63L379,536c-1.56.67-2.35,1-3.92,1.63-1.3.53-2,.8-3.28,1.31-1.58.62-2.37.92-4,1.52-1.05-1.55-1.57-2.33-2.61-3.88l-2.09-3.09-.25-.37-2.36-3.5-.07-.11-.19-.27c1.82-2.72,2.72-4.1,4.5-6.91l-.48-.71-2-3-2.43-3.6c-1.31.53-2,.8-3.28,1.31.83,1.24,1.25,1.86,2.09,3.09.34.52.52.78.87,1.3-1.58.62-2.38.92-4,1.51l-.87-1.29-2.08-3.09-1.54-2.28L350,514c1.59-.59,2.39-.89,4-1.51l3.28-1.31c1.57-.64,2.35-1,3.91-1.63Z"/><path d="M376.71,507.47l12.61,18.7,2.61,3.87c-1.52.75-2.28,1.11-3.81,1.83-1.28.6-1.92.9-3.2,1.48-1.54.7-2.31,1-3.87,1.72l-2.61-3.87-12.61-18.7-2.61-3.87c1.55-.68,2.32-1,3.86-1.72,1.29-.59,1.93-.88,3.2-1.48,1.53-.72,2.3-1.09,3.81-1.83Zm8.8,20.53L372.9,509.3c-1.28.6-1.92.9-3.2,1.48l12.61,18.7Z"/><path d="M389.28,500.91c1.36,2,2,3,3.39,5l.26.37,2.36,3.5.14.21.09.13c-.8,1.59-1.2,2.37-2,3.94s-1.22,2.31-2,3.84c1.44,2.13,2.16,3.2,3.59,5.34l1.32-.69,1.8-1c1.49-.79,2.23-1.2,3.7-2l2.62,3.88c-1.48.82-2.22,1.22-3.71,2l-3.11,1.64c-1.5.78-2.25,1.16-3.77,1.92l-2.61-3.88-2.09-3.09-.25-.37-2.36-3.5-.07-.11-.18-.27c1.67-3,2.5-4.54,4.12-7.64l-.48-.71-2-3-2.43-3.6-3.11,1.64,2.08,3.09.87,1.3c-1.5.78-2.25,1.16-3.76,1.91l-.87-1.29-2.09-3.09-1.53-2.28-1.08-1.6c1.51-.75,2.26-1.14,3.76-1.91,1.25-.65,1.87-1,3.11-1.65,1.49-.79,2.23-1.2,3.71-2Z"/><path d="M401.48,493.69l3.39,5,.25.38,2.37,3.5.13.2.1.14c-.76,1.65-1.14,2.48-1.91,4.11s-1.15,2.42-1.93,4l3.6,5.33,1.27-.75,1.75-1c1.44-.87,2.16-1.32,3.59-2.21l2.61,3.87c-1.43.9-2.14,1.34-3.59,2.22-1.2.72-1.8,1.09-3,1.8-1.45.85-2.18,1.28-3.65,2.11l-2.61-3.88c-.84-1.23-1.25-1.85-2.09-3.09l-.25-.37c-.95-1.4-1.42-2.1-2.36-3.51l-.07-.1-.18-.27c1.59-3.16,2.37-4.76,3.92-8l-.49-.71c-.79-1.19-1.19-1.78-2-3l-2.43-3.6c-1.2.73-1.81,1.09-3,1.8L397,500.8l.87,1.29c-1.46.86-2.19,1.28-3.65,2.11l-.88-1.29-2.08-3.09-1.54-2.28-1.08-1.6c1.47-.83,2.2-1.25,3.66-2.11,1.21-.71,1.81-1.07,3-1.8,1.44-.87,2.16-1.32,3.59-2.21Z"/><path d="M419.48,492.41l2.62,3.87c-4.38,3.12-6.61,4.62-11.13,7.51l-2.62-3.87C412.88,497,415.11,495.52,419.48,492.41Z"/><path d="M425.81,476.49c1.36,2,2,3,3.39,5l.25.37,2.37,3.5.13.21.1.13c-.66,1.8-1,2.69-1.67,4.47s-1,2.63-1.69,4.36l3.6,5.34,1.19-.89,1.61-1.23c1.34-1,2-1.55,3.33-2.6l2.61,3.88c-1.32,1-2,1.56-3.32,2.59l-2.8,2.13c-1.35,1-2,1.51-3.4,2.5-1.05-1.55-1.57-2.33-2.61-3.88l-2.09-3.09-.25-.38-2.36-3.5-.07-.1-.19-.27c1.41-3.45,2.1-5.19,3.45-8.7l-.48-.72-2-2.95-2.44-3.61c-1.11.86-1.67,1.28-2.8,2.13.84,1.23,1.26,1.85,2.09,3.09l.87,1.29c-1.35,1-2,1.51-3.4,2.5-.34-.52-.52-.77-.87-1.29l-2.08-3.09-1.54-2.28-1.08-1.6c1.37-1,2.05-1.49,3.4-2.5,1.13-.84,1.69-1.27,2.8-2.12,1.34-1,2-1.55,3.33-2.6C424.24,474.16,424.76,474.94,425.81,476.49Z"/><path d="M436.68,467.38l12.61,18.69,2.62,3.88c-1.27,1.12-1.91,1.67-3.19,2.77-1.07.92-1.61,1.37-2.69,2.27-1.3,1.08-1.95,1.62-3.26,2.68l-2.62-3.88L427.54,475.1l-2.61-3.88c1.31-1.06,2-1.59,3.26-2.67,1.08-.9,1.62-1.36,2.69-2.27,1.28-1.1,1.92-1.66,3.19-2.78Zm9.42,21.47-12.6-18.7c-1.07.92-1.61,1.37-2.69,2.27l12.61,18.7C444.5,490.22,445,489.76,446.1,488.85Z"/><path d="M447.08,457.7l3.39,5,.25.37,2.37,3.5.13.21.1.13c-.56,1.92-.84,2.88-1.41,4.79s-.85,2.81-1.43,4.68l3.6,5.34,1.08-1c.6-.55.89-.83,1.49-1.4,1.22-1.16,1.83-1.75,3-2.94l2.61,3.88c-1.21,1.18-1.81,1.77-3,2.94-1,1-1.54,1.45-2.57,2.41-1.24,1.15-1.87,1.72-3.12,2.85L451,484.6l-2.08-3.1-.26-.37-2.36-3.5-.07-.1-.18-.28c1.21-3.7,1.8-5.57,2.94-9.34l-.48-.71-2-3-2.43-3.6-2.57,2.41,2.08,3.09.87,1.3c-1.24,1.15-1.86,1.72-3.12,2.85l-.87-1.3-2.09-3.09-1.53-2.28L435.73,462c1.26-1.13,1.88-1.7,3.12-2.85,1-1,1.55-1.44,2.57-2.42,1.23-1.16,1.84-1.75,3.05-2.94C445.51,455.37,446,456.15,447.08,457.7Z"/><path d="M454.36,443.58l2.62,3.88,2.1,3.12.23.34,2.25,3.33.11.17.26.38c-.26,1-.39,1.52-.66,2.53l2.08-.43.25.38.32.47,2,3,.23.34,3.4,5L472.2,470c-1.15,1.26-1.73,1.88-2.89,3.11-2.14,2.26-3.22,3.37-5.42,5.57l-2.62-3.88-2.08-3.09c1.2-1.2,1.79-1.8,3-3l2.09,3.1,2.44-2.55-4.42-6.56.89-.95,0,0-1.33.25-1.87.34-1.61.28-1.74-2.58.5-1.92c.24-.89.36-1.34.59-2.24l-3.6-5.34c-2.13,2.26-3.22,3.38-5.42,5.57-1-1.55-1.56-2.33-2.61-3.88,2.2-2.19,3.28-3.3,5.42-5.56C452.64,445.45,453.21,444.83,454.36,443.58Z"/></svg>