<svg width="800" height="600" xmlns="http://www.w3.org/2000/svg">
 <g id="Layer_1">
  <title>Layer 1</title>
  <path d="m329.39999,231.39999c0,-1 0.08075,-2.98453 1,-8c1.09662,-5.98309 1.76138,-12.04468 3,-18c1.67917,-8.07344 2.69446,-13.08264 5,-21c1.76828,-6.07233 1.82462,-10.06134 4,-16c1.85226,-5.05659 1.57971,-10.15688 4,-16c1.71143,-4.13171 3.52222,-8.38074 6,-11c3.43607,-3.63226 5.91754,-6.05664 8,-9c2.88785,-4.0817 3.69345,-5.4588 5,-6c0.92389,-0.38268 2.00751,-0.87782 3,-1c4.09222,-0.50378 6,-3 8,-3c0,0 1.03873,-0.48055 4,0c3.12143,0.50654 8.22272,2.72399 12,6c1.06836,0.92659 3.32367,2.52016 5,4c2.703,2.38617 4.14774,5.94341 6,11c1.08768,2.96933 3,6 4,10c1,4 0.83981,7.01291 1,8c0.50653,3.12144 3,6 3,9c0,3 1,7 1,10c0,3 0.49347,3.87856 1,7c0.32037,1.97418 1.11588,4.96384 2,8c1.15277,3.95868 0.23462,6.15224 1,8c0.5412,1.30656 0.69254,2.186 2,4c0.8269,1.14726 1,3 2,5c0,0 -0.30746,1.186 1,3c0.8269,1.14726 2,4 3,5c0,0 0,1 0,2c0,1 1.07611,1.61731 2,2c1.30655,0.5412 1.54916,2.95517 5,4c1.91418,0.57957 5,2 7,2c2,0 4,1 5,1c1,0 1,0 3,0c2,0 3.86829,-1.28859 8,-3c2.92157,-1.21014 6.24402,-2.16132 11,-4c5.43866,-2.10262 11.04132,-3.84723 15,-5c3.03616,-0.88414 4.03873,-1.51945 7,-2c3.12143,-0.50655 5.96384,-1.11586 9,-2c3.95868,-1.15277 7.90778,-1.49623 12,-2c4.96255,-0.61092 9.00003,0 12.00003,0c4,0 6,0 9,0c3,0 5,0 7,0c4,0 8,1 12,2c4,1 5.07843,1.78986 8,3c2.06586,0.85571 3.81268,2.2068 6,4c2.78833,2.28587 6,4 8,6c1,1 1.69257,2.186 3,4c1.65381,2.29454 3.49347,3.87856 4,7c0.16016,0.98709 0.77026,4.02675 1,5c0.51373,2.17625 1,5 2,8c0,0 0,1 0,2c0,2 0,2 0,3c0,1 0,2 0,3c0,0 -0.29291,1.29291 -1,2c-0.70709,0.70709 -0.29291,1.29291 -1,2c-1.41418,1.41422 -3.48627,0.82376 -4,3c-0.22974,0.97324 -1.61731,1.07611 -2,2c-1.0824,2.61313 -4,3 -6,3c-2,0 -4,1 -5,1c-1,0 -1.10699,-0.91901 -5,0c-4.35248,1.0275 -8.04132,1.84723 -12,3c-3.03619,0.88412 -5,1 -8,1c-2,0 -3.82373,1.48627 -6,2c-1.94647,0.4595 -4,1 -7,2c-3,1 -5,2 -10,4c-5.00003,2 -7.15228,2.23462 -9.00003,3c-1.30655,0.5412 -2,1 -3,2c-2,2 -4.90634,3.10339 -6,4c-2.78833,2.28589 -3.38687,3.9176 -6,5c-0.92389,0.38269 -0.5405,1.0535 -1,3c-0.51373,2.17624 -1,6 -1,9c0,1 -0.4595,5.0535 0,7c0.51373,2.17624 3.28857,5.86829 5,10c1.21014,2.92157 4.20682,6.81265 6,9c2.28589,2.78833 4.41885,5.41885 6,7c1.58115,1.58115 4.37201,3.38507 8.00003,6c2.29456,1.65381 4.20679,4.81265 6,7c2.28589,2.78833 3.38507,7.37201 6,11c1.65381,2.29453 2.84723,6.04132 4,10c0.88416,3.03616 2,8 3,11c1,3 1.15277,7.04132 0,11c-0.88416,3.03616 -2.54047,7.0535 -3,9c-0.51373,2.17624 -0.33746,3.31 -2,6c-1.487,2.40601 -3,5 -6,7c0,0 -4.02997,1.51126 -8,2c-4.09225,0.50378 -8.00003,2 -9.00003,2c-3,0 -7.22836,0.14804 -10,-1c-2.61313,-1.0824 -6.2771,-3.228 -10,-5c-4.51468,-2.14886 -10.77637,-5.40894 -16,-8c-4.82428,-2.39297 -9,-5 -13,-7c-4,-2 -8,-4 -11,-6c-3,-2 -5,-3 -7,-5c-2,-2 -4.79489,-6.22021 -8,-9c-3.77728,-3.276 -5.297,-5.61383 -8,-8c-1.67633,-1.47983 -4.22937,-3.33197 -8,-5c-3.29733,-1.45865 -5.186,-3.69254 -7,-5c-2.29453,-1.65381 -5.08026,-2.31073 -8,-3c-2.17624,-0.51373 -5,-2 -8,-2c-3,0 -5,0 -8,0c-3,0 -8.93796,0.49829 -15,1c-5.97955,0.49487 -11.90283,0.22421 -14,1c-3.867,1.43048 -6,3 -9,4c-3,1 -4.5387,2.60645 -7,4c-3.58792,2.03146 -6.6297,1.62488 -10,4c-2.94724,2.07697 -3.186,2.69254 -5,4c-2.29453,1.65381 -7,4 -9,5c-4,2 -7.12872,2.13065 -10,3c-3.45084,1.04483 -6,3 -10,3c-2,0 -7.02997,-0.48874 -11,0c-4.09222,0.50378 -9,1 -12,1c-4,0 -8,0 -11,0c-3,0 -6,0 -9,0c-3,0 -5,0 -8,0c-1,0 -5,0 -8,0c-1,0 -1.3851,-0.37201 -4,-4c-2.48071,-3.4418 -5.9176,-6.38687 -7,-9c-0.76537,-1.84775 -1.48625,-2.82376 -2,-5c-0.22975,-0.97324 0,-4 0,-6c0,-2 0,-5 0,-8c0,-2 0.48625,-3.82376 1,-6c0.4595,-1.9465 1.14429,-3.93414 2,-6c1.21014,-2.92157 3.33749,-5.31 5,-8c0.7435,-1.203 4.186,-2.69254 6,-4c2.29454,-1.65381 5.86829,-5.28857 10,-7c2.92157,-1.21014 4.14935,-2.47427 5,-3c1.90211,-1.17557 3.45049,-3.4505 6,-6c2.5495,-2.5495 3.82443,-3.0979 5,-5c1.57718,-2.55194 1.49347,-4.87857 2,-8c0.48056,-2.96127 0,-6 0,-8c0,-3 -1,-7 -2,-10c-1,-3 -2.28857,-5.86829 -4,-10c-1.21014,-2.92157 -4.37134,-5.74673 -7,-10c-2.35114,-3.80423 -5.72398,-9.22272 -9,-13c-3.70638,-4.2735 -6.81265,-8.2068 -9,-10c-2.78833,-2.28587 -6.64734,-3.04033 -10,-6c-2.703,-2.38617 -5.88152,-4.19028 -9,-6c-3.868,-2.24469 -8.88855,-5.19409 -14,-8c-3.9203,-2.15204 -9.31001,-4.33749 -12,-6c-3.60901,-2.23048 -6.88152,-5.19028 -10,-7c-3.868,-2.24469 -5,-4 -8,-5c-3,-1 -5.41885,-3.41885 -7,-5c-1.58115,-1.58115 -2.19028,-2.88152 -4,-6c-1.12234,-1.93399 -2.53493,-4.31076 -4,-6c-2.07193,-2.38896 -1.4588,-4.69344 -2,-6c-0.76537,-1.84776 0,-4 0,-5c0,0 0,-2 0,-3c0,-1 0.61731,-3.07613 1,-4c0.5412,-1.30656 2.41885,-3.41885 4,-5c1.58115,-1.58115 3.04291,-3.71022 4,-4c3.45085,-1.04483 5.87856,-3.49345 9,-4c3.94835,-0.64073 9,-1 12,-1c2,0 3,0 4,0c3,0 8.06081,-0.3593 15,1c8.09241,1.58521 13,4 14,4c2,0 3.5387,1.60643 6,3c3.58792,2.03145 7.95328,4.07193 11,6c4.92722,3.1181 7.88152,4.19028 11,6c1.93399,1.12234 3.70546,3.34619 6,5c1.814,1.30745 5.5582,4.51929 9,7c3.62799,2.6149 7.13202,3.75531 11,6c3.11847,1.80972 5,3 8,5c3,2 5.31,3.33749 8,5c2.40601,1.487 4.61105,2.92807 7,5c1.68924,1.46507 4.69345,3.4588 6,4c1.84775,0.76537 2.41528,1.18875 3,2c1.84903,2.56537 4.44806,0.42281 7,2c1.9021,1.17557 2,3 4,3c1,0 2.15225,0.23463 4,1c1.30655,0.5412 3,1 5,2c2,1 6,2 8,2c0,0 1,0 1,1l1,0l0,1" id="svg_1" stroke="#000" fill="none"/>
 </g>
</svg>