<?xml version="1.0" ?><!DOCTYPE svg  PUBLIC '-//W3C//DTD SVG 1.1//EN'  'http://www.w3.org/Graphics/SVG/1.1/DTD/svg11.dtd'><svg width="512px" height="512px" viewBox="0 0 512 512" enable-background="new 0 0 512 512" version="1.1" xml:space="preserve" xmlns="http://www.w3.org/2000/svg" xmlns:xlink="http://www.w3.org/1999/xlink"><g id="_x30_1"/><g id="_x30_2"/><g id="_x30_3"/><g id="_x30_4"/><g id="_x30_5"/><g id="_x30_6"/><g id="_x30_7"/><g id="_x30_8"/><g id="_x30_9"/><g id="_x31_0"/><g id="_x31_1"/><g id="_x31_2"/><g id="_x31_3"/><g id="_x31_4"/><g id="_x31_5"/><g id="_x31_6"/><g id="_x31_7"/><g id="_x31_8"/><g id="_x31_9"/><g id="_x32_0"/><g id="_x32_1"/><g id="_x32_2"/><g id="_x32_3"/><g id="_x32_4"/><g id="_x32_5"/><g id="_x32_6"/><g id="_x32_7"/><g id="_x32_8"/><g id="_x32_9"/><g id="_x33_0"/><g id="_x33_1"/><g id="_x33_2"/><g id="_x33_3"/><g id="_x33_4"/><g id="_x33_5"/><g id="_x33_6"/><g id="_x33_7"/><g id="_x33_8"/><g id="_x33_9"/><g id="_x34_0"/><g id="_x34_1"/><g id="_x34_2"/><g id="_x34_3"/><g id="_x34_4"/><g id="_x34_5"/><g id="_x34_6"/><g id="_x34_7"/><g id="_x34_8"/><g id="_x34_9"/><g id="_x35_0"><g><path d="    M262.501-151.602c-43.863,44.825-115.773,45.611-160.598,1.748c-44.853-43.864-45.64-115.777-1.776-160.603L262.501-151.602z" fill="none" stroke="#000000" stroke-linecap="round" stroke-linejoin="round" stroke-miterlimit="10" stroke-width="20.1478"/><path d="    M97.884-153.961L58.361-66.99h97.337l-28.251-64.019c-9.145-4.952-17.766-11.214-25.543-18.845    C100.506-151.194,99.195-152.563,97.884-153.961L97.884-153.961z" fill="none" stroke="#000000" stroke-linecap="round" stroke-linejoin="round" stroke-miterlimit="10" stroke-width="20.1478"/><line fill="none" stroke="#000000" stroke-linecap="round" stroke-linejoin="round" stroke-miterlimit="10" stroke-width="20.1478" x1="233.871" x2="186.833" y1="-285.437" y2="-237.32"/><path d="    M467.603-131.33c-33.377,34.078-88.046,34.689-122.151,1.311c-34.106-33.35-34.718-88.048-1.34-122.156L467.603-131.33z" fill="none" stroke="#000000" stroke-linecap="round" stroke-linejoin="round" stroke-miterlimit="10" stroke-width="20.1478"/><path d="    M342.393-133.136L312.335-66.99h74.037l-21.494-48.699c-6.961-3.757-13.515-8.535-19.427-14.33    C344.402-131.038,343.383-132.087,342.393-133.136L342.393-133.136z" fill="none" stroke="#000000" stroke-linecap="round" stroke-linejoin="round" stroke-miterlimit="10" stroke-width="20.1478"/><line fill="none" stroke="#000000" stroke-linecap="round" stroke-linejoin="round" stroke-miterlimit="10" stroke-width="20.1478" x1="445.817" x2="410.021" y1="-233.126" y2="-196.543"/><line fill="none" stroke="#000000" stroke-linecap="round" stroke-linejoin="round" stroke-miterlimit="10" stroke-width="20.1478" x1="122.524" x2="122.524" y1="-247.485" y2="-247.776"/><line fill="none" stroke="#000000" stroke-linecap="round" stroke-linejoin="round" stroke-miterlimit="10" stroke-width="20.1478" x1="150.048" x2="150.048" y1="-217.428" y2="-217.689"/><line fill="none" stroke="#000000" stroke-linecap="round" stroke-linejoin="round" stroke-miterlimit="10" stroke-width="20.1478" x1="178.271" x2="178.271" y1="-189.991" y2="-190.281"/><line fill="none" stroke="#000000" stroke-linecap="round" stroke-linejoin="round" stroke-miterlimit="10" stroke-width="20.1478" x1="204.367" x2="204.367" y1="-165.321" y2="-165.583"/><line fill="none" stroke="#000000" stroke-linecap="round" stroke-linejoin="round" stroke-miterlimit="10" stroke-width="20.1478" x1="368.023" x2="368.023" y1="-192.378" y2="-192.641"/><line fill="none" stroke="#000000" stroke-linecap="round" stroke-linejoin="round" stroke-miterlimit="10" stroke-width="20.1478" x1="400.119" x2="400.119" y1="-161.068" y2="-161.33"/><path d="    M409.294-369.029c28.863,0,52.397-23.534,52.397-52.398c0-28.864-23.534-52.398-52.397-52.398    c-28.864,0-52.426,23.534-52.426,52.398C356.868-392.563,380.43-369.029,409.294-369.029L409.294-369.029z" fill="none" stroke="#000000" stroke-linecap="round" stroke-linejoin="round" stroke-miterlimit="10" stroke-width="20.1478"/><line fill="none" stroke="#000000" stroke-linecap="round" stroke-linejoin="round" stroke-miterlimit="10" stroke-width="20.1478" x1="17.44" x2="496" y1="-67.369" y2="-66.612"/><line fill="none" stroke="#000000" stroke-linecap="round" stroke-linejoin="round" stroke-miterlimit="10" stroke-width="20.1478" x1="172.358" x2="172.358" y1="-457.398" y2="-457.66"/><line fill="none" stroke="#000000" stroke-linecap="round" stroke-linejoin="round" stroke-miterlimit="10" stroke-width="20.1478" x1="71.41" x2="71.41" y1="-458.417" y2="-458.709"/><line fill="none" stroke="#000000" stroke-linecap="round" stroke-linejoin="round" stroke-miterlimit="10" stroke-width="20.1478" x1="142.301" x2="142.301" y1="-391.893" y2="-392.155"/><line fill="none" stroke="#000000" stroke-linecap="round" stroke-linejoin="round" stroke-miterlimit="10" stroke-width="20.1478" x1="267.161" x2="267.161" y1="-479.737" y2="-480"/><line fill="none" stroke="#000000" stroke-linecap="round" stroke-linejoin="round" stroke-miterlimit="10" stroke-width="20.1478" x1="335.723" x2="335.723" y1="-321.757" y2="-322.02"/><line fill="none" stroke="#000000" stroke-linecap="round" stroke-linejoin="round" stroke-miterlimit="10" stroke-width="20.1478" x1="324.946" x2="244.793" y1="-454.573" y2="-365.185"/><line fill="none" stroke="#000000" stroke-linecap="round" stroke-linejoin="round" stroke-miterlimit="10" stroke-width="20.1478" x1="103.797" x2="52.915" y1="-432.233" y2="-373.66"/><line fill="none" stroke="#000000" stroke-linecap="round" stroke-linejoin="round" stroke-miterlimit="10" stroke-width="20.1478" x1="486.01" x2="452.108" y1="-338.214" y2="-301.223"/></g><g><path d="    M786.99-239.838c22.682,0,41.177-18.497,41.177-41.179c0-22.682-18.496-41.179-41.177-41.179    c-22.683,0-41.178,18.497-41.178,41.179C745.812-258.335,764.307-239.838,786.99-239.838L786.99-239.838z" fill="none" stroke="#000000" stroke-linecap="round" stroke-linejoin="round" stroke-miterlimit="10" stroke-width="20.1764"/><path d="    M624.682-190.465c15.141,0,27.492-12.351,27.492-27.492s-12.351-27.493-27.492-27.493c-15.17,0-27.521,12.351-27.521,27.493    S609.512-190.465,624.682-190.465L624.682-190.465z" fill="none" stroke="#000000" stroke-linecap="round" stroke-linejoin="round" stroke-miterlimit="10" stroke-width="20.1764"/><path d="    M704.307-422.694c15.141,0,27.492-12.351,27.492-27.493c0-15.142-12.351-27.492-27.492-27.492s-27.491,12.35-27.491,27.492    C676.815-435.045,689.166-422.694,704.307-422.694L704.307-422.694z" fill="none" stroke="#000000" stroke-linecap="round" stroke-linejoin="round" stroke-miterlimit="10" stroke-width="20.1764"/><path d="    M787.464-364.949c132.855,0,240.536,38.507,240.536,86.04c0,47.503-107.68,86.04-240.536,86.04    c-50.946,0-98.18-5.67-137.072-15.35c1.128-3.027,1.781-6.294,1.781-9.737c0-15.171-12.32-27.493-27.492-27.493    c-12.499,0-23.008,8.313-26.393,19.684c-32.183-14.607-51.391-33.073-51.391-53.144    C546.898-326.442,654.608-364.949,787.464-364.949L787.464-364.949z" fill="none" stroke="#000000" stroke-linecap="round" stroke-linejoin="round" stroke-miterlimit="10" stroke-width="20.1764"/><path d="    M731.412-445.614c40.525,12.647,90.877,57.359,130.48,120.449c56.765,90.375,70.006,184.222,29.6,209.577    c-40.405,25.384-119.199-27.314-175.934-117.688c-53.588-85.297-68.372-173.682-35.893-204.678    c4.513,9.056,13.834,15.261,24.641,15.261C717.904-422.694,729.215-432.611,731.412-445.614L731.412-445.614z" fill="none" stroke="#000000" stroke-linecap="round" stroke-linejoin="round" stroke-miterlimit="10" stroke-width="20.1764"/></g><g><path d="    M1282.941-125.173c77.058,0,139.925-62.869,139.925-139.928c0-77.059-62.867-139.899-139.925-139.899    c-77.057,0-139.894,62.84-139.894,139.899C1143.047-188.042,1205.884-125.173,1282.941-125.173L1282.941-125.173z" fill="none" stroke="#000000" stroke-linecap="round" stroke-linejoin="round" stroke-miterlimit="10" stroke-width="20.1764"/><path d="    M1407.209-331.231c89.13,7.609,152.321,26.617,152.321,48.856c0,8.284-8.754,16.128-24.384,23.091 M1466.697-240.894    c-40.364,6.846-90.981,10.929-145.946,10.929c-131.847,0-238.751-23.473-238.751-52.41c0-14.689,27.585-27.969,71.975-37.487" fill="none" stroke="#000000" stroke-linecap="round" stroke-linejoin="round" stroke-miterlimit="10" stroke-width="20.1764"/><path d="    M1501.187-209.987c17.567,0,31.875-14.308,31.875-31.876c0-17.539-14.308-31.875-31.875-31.875s-31.874,14.336-31.874,31.875    C1469.313-224.295,1483.619-209.987,1501.187-209.987L1501.187-209.987z" fill="none" stroke="#000000" stroke-linecap="round" stroke-linejoin="round" stroke-miterlimit="10" stroke-width="20.1764"/><path d="    M1399.864-190.01c-31.141,12.486-74.854,20.271-123.268,20.271c-38.955,0-74.883-5.023-103.615-13.514" fill="none" stroke="#000000" stroke-linecap="round" stroke-linejoin="round" stroke-miterlimit="10" stroke-width="20.1764"/><path d="    M1419.048-298.034c-31.259,15.688-80.348,25.794-135.549,25.794c-54.758,0-103.496-9.959-134.782-25.412" fill="none" stroke="#000000" stroke-linecap="round" stroke-linejoin="round" stroke-miterlimit="10" stroke-width="20.1764"/><path d="    M1364.581-376.65c-23.384,4.613-49.883,7.257-77.968,7.257c-30.522,0-59.166-3.114-83.959-8.52" fill="none" stroke="#000000" stroke-linecap="round" stroke-linejoin="round" stroke-miterlimit="10" stroke-width="20.1764"/></g><g><path d="    M1853.394-307.521c129.086,0,234.366-20.577,234.366-45.754c0-25.206-105.28-45.754-234.366-45.754    c-129.114,0-234.394,20.548-234.394,45.754C1619-328.098,1724.279-307.521,1853.394-307.521L1853.394-307.521z" fill="none" stroke="#000000" stroke-linecap="round" stroke-linejoin="round" stroke-miterlimit="10" stroke-width="20.1478"/><polygon fill="none" points="    1695.559,-46.799 1994.71,-46.799 1887.544,-253.507 1798.01,-253.507   " stroke="#000000" stroke-linecap="round" stroke-linejoin="round" stroke-miterlimit="10" stroke-width="20.1478"/><line fill="none" stroke="#000000" stroke-linecap="round" stroke-linejoin="round" stroke-miterlimit="10" stroke-width="20.1478" x1="1810.984" x2="1783.893" y1="-164.972" y2="-46.799"/><line fill="none" stroke="#000000" stroke-linecap="round" stroke-linejoin="round" stroke-miterlimit="10" stroke-width="20.1478" x1="1824.416" x2="1818.872" y1="-227.501" y2="-203.295"/><line fill="none" stroke="#000000" stroke-linecap="round" stroke-linejoin="round" stroke-miterlimit="10" stroke-width="20.1478" x1="1869.283" x2="1883.343" y1="-227.501" y2="-173.602"/><line fill="none" stroke="#000000" stroke-linecap="round" stroke-linejoin="round" stroke-miterlimit="10" stroke-width="20.1478" x1="1793.638" x2="1793.638" y1="-433.667" y2="-433.952"/><line fill="none" stroke="#000000" stroke-linecap="round" stroke-linejoin="round" stroke-miterlimit="10" stroke-width="20.1478" x1="1854.108" x2="1854.108" y1="-433.667" y2="-433.952"/><line fill="none" stroke="#000000" stroke-linecap="round" stroke-linejoin="round" stroke-miterlimit="10" stroke-width="20.1478" x1="1914.607" x2="1914.607" y1="-433.667" y2="-433.952"/><path d="    M1751.199-467.503h204.331v73.047c-30.864-3.887-65.528-6.059-102.137-6.059c-36.636,0-71.302,2.172-102.194,6.059V-467.503z" fill="none" stroke="#000000" stroke-linecap="round" stroke-linejoin="round" stroke-miterlimit="10" stroke-width="20.1478"/><path d="    M1853.565-512c30.949,0,57.612,18.205,69.9,44.497h-139.802C1795.953-493.795,1822.645-512,1853.565-512L1853.565-512z" fill="none" stroke="#000000" stroke-linecap="round" stroke-linejoin="round" stroke-miterlimit="10" stroke-width="20.1478"/><line fill="none" stroke="#000000" stroke-linecap="round" stroke-linejoin="round" stroke-miterlimit="10" stroke-width="20.1478" x1="1957.56" x2="1980.25" y1="-425.293" y2="-425.293"/><line fill="none" stroke="#000000" stroke-linecap="round" stroke-linejoin="round" stroke-miterlimit="10" stroke-width="20.1478" x1="1728.852" x2="1751.543" y1="-425.293" y2="-425.293"/><line fill="none" stroke="#000000" stroke-linecap="round" stroke-linejoin="round" stroke-miterlimit="10" stroke-width="20.1478" x1="1790.065" x2="1916.693" y1="-353.275" y2="-353.275"/><line fill="none" stroke="#000000" stroke-linecap="round" stroke-linejoin="round" stroke-miterlimit="10" stroke-width="20.1478" x1="1889.431" x2="1891.802" y1="-146.825" y2="-137.737"/></g><g><path d="    M2383.136-96.278c30.578,0,55.556-24.949,55.556-55.557c0-30.579-24.978-55.527-55.556-55.527    c-30.606,0-55.555,24.948-55.555,55.527C2327.581-121.227,2352.529-96.278,2383.136-96.278L2383.136-96.278z" fill="none" stroke="#000000" stroke-linecap="round" stroke-linejoin="round" stroke-miterlimit="10" stroke-width="20.1764"/><path d="    M2318.408-477L2318.408-477c14.631,0,26.634,11.975,26.634,26.635v82.306l0.086,75.533c-0.058,16.204,45.724,14.861,45.724,0.257    l-0.028-75.79h37.637v-26.807c0-12.403,10.146-22.548,22.548-22.548l0,0c12.403,0,22.548,10.146,22.548,22.548v28.55v0.114v29.979    v180.273c0,50.498-41.295,91.794-91.792,91.794l0,0c-50.496,0-91.819-41.296-91.819-91.794v-210.251l-0.058-84.364    C2289.887-465.197,2303.775-477,2318.408-477L2318.408-477z" fill="none" stroke="#000000" stroke-linecap="round" stroke-linejoin="round" stroke-miterlimit="10" stroke-width="20.1764"/><line fill="none" stroke="#000000" stroke-linecap="round" stroke-linejoin="round" stroke-miterlimit="10" stroke-width="20.1764" x1="2434.947" x2="2434.947" y1="-285.553" y2="-236.883"/><line fill="none" stroke="#000000" stroke-linecap="round" stroke-linejoin="round" stroke-miterlimit="10" stroke-width="20.1764" x1="2392.71" x2="2392.71" y1="-252.516" y2="-175.383"/><line fill="none" stroke="#000000" stroke-linecap="round" stroke-linejoin="round" stroke-miterlimit="10" stroke-width="20.1764" x1="2331.496" x2="2331.496" y1="-252.516" y2="-173.525"/><line fill="none" stroke="#000000" stroke-linecap="round" stroke-linejoin="round" stroke-miterlimit="10" stroke-width="20.1764" x1="2434.947" x2="2434.947" y1="-334.536" y2="-318.618"/><line fill="none" stroke="#000000" stroke-linecap="round" stroke-linejoin="round" stroke-miterlimit="10" stroke-width="20.1764" x1="2359.816" x2="2359.816" y1="-163.609" y2="-163.894"/><path d="    M2616.073-320.762v158.839c0,23.749-22.148,43.153-49.24,43.153l0,0c-27.091,0-49.239-19.404-49.239-43.153v-139.949v-0.057    v-65.645c0-8.573,8.002-15.604,17.805-15.604l0,0c9.802,0,17.832,7.03,17.832,15.604v37.581c-0.028,0.314-0.028,0.6-0.028,0.915    v65.645c0,8.573,7.001,15.604,15.604,15.604l0,0c8.573,0,15.604-7.03,15.604-15.604v-57.329    C2584.38-336.28,2616.073-336.166,2616.073-320.762L2616.073-320.762z" fill="none" stroke="#000000" stroke-linecap="round" stroke-linejoin="round" stroke-miterlimit="10" stroke-width="20.1764"/><path d="    M2565.776-151.492c9.859,0,17.89-8.059,17.89-17.918c0-9.86-8.03-17.891-17.89-17.891s-17.919,8.03-17.919,17.891    C2547.857-159.55,2555.917-151.492,2565.776-151.492L2565.776-151.492z" fill="none" stroke="#000000" stroke-linecap="round" stroke-linejoin="round" stroke-miterlimit="10" stroke-width="20.1764"/><path d="    M2245.135-393.751v150.18c0,22.462-20.977,40.81-46.582,40.81l0,0c-25.605,0-46.553-18.348-46.553-40.81v-132.347v-0.057v-62.072    c0-8.117,7.572-14.747,16.832-14.747l0,0c9.26,0,16.861,6.63,16.861,14.747v35.551c-0.029,0.286-0.029,0.572-0.029,0.857v62.072    c0,8.117,6.631,14.747,14.746,14.747l0,0c8.116,0,14.775-6.63,14.775-14.747v-54.185    C2215.156-408.469,2245.135-408.326,2245.135-393.751L2245.135-393.751z" fill="none" stroke="#000000" stroke-linecap="round" stroke-linejoin="round" stroke-miterlimit="10" stroke-width="20.1764"/><line fill="none" stroke="#000000" stroke-linecap="round" stroke-linejoin="round" stroke-miterlimit="10" stroke-width="20.1764" x1="2197.124" x2="2197.124" y1="-237.656" y2="-237.941"/><line fill="none" stroke="#000000" stroke-linecap="round" stroke-linejoin="round" stroke-miterlimit="10" stroke-width="20.1764" x1="2198.953" x2="2198.953" y1="-284.152" y2="-268.263"/><line fill="none" stroke="#000000" stroke-linecap="round" stroke-linejoin="round" stroke-miterlimit="10" stroke-width="20.1764" x1="2545.028" x2="2545.028" y1="-226.938" y2="-210.677"/><line fill="none" stroke="#000000" stroke-linecap="round" stroke-linejoin="round" stroke-miterlimit="10" stroke-width="20.1764" x1="2589.267" x2="2589.267" y1="-217.307" y2="-210.706"/></g><g><polygon fill="none" points="    2364.477,210.991 2407.942,284.037 2304.377,345.681 2260.91,272.606   " stroke="#000000" stroke-linecap="round" stroke-linejoin="round" stroke-miterlimit="10" stroke-width="20.1478"/><polygon fill="none" points="    2288.373,127.285 2327.439,192.958 2284.916,218.25 2245.85,152.605   " stroke="#000000" stroke-linecap="round" stroke-linejoin="round" stroke-miterlimit="10" stroke-width="20.1478"/><polygon fill="none" points="    2405.856,324.733 2444.922,390.406 2402.398,415.698 2363.333,350.054   " stroke="#000000" stroke-linecap="round" stroke-linejoin="round" stroke-miterlimit="10" stroke-width="20.1478"/><path d="    M2428.404,192.043l26.406,44.382c5.286,8.917,2.343,20.52-6.545,25.835l0,0c-8.916,5.287-20.519,2.343-25.834-6.573    l-26.406-44.382c-5.286-8.888-2.343-20.52,6.545-25.806l0,0C2411.486,180.183,2423.089,183.155,2428.404,192.043L2428.404,192.043    z" fill="none" stroke="#000000" stroke-linecap="round" stroke-linejoin="round" stroke-miterlimit="10" stroke-width="20.1478"/><line fill="none" stroke="#000000" stroke-linecap="round" stroke-linejoin="round" stroke-miterlimit="10" stroke-width="20.1478" x1="2307.578" x2="2325.182" y1="204.789" y2="234.368"/><line fill="none" stroke="#000000" stroke-linecap="round" stroke-linejoin="round" stroke-miterlimit="10" stroke-width="20.1478" x1="2368.648" x2="2385.967" y1="307.443" y2="336.564"/><path d="    M2370.791,482c121.627,0,220.792-99.195,220.792-220.797c0-121.63-99.165-220.797-220.792-220.797    c-121.598,0-220.791,99.167-220.791,220.797C2150,382.805,2249.193,482,2370.791,482L2370.791,482z" fill="none" stroke="#000000" stroke-linecap="round" stroke-linejoin="round" stroke-miterlimit="10" stroke-width="20.1478"/><path d="    M2539.286,61.268c130.828-74.104,88.505,26.378-71.616,126.832" fill="none" stroke="#000000" stroke-linecap="round" stroke-linejoin="round" stroke-miterlimit="10" stroke-width="20.1478"/></g><g><line fill="none" stroke="#000000" stroke-linecap="round" stroke-linejoin="round" stroke-miterlimit="10" stroke-width="20.1764" x1="1719.622" x2="1809.014" y1="372.869" y2="372.468"/><line fill="none" stroke="#000000" stroke-linecap="round" stroke-linejoin="round" stroke-miterlimit="10" stroke-width="20.1764" x1="1841.764" x2="1898.005" y1="361.066" y2="301.565"/><path d="    M1635.176,298.879c10.002,0,18.146-8.174,18.146-18.177c0-10.002-8.145-18.146-18.146-18.146c-10.03,0-18.176,8.145-18.176,18.146    C1617,290.706,1625.146,298.879,1635.176,298.879L1635.176,298.879z" fill="none" stroke="#000000" stroke-linecap="round" stroke-linejoin="round" stroke-miterlimit="10" stroke-width="20.1764"/><line fill="none" stroke="#000000" stroke-linecap="round" stroke-linejoin="round" stroke-miterlimit="10" stroke-width="20.1764" x1="1922.781" x2="1909.836" y1="131.724" y2="263.184"/><line fill="none" stroke="#000000" stroke-linecap="round" stroke-linejoin="round" stroke-miterlimit="10" stroke-width="20.1764" x1="1988.311" x2="1924.782" y1="184.336" y2="269.9"/><line fill="none" stroke="#000000" stroke-linecap="round" stroke-linejoin="round" stroke-miterlimit="10" stroke-width="20.1764" x1="2049.209" x2="1929.469" y1="270.672" y2="285.905"/><line fill="none" stroke="#000000" stroke-linecap="round" stroke-linejoin="round" stroke-miterlimit="10" stroke-width="20.1764" x1="1645.949" x2="1683.386" y1="298.679" y2="350.463"/><path d="    M1698.532,385.243c10.031,0,18.176-8.145,18.176-18.176c0-10.002-8.145-18.147-18.176-18.147    c-10.002,0-18.146,8.146-18.146,18.147C1680.386,377.098,1688.53,385.243,1698.532,385.243L1698.532,385.243z" fill="none" stroke="#000000" stroke-linecap="round" stroke-linejoin="round" stroke-miterlimit="10" stroke-width="20.1764"/><path d="    M1827.161,390.073c10.002,0,18.175-8.174,18.175-18.176c0-10.003-8.173-18.176-18.175-18.176    c-10.003,0-18.147,8.173-18.147,18.176C1809.014,381.899,1817.158,390.073,1827.161,390.073L1827.161,390.073z" fill="none" stroke="#000000" stroke-linecap="round" stroke-linejoin="round" stroke-miterlimit="10" stroke-width="20.1764"/><path d="    M1911.322,304.081c10.002,0,18.146-8.174,18.146-18.176c0-10.003-8.145-18.177-18.146-18.177    c-10.003,0-18.176,8.174-18.176,18.177C1893.146,295.907,1901.319,304.081,1911.322,304.081L1911.322,304.081z" fill="none" stroke="#000000" stroke-linecap="round" stroke-linejoin="round" stroke-miterlimit="10" stroke-width="20.1764"/><path d="    M2067.07,284.79c10.002,0,18.176-8.173,18.176-18.176c0-10.002-8.174-18.176-18.176-18.176s-18.146,8.174-18.146,18.176    C2048.924,276.617,2057.068,284.79,2067.07,284.79L2067.07,284.79z" fill="none" stroke="#000000" stroke-linecap="round" stroke-linejoin="round" stroke-miterlimit="10" stroke-width="20.1764"/><path d="    M2001.398,187.68c10.003,0,18.147-8.173,18.147-18.176s-8.145-18.176-18.147-18.176c-10.03,0-18.175,8.174-18.175,18.176    S1991.368,187.68,2001.398,187.68L2001.398,187.68z" fill="none" stroke="#000000" stroke-linecap="round" stroke-linejoin="round" stroke-miterlimit="10" stroke-width="20.1764"/><path d="    M1924.296,131.323c10.002,0,18.147-8.145,18.147-18.147c0-10.031-8.146-18.176-18.147-18.176s-18.175,8.145-18.175,18.176    C1906.121,123.179,1914.294,131.323,1924.296,131.323L1924.296,131.323z" fill="none" stroke="#000000" stroke-linecap="round" stroke-linejoin="round" stroke-miterlimit="10" stroke-width="20.1764"/></g><g><path d="    M1319.754,28C1439.18,28,1536,117.165,1536,227.192c0,96.166-101.707,259.864-214.361,259.864    c-111.081,0-218.133-163.841-218.133-259.864C1103.506,117.165,1200.327,28,1319.754,28L1319.754,28z" fill="none" stroke="#000000" stroke-linecap="round" stroke-linejoin="round" stroke-miterlimit="10" stroke-width="20.1764"/><path d="    M1246.566,197.441c32.179,27.292,49.268,59.987,38.18,73.076c-11.089,13.06-46.153,1.543-78.331-25.75    c-32.15-27.292-49.24-60.015-38.18-73.075C1179.323,158.604,1214.387,170.149,1246.566,197.441L1246.566,197.441z" fill="none" stroke="#000000" stroke-linecap="round" stroke-linejoin="round" stroke-miterlimit="10" stroke-width="20.1764"/><path d="    M1387.91,197.441c-32.178,27.292-49.268,59.987-38.18,73.076c11.09,13.06,46.154,1.543,78.303-25.75    c32.18-27.292,49.27-60.015,38.182-73.075C1455.125,158.604,1420.061,170.149,1387.91,197.441L1387.91,197.441z" fill="none" stroke="#000000" stroke-linecap="round" stroke-linejoin="round" stroke-miterlimit="10" stroke-width="20.1764"/><line fill="none" stroke="#000000" stroke-linecap="round" stroke-linejoin="round" stroke-miterlimit="10" stroke-width="20.1764" x1="1287.489" x2="1287.489" y1="346.107" y2="345.849"/><line fill="none" stroke="#000000" stroke-linecap="round" stroke-linejoin="round" stroke-miterlimit="10" stroke-width="20.1764" x1="1347.988" x2="1347.988" y1="346.107" y2="345.849"/></g><g><path d="    M715.502,111.011c39.38,9.459,82.647,26.006,125.885,49.298c126.284,67.96,204.673,167.584,175.124,222.512    c-16.29,30.265-61.928,40.639-120.741,32.522 M830.242,400.168c-30.864-9.745-63.385-23.435-95.907-40.953    c-126.256-67.96-204.673-167.584-175.096-222.512c16.775-31.151,64.671-41.239,126.028-31.722" fill="none" stroke="#000000" stroke-linecap="round" stroke-linejoin="round" stroke-miterlimit="10" stroke-width="20.1764"/><path d="    M655.232,229.583c-10.974-15.976-14.746-30.179-9.288-40.324c14.604-27.121,89.906-14.975,168.208,27.149    c26.406,14.204,49.754,30.007,68.559,45.754 M903.944,281.882c22.747,23.806,33.121,45.84,25.491,59.986    c-14.604,27.149-89.906,15.003-168.208-27.15c-37.637-20.262-69.129-43.782-90.048-65.759" fill="none" stroke="#000000" stroke-linecap="round" stroke-linejoin="round" stroke-miterlimit="10" stroke-width="20.1764"/><path d="    M799.578,243.472c12.231,6.573,16.804,21.777,10.23,33.98c-6.572,12.231-21.805,16.775-34.007,10.23    c-12.203-6.572-16.775-21.805-10.202-34.008C772.172,241.472,787.375,236.899,799.578,243.472L799.578,243.472z" fill="none" stroke="#000000" stroke-linecap="round" stroke-linejoin="round" stroke-miterlimit="10" stroke-width="20.1764"/><line fill="none" stroke="#000000" stroke-linecap="round" stroke-linejoin="round" stroke-miterlimit="10" stroke-width="20.1764" x1="860.763" x2="860.849" y1="409.313" y2="409.142"/></g><g><path d="    M258.187,265.202c66.157,0,120.111-53.956,120.111-120.115C378.298,78.956,324.344,25,258.187,25    c-66.129,0-120.084,53.956-120.084,120.087C138.103,211.246,192.057,265.202,258.187,265.202L258.187,265.202z" fill="none" stroke="#000000" stroke-linecap="round" stroke-linejoin="round" stroke-miterlimit="10" stroke-width="20.1764"/><path d="    M329.888,241.453c-20.005,14.918-44.81,23.749-71.701,23.749c-26.863,0-51.669-8.83-71.673-23.749    c21.376-4.772,45.781-7.516,71.702-7.516C284.106,233.937,308.512,236.681,329.888,241.453L329.888,241.453z" fill="none" stroke="#000000" stroke-linecap="round" stroke-linejoin="round" stroke-miterlimit="10" stroke-width="20.1764"/><path d="    M323.601,99.847c10.06,13.546,16.003,30.322,16.003,48.469c0,15.375-4.286,29.75-11.688,42.011H188.485    c-7.43-12.26-11.688-26.635-11.688-42.011c0-18.147,5.944-34.923,16.003-48.469H323.601z" fill="none" stroke="#000000" stroke-linecap="round" stroke-linejoin="round" stroke-miterlimit="10" stroke-width="20.1764"/><path d="    M212.719,131.455c-5.287,6.944-5.229,11.688-1.657,20.062" fill="none" stroke="#000000" stroke-linecap="round" stroke-linejoin="round" stroke-miterlimit="10" stroke-width="20.1764"/><path d="    M300.624,32.716c-10.517,12.203-26.12,19.948-43.495,19.948c-17.09,0-32.436-7.488-42.953-19.348    C227.808,27.944,242.668,25,258.187,25C273.132,25,287.421,27.744,300.624,32.716L300.624,32.716z" fill="none" stroke="#000000" stroke-linecap="round" stroke-linejoin="round" stroke-miterlimit="10" stroke-width="20.1764"/><path d="    M129.986,187.955h16.004c6.715,17.633,17.518,33.265,31.207,45.783c-4.258-3.858-8.202-8.031-11.86-12.489    c-22.748,1.429-43.667,9.831-60.699,23.063v-31.007C104.638,199.357,116.041,187.955,129.986,187.955L129.986,187.955z     M177.197,233.766c1.086,0.972,2.201,1.943,3.315,2.915C179.397,235.709,178.283,234.737,177.197,233.766L177.197,233.766z     M180.569,236.738c0.543,0.458,1.086,0.915,1.629,1.343C181.655,237.652,181.112,237.195,180.569,236.738L180.569,236.738z     M182.255,238.138c1.115,0.915,2.258,1.8,3.401,2.687C184.513,239.938,183.37,239.053,182.255,238.138L182.255,238.138z     M185.827,240.939c0.572,0.429,1.143,0.857,1.686,1.257C186.97,241.796,186.399,241.368,185.827,240.939L185.827,240.939z     M187.542,242.225c0.6,0.429,1.2,0.857,1.8,1.286C188.742,243.083,188.142,242.654,187.542,242.225L187.542,242.225z     M189.371,243.511c0.543,0.4,1.114,0.8,1.686,1.171C190.485,244.311,189.914,243.911,189.371,243.511L189.371,243.511z     M191.286,244.854c1.172,0.772,2.372,1.543,3.572,2.287C193.658,246.397,192.458,245.626,191.286,244.854L191.286,244.854z     M195.086,247.283c0.543,0.343,1.058,0.657,1.601,0.972C196.144,247.94,195.629,247.626,195.086,247.283L195.086,247.283z     M196.973,248.426c1.2,0.715,2.4,1.4,3.629,2.086C199.373,249.827,198.173,249.141,196.973,248.426L196.973,248.426z     M200.945,250.684c0.515,0.286,1.058,0.572,1.601,0.857C202.002,251.256,201.459,250.97,200.945,250.684L200.945,250.684z     M202.802,251.685c0.629,0.314,1.258,0.657,1.886,0.972C204.06,252.342,203.431,251.999,202.802,251.685L202.802,251.685z     M204.86,252.713c0.543,0.286,1.115,0.571,1.687,0.829C205.975,253.285,205.403,252.999,204.86,252.713L204.86,252.713z     M206.946,253.742c0.571,0.257,1.143,0.543,1.715,0.8C208.089,254.285,207.518,254,206.946,253.742L206.946,253.742z     M208.833,254.6c0.628,0.286,1.286,0.571,1.915,0.857C210.118,255.171,209.461,254.885,208.833,254.6L208.833,254.6z     M211.09,255.6c0.543,0.229,1.058,0.457,1.601,0.657C212.147,256.057,211.633,255.829,211.09,255.6L211.09,255.6z     M213.119,256.458c1.286,0.514,2.572,1,3.858,1.485C215.691,257.458,214.405,256.971,213.119,256.458L213.119,256.458z     M217.463,258.115c0.514,0.171,1.029,0.371,1.543,0.543C218.492,258.486,217.977,258.286,217.463,258.115L217.463,258.115z     M219.463,258.8c0.657,0.229,1.314,0.457,1.972,0.657C220.778,259.257,220.121,259.029,219.463,258.8L219.463,258.8z     M221.635,259.515c0.6,0.2,1.171,0.371,1.772,0.543C222.807,259.886,222.235,259.715,221.635,259.515L221.635,259.515z     M223.95,260.229c0.543,0.172,1.086,0.314,1.629,0.486C225.036,260.543,224.493,260.401,223.95,260.229L223.95,260.229z     M225.95,260.801c0.658,0.2,1.315,0.371,2,0.543C227.265,261.172,226.608,261.001,225.95,260.801L225.95,260.801z     M228.379,261.458c0.543,0.143,1.058,0.257,1.601,0.399C229.437,261.715,228.922,261.601,228.379,261.458L228.379,261.458z     M230.551,262.001c0.6,0.143,1.2,0.285,1.801,0.399C231.751,262.287,231.151,262.144,230.551,262.001L230.551,262.001z     M232.581,262.458c0.686,0.143,1.343,0.286,2.029,0.429C233.924,262.745,233.266,262.601,232.581,262.458L232.581,262.458z     M235.152,262.973c0.543,0.114,1.058,0.2,1.572,0.314C236.21,263.173,235.695,263.087,235.152,262.973L235.152,262.973z     M237.296,263.373c0.686,0.115,1.372,0.229,2.058,0.344C238.667,263.602,237.981,263.488,237.296,263.373L237.296,263.373z     M239.525,263.745c0.628,0.114,1.257,0.2,1.886,0.286C240.782,263.945,240.153,263.859,239.525,263.745L239.525,263.745z     M242.011,264.116c0.543,0.058,1.086,0.144,1.657,0.2C243.097,264.259,242.554,264.173,242.011,264.116L242.011,264.116z     M244.154,264.374c0.686,0.086,1.372,0.171,2.086,0.229C245.526,264.544,244.84,264.459,244.154,264.374L244.154,264.374z     M246.641,264.63c0.572,0.058,1.143,0.114,1.743,0.172C247.784,264.745,247.212,264.688,246.641,264.63L246.641,264.63z     M248.984,264.831c0.6,0.057,1.2,0.086,1.8,0.143C250.184,264.917,249.584,264.887,248.984,264.831L248.984,264.831z     M251.127,265.002c0.686,0.028,1.4,0.057,2.115,0.085C252.528,265.059,251.813,265.031,251.127,265.002L251.127,265.002z     M253.813,265.117c0.543,0.028,1.086,0.028,1.629,0.057C254.899,265.145,254.356,265.145,253.813,265.117L253.813,265.117z     M256.042,265.173c0.714,0,1.429,0.028,2.144,0.028c0.714,0,1.429-0.028,2.143-0.028c-0.714,0-1.429,0.028-2.143,0.028    C257.472,265.202,256.757,265.173,256.042,265.173L256.042,265.173z M260.958,265.173c0.543-0.028,1.086-0.028,1.629-0.057    C262.044,265.145,261.501,265.145,260.958,265.173L260.958,265.173z M263.158,265.087c0.715-0.028,1.43-0.057,2.115-0.085    C264.588,265.031,263.873,265.059,263.158,265.087L263.158,265.087z M265.616,264.973c0.601-0.028,1.2-0.086,1.801-0.143    C266.816,264.887,266.217,264.945,265.616,264.973L265.616,264.973z M268.017,264.802c0.571-0.058,1.144-0.114,1.743-0.172    C269.16,264.688,268.588,264.745,268.017,264.802L268.017,264.802z M270.16,264.602c0.686-0.058,1.4-0.143,2.086-0.229    C271.561,264.459,270.846,264.544,270.16,264.602L270.16,264.602z M272.761,264.316c0.543-0.057,1.086-0.143,1.629-0.2    C273.847,264.173,273.304,264.259,272.761,264.316L272.761,264.316z M274.961,264.031c0.657-0.086,1.314-0.2,1.972-0.286    C276.275,263.831,275.618,263.945,274.961,264.031L274.961,264.031z M277.047,263.716c0.687-0.114,1.372-0.229,2.058-0.344    C278.419,263.488,277.733,263.602,277.047,263.716L277.047,263.716z M279.647,263.288c0.515-0.114,1.058-0.2,1.601-0.314    C280.705,263.087,280.162,263.173,279.647,263.288L279.647,263.288z M281.791,262.887c0.687-0.143,1.344-0.286,2.029-0.429    C283.135,262.601,282.478,262.745,281.791,262.887L281.791,262.887z M284.021,262.401c0.6-0.114,1.2-0.257,1.829-0.399    C285.221,262.144,284.62,262.287,284.021,262.401L284.021,262.401z M286.421,261.858c0.543-0.143,1.086-0.257,1.629-0.399    C287.507,261.601,286.964,261.715,286.421,261.858L286.421,261.858z M288.45,261.344c0.657-0.172,1.314-0.343,2-0.543    C289.765,261.001,289.107,261.172,288.45,261.344L288.45,261.344z M290.821,260.715c0.543-0.172,1.087-0.314,1.63-0.486    C291.908,260.401,291.364,260.543,290.821,260.715L290.821,260.715z M292.994,260.086c0.6-0.2,1.2-0.371,1.8-0.571    C294.194,259.715,293.594,259.886,292.994,260.086L292.994,260.086z M294.937,259.458c0.687-0.2,1.344-0.429,2.001-0.657    C296.28,259.029,295.623,259.257,294.937,259.458L294.937,259.458z M297.338,258.658c0.543-0.172,1.086-0.372,1.6-0.543    C298.424,258.286,297.881,258.486,297.338,258.658L297.338,258.658z M299.396,257.943c1.314-0.485,2.601-0.972,3.886-1.485    C301.996,256.971,300.71,257.458,299.396,257.943L299.396,257.943z M303.682,256.286c0.571-0.229,1.114-0.457,1.657-0.715    C304.796,255.829,304.253,256.057,303.682,256.286L303.682,256.286z M305.625,255.457c0.657-0.257,1.286-0.543,1.943-0.857    C306.911,254.914,306.282,255.2,305.625,255.457L305.625,255.457z M307.711,254.542c0.572-0.257,1.172-0.543,1.772-0.829    C308.883,254,308.283,254.285,307.711,254.542L307.711,254.542z M309.826,253.571c0.6-0.286,1.172-0.572,1.771-0.886    C310.998,252.999,310.426,253.285,309.826,253.571L309.826,253.571z M311.684,252.656c0.657-0.314,1.286-0.657,1.915-0.972    C312.97,251.999,312.341,252.342,311.684,252.656L311.684,252.656z M313.798,251.57c0.572-0.314,1.144-0.6,1.715-0.915    C314.941,250.97,314.37,251.256,313.798,251.57L313.798,251.57z M315.741,250.513c1.258-0.657,2.486-1.372,3.716-2.115    C318.228,249.141,316.999,249.855,315.741,250.513L315.741,250.513z M319.686,248.284c0.543-0.343,1.114-0.686,1.686-1.029    C320.8,247.598,320.229,247.94,319.686,248.284L319.686,248.284z M321.515,247.169c1.229-0.771,2.429-1.543,3.629-2.343    C323.943,245.626,322.743,246.397,321.515,247.169L321.515,247.169z M325.286,244.711c1.801-1.229,3.572-2.486,5.315-3.801    C328.858,242.225,327.087,243.482,325.286,244.711L325.286,244.711z M330.688,240.853c17.747-13.46,31.636-31.75,39.723-52.898    h16.004c13.917,0,25.349,11.403,25.349,25.349v31.579c-16.976-13.432-37.923-22.005-60.728-23.577    C345.033,228.593,338.203,235.138,330.688,240.853L330.688,240.853z" fill="none" stroke="#000000" stroke-linecap="round" stroke-linejoin="round" stroke-miterlimit="10" stroke-width="20.1764"/><path d="    M351.035,221.306C408.333,225.278,454,273.404,454,331.675v158.354H61.686V331.675c0-58.5,46.01-106.769,103.651-110.427    c22.034,26.835,55.441,43.953,92.85,43.953C295.595,265.202,329.002,248.112,351.035,221.306L351.035,221.306z" fill="none" stroke="#000000" stroke-linecap="round" stroke-linejoin="round" stroke-miterlimit="10" stroke-width="20.1764"/><path d="    M61.686,350.566v-18.891c0-13.003,2.286-25.521,6.458-37.151h34.865v56.042H61.686z" fill="none" stroke="#000000" stroke-linecap="round" stroke-linejoin="round" stroke-miterlimit="10" stroke-width="20.1764"/><rect fill="none" height="89.394" stroke="#000000" stroke-linecap="round" stroke-linejoin="round" stroke-miterlimit="10" stroke-width="20.1764" width="168.123" x="174.11" y="345.022"/><line fill="none" stroke="#000000" stroke-linecap="round" stroke-linejoin="round" stroke-miterlimit="10" stroke-width="20.1764" x1="174.11" x2="342.233" y1="375.915" y2="375.915"/><line fill="none" stroke="#000000" stroke-linecap="round" stroke-linejoin="round" stroke-miterlimit="10" stroke-width="20.1764" x1="297.194" x2="297.194" y1="398.606" y2="398.377"/><line fill="none" stroke="#000000" stroke-linecap="round" stroke-linejoin="round" stroke-miterlimit="10" stroke-width="20.1764" x1="174.11" x2="258.157" y1="402.607" y2="402.607"/><line fill="none" stroke="#000000" stroke-linecap="round" stroke-linejoin="round" stroke-miterlimit="10" stroke-width="20.1764" x1="133.959" x2="133.959" y1="382.602" y2="485.742"/><line fill="none" stroke="#000000" stroke-linecap="round" stroke-linejoin="round" stroke-miterlimit="10" stroke-width="20.1764" x1="383.042" x2="383.042" y1="382.602" y2="487.057"/></g><g><path d="    M255.763,1013c123.228,0,223.764-100.539,223.764-223.769c0-123.259-100.536-223.77-223.764-223.77    C132.508,565.462,32,665.972,32,789.231C32,912.461,132.508,1013,255.763,1013L255.763,1013z" fill="none" stroke="#000000" stroke-linecap="round" stroke-linejoin="round" stroke-miterlimit="10" stroke-width="20.1764"/><path d="    M412.254,629.306c41.495,40.61,67.272,97.252,67.272,159.925c0,0.942-0.029,1.886-0.058,2.857    c-0.285,12.604-2.429,33.694-6.229,49.898c-0.2,0.886-0.429,1.8-0.657,2.686l0,0l-80.618-16.518    c16.946,46.183,10.06,71.646-22.69,74.59c-34.607-3.001-69.187-20.806-103.794-58.386c-16.747,40.267-48.097,33.522-50.269,77.019    L225.757,1011l-0.029-0.028c-4.058-0.543-8.087-1.2-12.088-1.943l-0.686-0.144c-5.287-1.028-10.488-2.229-15.604-3.601l-0.657-0.2    c-5.144-1.4-10.203-2.972-15.204-4.715l-0.543-0.2c-5.001-1.772-9.945-3.744-14.774-5.858l-0.458-0.2    c-4.858-2.115-9.63-4.43-14.289-6.888l-0.372-0.2c-4.687-2.486-9.288-5.144-13.774-7.944l-0.257-0.172    c-4.487-2.829-8.888-5.802-13.174-8.945l-0.2-0.143c-4.315-3.144-8.516-6.459-12.574-9.917l-0.085-0.057    c-33.865-28.75-59.042-67.417-71.073-111.514h-0.029l71.559-62.358c47.553-12.146,59.442,14.889,89.191-9.717    c16.632-35.552-0.714-92.823-38.923-90.793l-58.384,16.204l-34.865-34.894c3.943-6.001,8.145-11.832,12.631-17.404l0.058-0.086    c1.314-1.629,2.629-3.229,3.972-4.801l0.143-0.171c0.886-1.029,1.772-2.058,2.687-3.086l0.372-0.429    c1.2-1.343,2.4-2.687,3.629-4.001c0.2-0.2,0.372-0.4,0.571-0.6c0.857-0.915,1.743-1.829,2.601-2.744    c0.286-0.286,0.543-0.543,0.8-0.8c1.029-1.029,2.029-2.058,3.058-3.086c0.4-0.372,0.8-0.743,1.172-1.143    c0.829-0.8,1.658-1.572,2.486-2.343c0.457-0.429,0.886-0.857,1.343-1.257c0.771-0.715,1.543-1.429,2.314-2.115    c0.629-0.571,1.286-1.143,1.915-1.686c0.743-0.686,1.515-1.314,2.257-1.972c0.657-0.543,1.286-1.086,1.915-1.629    c0.628-0.515,1.286-1.058,1.915-1.572c0.743-0.629,1.515-1.229,2.286-1.829c0.686-0.543,1.372-1.086,2.058-1.629    c0.829-0.658,1.686-1.315,2.543-1.943c0.486-0.372,1-0.743,1.486-1.115c0.886-0.657,1.772-1.314,2.658-1.943    c0.601-0.429,1.172-0.829,1.772-1.257c0.972-0.686,1.943-1.343,2.915-2.029c0.457-0.286,0.915-0.6,1.343-0.886    c1-0.686,2-1.343,3-1.972c0.514-0.343,1.029-0.657,1.543-1c1.058-0.686,2.144-1.372,3.258-2.029    c0.4-0.257,0.829-0.514,1.229-0.743c1.086-0.657,2.201-1.315,3.287-1.943c0.429-0.257,0.857-0.515,1.286-0.743    c1.2-0.686,2.429-1.372,3.629-2.058c0.371-0.171,0.743-0.372,1.086-0.572c1.2-0.628,2.4-1.286,3.601-1.886    c0.372-0.2,0.714-0.371,1.057-0.543c1.315-0.686,2.629-1.343,3.944-1.972c0.343-0.171,0.686-0.314,1.029-0.486    c1.257-0.6,2.543-1.2,3.83-1.8c0.286-0.114,0.571-0.257,0.886-0.4c1.372-0.628,2.772-1.229,4.201-1.829    c0.314-0.143,0.628-0.286,0.972-0.429c1.314-0.543,2.658-1.086,3.972-1.6c0.286-0.114,0.543-0.229,0.829-0.343    c25.663,17.833,46.811,43.811,55.813,91.623c29.178-3.258,50.468-43.354,82.36-21.348    C346.297,670.173,380.991,650.197,412.254,629.306L412.254,629.306z" fill="none" stroke="#000000" stroke-linecap="round" stroke-linejoin="round" stroke-miterlimit="10" stroke-width="20.1764"/></g><g><path d="    M790.5,616.109L790.5,616.109c77.218,0,140.402,63.187,140.402,140.435v108.913c0,13.718-2,27.007-5.715,39.581l9.059,2.144    c31.149,7.373,50.583,38.924,43.181,70.046l0,0c-7.401,31.15-38.923,50.584-70.072,43.21l-47.896-11.374    c-8.573-2.029-16.261-5.916-22.719-11.088c-14.518,5.115-30.063,7.887-46.239,7.887l0,0c-15.917,0-31.207-2.686-45.495-7.602    c-6.401,5.03-13.975,8.803-22.405,10.803l-47.896,11.374c-31.15,7.374-62.671-12.06-70.073-43.21l0,0    c-7.373-31.122,12.06-62.673,43.181-70.046l8.059-1.915c-3.772-12.632-5.801-26.007-5.801-39.81V756.544    C650.069,679.296,713.254,616.109,790.5,616.109L790.5,616.109z" fill="none" stroke="#000000" stroke-linecap="round" stroke-linejoin="round" stroke-miterlimit="10" stroke-width="20.1764"/><path d="    M791.585,836.563c34.979,0,63.5-28.521,63.5-63.501c0-34.951-28.521-63.473-63.5-63.473c-34.95,0-63.471,28.521-63.471,63.473    C728.115,808.042,756.635,836.563,791.585,836.563L791.585,836.563z" fill="none" stroke="#000000" stroke-linecap="round" stroke-linejoin="round" stroke-miterlimit="10" stroke-width="20.1764"/><path d="    M791.585,799.526c14.575,0,26.463-11.889,26.463-26.464c0-14.546-11.888-26.435-26.463-26.435    c-14.574,0-26.434,11.889-26.434,26.435C765.151,787.637,777.011,799.526,791.585,799.526L791.585,799.526z" fill="none" stroke="#000000" stroke-linecap="round" stroke-linejoin="round" stroke-miterlimit="10" stroke-width="20.1764"/><path d="    M719.284,693.271c47.925-30.464,95.821-28.292,143.746,0" fill="none" stroke="#000000" stroke-linecap="round" stroke-linejoin="round" stroke-miterlimit="10" stroke-width="20.1764"/><line fill="none" stroke="#000000" stroke-linecap="round" stroke-linejoin="round" stroke-miterlimit="10" stroke-width="20.1764" x1="691.078" x2="691.078" y1="602.22" y2="653.604"/><path d="    M692.65,600.791c12.631,0,22.948-10.288,22.948-22.92c0-12.631-10.316-22.92-22.948-22.92c-12.603,0-22.919,10.289-22.919,22.92    C669.73,590.503,680.047,600.791,692.65,600.791L692.65,600.791z" fill="none" stroke="#000000" stroke-linecap="round" stroke-linejoin="round" stroke-miterlimit="10" stroke-width="20.1764"/><line fill="none" stroke="#000000" stroke-linecap="round" stroke-linejoin="round" stroke-miterlimit="10" stroke-width="20.1764" x1="890.951" x2="890.951" y1="602.22" y2="653.604"/><path d="    M892.522,600.791c12.632,0,22.948-10.288,22.948-22.92c0-12.631-10.316-22.92-22.948-22.92c-12.603,0-22.919,10.289-22.919,22.92    C869.603,590.503,879.919,600.791,892.522,600.791L892.522,600.791z" fill="none" stroke="#000000" stroke-linecap="round" stroke-linejoin="round" stroke-miterlimit="10" stroke-width="20.1764"/><path d="    M846.626,874.087v1.743c0,31.465-25.748,57.242-57.212,57.242l0,0c-31.493,0-57.241-25.777-57.241-57.242v-1.743H846.626z" fill="none" stroke="#000000" stroke-linecap="round" stroke-linejoin="round" stroke-miterlimit="10" stroke-width="20.1764"/></g><g><path d="    M1312.998,557h35.809c25.262,0,45.895,20.663,45.895,45.897v215.91l-2.457-3.429h-43.953v52.813h-35.293    c-0.6,0-1.199-0.028-1.771-0.057v-52.756h-43.953l-0.171,0.257V602.897C1267.103,577.663,1287.764,557,1312.998,557L1312.998,557z    " fill="none" stroke="#000000" stroke-linecap="round" stroke-linejoin="round" stroke-miterlimit="10" stroke-width="20.1764"/><path d="    M1304.053,629.761h54.269c3.086,0,5.602,2.515,5.602,5.602v24.063c0,3.058-2.516,5.602-5.602,5.602h-54.269    c-3.086,0-5.601-2.543-5.601-5.602v-24.063C1298.452,632.276,1300.967,629.761,1304.053,629.761L1304.053,629.761z" fill="none" stroke="#000000" stroke-linecap="round" stroke-linejoin="round" stroke-miterlimit="10" stroke-width="20.1764"/><polygon fill="none" points="    1206.518,899.884 1267.274,815.378 1311.227,815.378 1311.227,899.884   " stroke="#000000" stroke-linecap="round" stroke-linejoin="round" stroke-miterlimit="10" stroke-width="20.1764"/><polygon fill="none" points="    1453,899.884 1392.244,815.378 1348.291,815.378 1348.291,899.884   " stroke="#000000" stroke-linecap="round" stroke-linejoin="round" stroke-miterlimit="10" stroke-width="20.1764"/><line fill="none" stroke="#000000" stroke-linecap="round" stroke-linejoin="round" stroke-miterlimit="10" stroke-width="20.1764" x1="1330.916" x2="1330.717" y1="725.584" y2="778.769"/><line fill="none" stroke="#000000" stroke-linecap="round" stroke-linejoin="round" stroke-miterlimit="10" stroke-width="20.1764" x1="1259.043" x2="1259.043" y1="923.347" y2="994.994"/><line fill="none" stroke="#000000" stroke-linecap="round" stroke-linejoin="round" stroke-miterlimit="10" stroke-width="20.1764" x1="1333.688" x2="1333.688" y1="923.347" y2="981.276"/><line fill="none" stroke="#000000" stroke-linecap="round" stroke-linejoin="round" stroke-miterlimit="10" stroke-width="20.1764" x1="1333.688" x2="1333.688" y1="1009.912" y2="1023.916"/><line fill="none" stroke="#000000" stroke-linecap="round" stroke-linejoin="round" stroke-miterlimit="10" stroke-width="20.1764" x1="1408.305" x2="1408.305" y1="923.347" y2="994.994"/><line fill="none" stroke="#000000" stroke-linecap="round" stroke-linejoin="round" stroke-miterlimit="10" stroke-width="20.1764" x1="1296.366" x2="1296.366" y1="923.347" y2="931.378"/><line fill="none" stroke="#000000" stroke-linecap="round" stroke-linejoin="round" stroke-miterlimit="10" stroke-width="20.1764" x1="1296.366" x2="1296.366" y1="960.671" y2="1012.426"/><line fill="none" stroke="#000000" stroke-linecap="round" stroke-linejoin="round" stroke-miterlimit="10" stroke-width="20.1764" x1="1267.103" x2="1394.701" y1="691.919" y2="691.919"/><line fill="none" stroke="#000000" stroke-linecap="round" stroke-linejoin="round" stroke-miterlimit="10" stroke-width="20.1764" x1="1366.953" x2="1366.953" y1="923.347" y2="931.378"/><line fill="none" stroke="#000000" stroke-linecap="round" stroke-linejoin="round" stroke-miterlimit="10" stroke-width="20.1764" x1="1366.953" x2="1366.953" y1="960.671" y2="1012.426"/></g><g><path d="    M1970.128,554.896L1970.128,554.896c8.001-4.229,17.975-1.143,22.204,6.859l44.41,84.049c4.201,7.974,1.114,17.976-6.858,22.206    l0,0c-8.002,4.201-17.976,1.143-22.205-6.859l-44.41-84.049C1959.068,569.1,1962.154,559.126,1970.128,554.896L1970.128,554.896z" fill="none" stroke="#000000" stroke-linecap="round" stroke-linejoin="round" stroke-miterlimit="10" stroke-width="20.1478"/><polygon fill="none" points="    1720.673,725.824 1963.269,577.102 2007.679,661.151 1748.078,777.723   " stroke="#000000" stroke-linecap="round" stroke-linejoin="round" stroke-miterlimit="10" stroke-width="20.1478"/><path d="    M1689.523,756.718l37.094-19.605l16.604,31.408l-37.123,19.605c-0.027-0.114-0.085-0.2-0.143-0.286L1689.523,756.718z" fill="none" stroke="#000000" stroke-linecap="round" stroke-linejoin="round" stroke-miterlimit="10" stroke-width="20.1478"/><path d="    M1670.49,750.859L1670.49,750.859c6.859-3.629,15.403-1,19.033,5.859l16.432,31.122c3.629,6.859,1,15.433-5.858,19.033l0,0    c-6.858,3.63-15.403,0.972-19.032-5.858l-16.433-31.15C1661.002,763.034,1663.632,754.46,1670.49,750.859L1670.49,750.859z" fill="none" stroke="#000000" stroke-linecap="round" stroke-linejoin="round" stroke-miterlimit="10" stroke-width="20.1478"/><rect fill="none" height="34.551" stroke="#000000" stroke-linecap="round" stroke-linejoin="round" stroke-miterlimit="10" stroke-width="20.1478" width="61.699" x="1844.1" y="774.036"/><polyline fill="none" points="    1819.408,1020.811 1874.936,808.587 1926.775,1022.041   " stroke="#000000" stroke-linecap="round" stroke-linejoin="round" stroke-miterlimit="10" stroke-width="20.1478"/><line fill="none" stroke="#000000" stroke-linecap="round" stroke-linejoin="round" stroke-miterlimit="10" stroke-width="20.1478" x1="1874.649" x2="1874.649" y1="1026.356" y2="819.047"/><line fill="none" stroke="#000000" stroke-linecap="round" stroke-linejoin="round" stroke-miterlimit="10" stroke-width="20.1478" x1="1874.649" x2="1874.649" y1="769.435" y2="726.91"/></g><g><path d="    M2385.079,695.991c71.759,0,129.914,58.157,129.914,129.889c0,40.725-18.747,77.048-48.039,100.854    c14.089-17.347,22.548-39.467,22.548-63.559c0-55.671-45.124-100.825-100.793-100.825c-55.698,0-100.822,45.154-100.822,100.825    c0,31.122,14.117,58.957,36.265,77.448c-41.009-21.834-68.957-65.017-68.957-114.743    C2255.194,754.148,2313.349,695.991,2385.079,695.991L2385.079,695.991z" fill="none" stroke="#000000" stroke-linecap="round" stroke-linejoin="round" stroke-miterlimit="10" stroke-width="20.1478"/><path d="    M2388.709,964c55.526,0,100.793-45.297,100.793-100.825c0-55.527-45.267-100.825-100.793-100.825s-100.822,45.297-100.822,100.825    C2287.887,918.703,2333.183,964,2388.709,964L2388.709,964z" fill="none" stroke="#000000" stroke-linecap="round" stroke-linejoin="round" stroke-miterlimit="10" stroke-width="20.1478"/><line fill="none" stroke="#000000" stroke-linecap="round" stroke-linejoin="round" stroke-miterlimit="10" stroke-width="20.1478" x1="2335.011" x2="2486.759" y1="786.642" y2="839.684"/><line fill="none" stroke="#000000" stroke-linecap="round" stroke-linejoin="round" stroke-miterlimit="10" stroke-width="20.1478" x1="2296.574" x2="2486.587" y1="822.137" y2="887.409"/><line fill="none" stroke="#000000" stroke-linecap="round" stroke-linejoin="round" stroke-miterlimit="10" stroke-width="20.1478" x1="2289.173" x2="2456.523" y1="879.293" y2="937.765"/><line fill="none" stroke="#000000" stroke-linecap="round" stroke-linejoin="round" stroke-miterlimit="10" stroke-width="20.1478" x1="2212.527" x2="2153" y1="818.106" y2="818.106"/><line fill="none" stroke="#000000" stroke-linecap="round" stroke-linejoin="round" stroke-miterlimit="10" stroke-width="20.1478" x1="2385.107" x2="2385.107" y1="603.14" y2="659.067"/><line fill="none" stroke="#000000" stroke-linecap="round" stroke-linejoin="round" stroke-miterlimit="10" stroke-width="20.1478" x1="2614.701" x2="2555.146" y1="818.335" y2="818.335"/><line fill="none" stroke="#000000" stroke-linecap="round" stroke-linejoin="round" stroke-miterlimit="10" stroke-width="20.1478" x1="2259.022" x2="2209.784" y1="714.596" y2="681.13"/><line fill="none" stroke="#000000" stroke-linecap="round" stroke-linejoin="round" stroke-miterlimit="10" stroke-width="20.1478" x1="2510.479" x2="2559.718" y1="714.596" y2="681.13"/></g></g></svg>